<?xml version="1.0" encoding="utf-8" standalone="no"?>
<!DOCTYPE svg PUBLIC "-//W3C//DTD SVG 1.1//EN"
  "http://www.w3.org/Graphics/SVG/1.1/DTD/svg11.dtd">
<svg xmlns:xlink="http://www.w3.org/1999/xlink" width="432pt" height="273.6pt" viewBox="0 0 432 273.6" xmlns="http://www.w3.org/2000/svg" version="1.1">
 <metadata>
  <rdf:RDF xmlns:dc="http://purl.org/dc/elements/1.1/" xmlns:cc="http://creativecommons.org/ns#" xmlns:rdf="http://www.w3.org/1999/02/22-rdf-syntax-ns#">
   <cc:Work>
    <dc:type rdf:resource="http://purl.org/dc/dcmitype/StillImage"/>
    <dc:date>2023-09-19T16:43:36.073354</dc:date>
    <dc:format>image/svg+xml</dc:format>
    <dc:creator>
     <cc:Agent>
      <dc:title>Matplotlib v3.7.2, https://matplotlib.org/</dc:title>
     </cc:Agent>
    </dc:creator>
   </cc:Work>
  </rdf:RDF>
 </metadata>
 <defs>
  <style type="text/css">*{stroke-linejoin: round; stroke-linecap: butt}</style>
 </defs>
 <g id="figure_1">
  <g id="patch_1">
   <path d="M 0 273.6 
L 432 273.6 
L 432 0 
L 0 0 
z
" style="fill: #ffffff"/>
  </g>
  <g id="axes_1">
   <g id="patch_2">
    <path d="M 54.85357 225.443591 
L 419.04 225.443591 
L 419.04 12.96 
L 54.85357 12.96 
z
" style="fill: #ffffff"/>
   </g>
   <g id="matplotlib.axis_1">
    <g id="xtick_1">
     <g id="line2d_1">
      <path d="M 65.258896 225.443591 
L 65.258896 12.96 
" clip-path="url(#p2a0134ea40)" style="fill: none; stroke: #e0e0e0; stroke-linecap: round"/>
     </g>
     <g id="text_1">
      <!-- 0 -->
      <g style="fill: #262626" transform="translate(62.519163 242.553937) scale(0.11 -0.11)">
       <defs>
        <path id="CMSS17-30" d="M 2758 2044 
C 2758 2405 2752 3077 2490 3596 
C 2227 4096 1805 4229 1504 4229 
C 1069 4229 698 3975 506 3570 
C 301 3146 243 2709 243 2044 
C 243 1589 262 1031 493 543 
C 755 5 1197 -128 1498 -128 
C 1894 -128 2278 81 2496 518 
C 2720 974 2758 1474 2758 2044 
z
M 1498 261 
C 1011 261 864 811 819 995 
C 742 1310 730 1614 730 2114 
C 730 2506 730 2948 851 3297 
C 998 3701 1254 3840 1498 3840 
C 1971 3840 2125 3372 2176 3208 
C 2272 2873 2272 2481 2272 2114 
C 2272 1526 2272 261 1498 261 
z
" transform="scale(0.015625)"/>
       </defs>
       <use xlink:href="#CMSS17-30" transform="scale(0.996264)"/>
      </g>
     </g>
    </g>
    <g id="xtick_2">
     <g id="line2d_2">
      <path d="M 134.62774 225.443591 
L 134.62774 12.96 
" clip-path="url(#p2a0134ea40)" style="fill: none; stroke: #e0e0e0; stroke-linecap: round"/>
     </g>
     <g id="text_2">
      <!-- 2 -->
      <g style="fill: #262626" transform="translate(131.888007 242.553937) scale(0.11 -0.11)">
       <defs>
        <path id="CMSS17-32" d="M 1651 1357 
C 1830 1541 2099 1764 2285 1987 
C 2464 2204 2701 2511 2701 2957 
C 2701 3657 2227 4288 1421 4288 
C 787 4288 422 3893 250 3274 
L 499 2929 
C 640 3510 838 3880 1338 3880 
C 1888 3880 2195 3433 2195 2942 
C 2195 2355 1747 1901 1408 1563 
C 1030 1187 659 804 301 408 
L 301 0 
L 2701 0 
L 2701 433 
L 1613 433 
C 1536 433 1459 433 1382 433 
L 742 433 
L 742 439 
L 1651 1357 
z
" transform="scale(0.015625)"/>
       </defs>
       <use xlink:href="#CMSS17-32" transform="scale(0.996264)"/>
      </g>
     </g>
    </g>
    <g id="xtick_3">
     <g id="line2d_3">
      <path d="M 203.996584 225.443591 
L 203.996584 12.96 
" clip-path="url(#p2a0134ea40)" style="fill: none; stroke: #e0e0e0; stroke-linecap: round"/>
     </g>
     <g id="text_3">
      <!-- 4 -->
      <g style="fill: #262626" transform="translate(201.25685 242.553937) scale(0.11 -0.11)">
       <defs>
        <path id="CMSS17-34" d="M 2253 1088 
L 2835 1088 
L 2835 1477 
L 2253 1477 
L 2253 4192 
L 1690 4192 
L 166 1477 
L 166 1088 
L 1747 1088 
L 1747 0 
L 2253 0 
L 2253 1088 
z
M 659 1477 
C 1030 2127 1766 3439 1766 3885 
L 1766 1477 
L 659 1477 
z
" transform="scale(0.015625)"/>
       </defs>
       <use xlink:href="#CMSS17-34" transform="scale(0.996264)"/>
      </g>
     </g>
    </g>
    <g id="xtick_4">
     <g id="line2d_4">
      <path d="M 273.365428 225.443591 
L 273.365428 12.96 
" clip-path="url(#p2a0134ea40)" style="fill: none; stroke: #e0e0e0; stroke-linecap: round"/>
     </g>
     <g id="text_4">
      <!-- 6 -->
      <g style="fill: #262626" transform="translate(270.625694 242.553937) scale(0.11 -0.11)">
       <defs>
        <path id="CMSS17-36" d="M 2496 4101 
C 2227 4210 2035 4229 1856 4229 
C 1024 4229 250 3368 250 2006 
C 250 265 986 -128 1510 -128 
C 1798 -128 2086 -39 2362 280 
C 2643 617 2752 898 2752 1389 
C 2752 2179 2362 2880 1779 2880 
C 1357 2880 992 2657 768 2376 
C 832 3258 1254 3840 1862 3840 
C 2029 3840 2246 3816 2496 3710 
L 2496 4101 
z
M 774 1369 
C 774 1420 774 1452 781 1548 
C 781 2045 1069 2491 1536 2491 
C 1837 2491 1990 2332 2106 2135 
C 2240 1886 2246 1650 2246 1388 
C 2246 1140 2246 891 2099 637 
C 1978 439 1818 267 1510 267 
C 902 267 800 1114 774 1369 
z
" transform="scale(0.015625)"/>
       </defs>
       <use xlink:href="#CMSS17-36" transform="scale(0.996264)"/>
      </g>
     </g>
    </g>
    <g id="xtick_5">
     <g id="line2d_5">
      <path d="M 342.734272 225.443591 
L 342.734272 12.96 
" clip-path="url(#p2a0134ea40)" style="fill: none; stroke: #e0e0e0; stroke-linecap: round"/>
     </g>
     <g id="text_5">
      <!-- 8 -->
      <g style="fill: #262626" transform="translate(339.994538 242.553937) scale(0.11 -0.11)">
       <defs>
        <path id="CMSS17-38" d="M 1933 2222 
C 2419 2380 2669 2760 2669 3134 
C 2669 3722 2157 4229 1504 4229 
C 826 4229 333 3708 333 3144 
C 333 2780 576 2403 1069 2241 
C 442 1997 250 1512 250 1149 
C 250 446 819 -128 1498 -128 
C 2202 -128 2752 455 2752 1138 
C 2752 1557 2502 2000 1933 2222 
z
M 1504 2432 
C 1075 2432 787 2712 787 3136 
C 787 3566 1075 3840 1504 3840 
C 1901 3840 2214 3591 2214 3136 
C 2214 2687 1907 2432 1504 2432 
z
M 1504 267 
C 1139 267 749 517 749 1156 
C 749 1813 1184 2043 1498 2043 
C 1843 2043 2253 1800 2253 1156 
C 2253 491 1830 267 1504 267 
z
" transform="scale(0.015625)"/>
       </defs>
       <use xlink:href="#CMSS17-38" transform="scale(0.996264)"/>
      </g>
     </g>
    </g>
    <g id="xtick_6">
     <g id="line2d_6">
      <path d="M 412.103116 225.443591 
L 412.103116 12.96 
" clip-path="url(#p2a0134ea40)" style="fill: none; stroke: #e0e0e0; stroke-linecap: round"/>
     </g>
     <g id="text_6">
      <!-- 10 -->
      <g style="fill: #262626" transform="translate(406.623648 242.553937) scale(0.11 -0.11)">
       <defs>
        <path id="CMSS17-31" d="M 1818 4288 
L 1696 4288 
C 1350 3940 947 3890 538 3890 
L 538 3520 
C 723 3520 1024 3520 1325 3667 
L 1325 369 
L 570 369 
L 570 0 
L 2573 0 
L 2573 369 
L 1818 369 
L 1818 4288 
z
" transform="scale(0.015625)"/>
       </defs>
       <use xlink:href="#CMSS17-31" transform="scale(0.996264)"/>
       <use xlink:href="#CMSS17-30" transform="translate(46.843624 0) scale(0.996264)"/>
      </g>
     </g>
    </g>
    <g id="text_7">
     <!-- Frames (M) -->
     <g style="fill: #262626" transform="translate(207.93923 257.651208) scale(0.12 -0.12)">
      <defs>
       <path id="CMSS17-46" d="M 2918 1984 
L 2918 2373 
L 1101 2373 
L 1101 3968 
L 1882 3968 
C 1958 3968 2035 3968 2112 3968 
L 3168 3968 
L 3168 4375 
L 563 4375 
L 563 -32 
L 1101 -32 
L 1101 1984 
L 2918 1984 
z
" transform="scale(0.015625)"/>
       <path id="CMSS17-72" d="M 954 1363 
C 954 1965 1395 2368 1958 2368 
L 1958 2789 
C 1549 2789 1165 2585 934 2253 
L 934 2758 
L 480 2758 
L 480 0 
L 954 0 
L 954 1363 
z
" transform="scale(0.015625)"/>
       <path id="CMSS17-61" d="M 2406 1791 
C 2406 2392 1978 2808 1402 2808 
C 1120 2808 813 2757 461 2553 
L 499 2135 
C 659 2248 934 2432 1395 2432 
C 1722 2432 1920 2180 1920 1782 
L 1920 1536 
C 896 1536 256 1238 256 726 
C 256 461 416 -64 947 -64 
C 1043 -64 1562 -64 1933 217 
L 1933 -19 
L 2406 -19 
L 2406 1791 
z
M 1920 816 
C 1920 701 1920 548 1728 434 
C 1562 325 1350 325 1261 325 
C 941 325 723 511 723 744 
C 723 1211 1722 1211 1920 1211 
L 1920 816 
z
" transform="scale(0.015625)"/>
       <path id="CMSS17-6d" d="M 4288 1877 
C 4288 2308 4179 2816 3462 2816 
C 2982 2816 2694 2516 2566 2331 
C 2451 2670 2182 2816 1798 2816 
C 1363 2816 1088 2568 941 2389 
L 941 2758 
L 474 2758 
L 474 0 
L 960 0 
L 960 1559 
C 960 1939 1101 2428 1555 2428 
C 2138 2428 2138 2016 2138 1829 
L 2138 0 
L 2624 0 
L 2624 1559 
C 2624 1939 2765 2428 3219 2428 
C 3802 2428 3802 2016 3802 1829 
L 3802 0 
L 4288 0 
L 4288 1877 
z
" transform="scale(0.015625)"/>
       <path id="CMSS17-65" d="M 2502 1377 
C 2502 1590 2490 2003 2285 2345 
C 2061 2713 1696 2816 1421 2816 
C 755 2816 192 2188 192 1375 
C 192 582 774 -64 1510 -64 
C 1798 -64 2150 19 2470 248 
C 2470 274 2458 414 2451 420 
C 2451 433 2432 630 2432 656 
C 2125 407 1773 325 1517 325 
C 1107 325 666 667 646 1377 
L 2502 1377 
z
M 698 1728 
C 781 2084 1062 2421 1421 2421 
C 1517 2421 1965 2421 2080 1728 
L 698 1728 
z
" transform="scale(0.015625)"/>
       <path id="CMSS17-73" d="M 2061 2627 
C 1683 2807 1389 2807 1197 2807 
C 742 2807 198 2648 198 2003 
C 198 1359 902 1218 1094 1179 
C 1389 1122 1715 1058 1715 740 
C 1715 337 1254 337 1171 337 
C 915 337 563 407 243 638 
L 166 210 
C 531 0 883 -64 1178 -64 
C 1965 -64 2163 416 2163 781 
C 2163 1094 1984 1305 1862 1401 
C 1651 1568 1574 1587 1050 1696 
C 960 1709 646 1779 646 2066 
C 646 2432 1050 2432 1139 2432 
C 1555 2432 1811 2303 1984 2208 
L 2061 2627 
z
" transform="scale(0.015625)"/>
       <path id="CMSS17-28" d="M 1613 4768 
C 1267 4417 474 3601 474 1588 
C 474 -433 1267 -1243 1613 -1600 
L 2003 -1600 
C 1216 -784 960 357 960 1581 
C 960 2798 1203 3946 2003 4768 
L 1613 4768 
z
" transform="scale(0.015625)"/>
       <path id="CMSS17-4d" d="M 3194 2371 
L 2886 1473 
C 2835 1307 2662 791 2624 587 
L 2618 587 
C 2598 715 2560 849 2458 1174 
C 2400 1365 2336 1562 2272 1741 
L 1325 4416 
L 576 4416 
L 576 0 
L 1075 0 
L 1075 3900 
L 1082 3900 
C 1082 3894 1139 3613 1530 2499 
L 2374 96 
L 2848 96 
L 3610 2231 
C 3661 2378 3821 2843 3891 3066 
C 3955 3257 4115 3728 4154 3913 
L 4160 3913 
L 4160 0 
L 4666 0 
L 4666 4416 
L 3923 4416 
L 3194 2371 
z
" transform="scale(0.015625)"/>
       <path id="CMSS17-29" d="M 723 -1600 
C 1069 -1249 1862 -433 1862 1581 
C 1862 3601 1069 4411 723 4768 
L 333 4768 
C 1120 3952 1376 2811 1376 1588 
C 1376 370 1133 -778 333 -1600 
L 723 -1600 
z
" transform="scale(0.015625)"/>
      </defs>
      <use xlink:href="#CMSS17-46" transform="scale(0.996264)"/>
      <use xlink:href="#CMSS17-72" transform="translate(50.687105 0) scale(0.996264)"/>
      <use xlink:href="#CMSS17-61" transform="translate(82.596878 0) scale(0.996264)"/>
      <use xlink:href="#CMSS17-6d" transform="translate(127.518799 0) scale(0.996264)"/>
      <use xlink:href="#CMSS17-65" transform="translate(201.748053 0) scale(0.996264)"/>
      <use xlink:href="#CMSS17-73" transform="translate(243.386875 0) scale(0.996264)"/>
      <use xlink:href="#CMSS17-28" transform="translate(310.52953 0) scale(0.996264)"/>
      <use xlink:href="#CMSS17-4d" transform="translate(346.963444 0) scale(0.996264)"/>
      <use xlink:href="#CMSS17-29" transform="translate(428.639474 0) scale(0.996264)"/>
     </g>
    </g>
   </g>
   <g id="matplotlib.axis_2">
    <g id="ytick_1">
     <g id="line2d_7">
      <path d="M 54.85357 204.357208 
L 419.04 204.357208 
" clip-path="url(#p2a0134ea40)" style="fill: none; stroke: #e0e0e0; stroke-linecap: round"/>
     </g>
     <g id="text_8">
      <!-- 0 -->
      <g style="fill: #262626" transform="translate(39.874103 208.162381) scale(0.11 -0.11)">
       <use xlink:href="#CMSS17-30" transform="scale(0.996264)"/>
      </g>
     </g>
    </g>
    <g id="ytick_2">
     <g id="line2d_8">
      <path d="M 54.85357 134.309761 
L 419.04 134.309761 
" clip-path="url(#p2a0134ea40)" style="fill: none; stroke: #e0e0e0; stroke-linecap: round"/>
     </g>
     <g id="text_9">
      <!-- 10 -->
      <g style="fill: #262626" transform="translate(34.394635 138.114934) scale(0.11 -0.11)">
       <use xlink:href="#CMSS17-31" transform="scale(0.996264)"/>
       <use xlink:href="#CMSS17-30" transform="translate(46.843624 0) scale(0.996264)"/>
      </g>
     </g>
    </g>
    <g id="ytick_3">
     <g id="line2d_9">
      <path d="M 54.85357 64.262313 
L 419.04 64.262313 
" clip-path="url(#p2a0134ea40)" style="fill: none; stroke: #e0e0e0; stroke-linecap: round"/>
     </g>
     <g id="text_10">
      <!-- 100 -->
      <g style="fill: #262626" transform="translate(28.915168 68.067487) scale(0.11 -0.11)">
       <use xlink:href="#CMSS17-31" transform="scale(0.996264)"/>
       <use xlink:href="#CMSS17-30" transform="translate(46.843624 0) scale(0.996264)"/>
       <use xlink:href="#CMSS17-30" transform="translate(93.687247 0) scale(0.996264)"/>
      </g>
     </g>
    </g>
    <g id="ytick_4"/>
    <g id="ytick_5"/>
    <g id="ytick_6"/>
    <g id="ytick_7"/>
    <g id="ytick_8"/>
    <g id="ytick_9"/>
    <g id="ytick_10"/>
    <g id="ytick_11"/>
    <g id="ytick_12"/>
    <g id="ytick_13"/>
    <g id="ytick_14"/>
    <g id="ytick_15"/>
    <g id="ytick_16"/>
    <g id="ytick_17"/>
    <g id="ytick_18"/>
    <g id="ytick_19"/>
    <g id="ytick_20"/>
    <g id="ytick_21"/>
    <g id="ytick_22"/>
    <g id="ytick_23"/>
    <g id="ytick_24"/>
    <g id="ytick_25"/>
    <g id="ytick_26"/>
    <g id="ytick_27"/>
    <g id="ytick_28"/>
    <g id="text_11">
     <!-- Human Normalized Return (\%) -->
     <g style="fill: #262626" transform="translate(21.926376 195.681438) rotate(-90) scale(0.12 -0.12)">
      <defs>
       <path id="CMSS17-48" d="M 3674 4416 
L 3136 4416 
L 3136 2501 
L 1101 2501 
L 1101 4416 
L 563 4416 
L 563 0 
L 1101 0 
L 1101 2112 
L 3136 2112 
L 3136 0 
L 3674 0 
L 3674 4416 
z
" transform="scale(0.015625)"/>
       <path id="CMSS17-75" d="M 2618 2739 
L 2131 2739 
L 2131 972 
C 2131 498 1786 306 1421 306 
C 998 306 960 447 960 709 
L 960 2739 
L 474 2739 
L 474 678 
C 474 179 646 -64 1088 -64 
C 1306 -64 1798 -13 2144 306 
L 2144 0 
L 2618 0 
L 2618 2739 
z
" transform="scale(0.015625)"/>
       <path id="CMSS17-6e" d="M 2618 1877 
C 2618 2283 2522 2816 1798 2816 
C 1389 2816 1120 2606 941 2389 
L 941 2758 
L 474 2758 
L 474 0 
L 960 0 
L 960 1559 
C 960 1964 1114 2428 1549 2428 
C 2112 2428 2131 2048 2131 1829 
L 2131 0 
L 2618 0 
L 2618 1877 
z
" transform="scale(0.015625)"/>
       <path id="CMSS17-4e" d="M 1466 4180 
L 1350 4416 
L 563 4416 
L 563 0 
L 1062 0 
L 1062 3926 
L 1069 3932 
C 1114 3817 1139 3760 1402 3194 
L 2771 236 
L 2886 0 
L 3674 0 
L 3674 4416 
L 3174 4416 
L 3174 490 
L 3168 483 
C 3123 598 3098 655 2835 1221 
L 1466 4180 
z
" transform="scale(0.015625)"/>
       <path id="CMSS17-6f" d="M 2829 1356 
C 2829 2176 2221 2816 1504 2816 
C 768 2816 173 2157 173 1356 
C 173 544 787 -64 1498 -64 
C 2227 -64 2829 563 2829 1356 
z
M 1504 337 
C 1050 337 659 709 659 1408 
C 659 2151 1114 2427 1498 2427 
C 1914 2427 2342 2126 2342 1408 
C 2342 683 1926 337 1504 337 
z
" transform="scale(0.015625)"/>
       <path id="CMSS17-6c" d="M 947 4416 
L 474 4416 
L 474 0 
L 947 0 
L 947 4416 
z
" transform="scale(0.015625)"/>
       <path id="CMSS17-69" d="M 979 4183 
L 442 4183 
L 442 3648 
L 979 3648 
L 979 4183 
z
M 947 2739 
L 474 2739 
L 474 0 
L 947 0 
L 947 2739 
z
" transform="scale(0.015625)"/>
       <path id="CMSS17-7a" d="M 2400 2502 
L 2400 2750 
L 250 2750 
L 250 2368 
L 1069 2368 
C 1146 2368 1222 2368 1299 2368 
L 1747 2368 
L 166 261 
L 166 0 
L 2419 0 
L 2419 395 
L 1549 395 
C 1472 395 1395 395 1318 395 
L 826 395 
L 2400 2502 
z
" transform="scale(0.015625)"/>
       <path id="CMSS17-64" d="M 2611 4416 
L 2138 4416 
L 2138 2438 
C 1939 2603 1613 2756 1254 2756 
C 672 2756 211 2131 211 1347 
C 211 562 666 -64 1235 -64 
C 1677 -64 1971 172 2125 306 
L 2125 -13 
L 2611 -13 
L 2611 4416 
z
M 2125 836 
C 2125 747 2125 653 1926 482 
C 1798 375 1645 325 1498 325 
C 1152 325 698 576 698 1340 
C 698 2134 1210 2368 1562 2368 
C 1798 2368 1990 2254 2125 2065 
L 2125 836 
z
" transform="scale(0.015625)"/>
       <path id="CMSS17-52" d="M 2522 2109 
L 2534 2115 
C 3533 2459 3539 3147 3539 3268 
C 3539 3873 2925 4453 2003 4453 
L 570 4453 
L 570 32 
L 1094 32 
L 1094 2048 
L 2035 2048 
L 3168 32 
L 3706 32 
L 2522 2109 
z
M 1094 2437 
L 1094 4096 
L 1933 4096 
C 2746 4096 3034 3637 3034 3267 
C 3034 2922 2778 2437 1933 2437 
L 1094 2437 
z
" transform="scale(0.015625)"/>
       <path id="CMSS17-74" d="M 1069 2368 
L 1901 2368 
L 1901 2737 
L 1069 2737 
L 1069 3520 
L 614 3520 
L 614 2737 
L 109 2737 
L 109 2368 
L 602 2368 
L 602 749 
C 602 384 685 -64 1107 -64 
C 1427 -64 1722 25 2003 172 
L 1901 548 
C 1747 414 1562 337 1363 337 
C 1082 337 1069 696 1069 856 
L 1069 2368 
z
" transform="scale(0.015625)"/>
       <path id="CMSS17-25" d="M 3923 4583 
C 3962 4647 3962 4679 3962 4685 
C 3962 4755 3904 4800 3853 4800 
C 3782 4800 3750 4749 3718 4685 
L 1101 -104 
C 1088 -129 1062 -167 1062 -206 
C 1062 -276 1120 -320 1178 -320 
C 1235 -320 1248 -295 1299 -206 
L 3923 4583 
z
M 4678 959 
C 4678 1698 4282 2240 3846 2240 
C 3418 2240 3008 1711 3008 959 
C 3008 208 3418 -320 3846 -320 
C 4288 -320 4678 221 4678 959 
z
M 3846 68 
C 3712 68 3494 189 3494 959 
C 3494 1724 3712 1851 3846 1851 
C 4083 1851 4211 1386 4211 959 
C 4211 533 4083 68 3846 68 
z
M 2003 3519 
C 2003 4258 1606 4800 1171 4800 
C 742 4800 333 4271 333 3519 
C 333 2768 742 2240 1171 2240 
C 1613 2240 2003 2781 2003 3519 
z
M 1171 2628 
C 1037 2628 819 2749 819 3519 
C 819 4284 1037 4411 1171 4411 
C 1408 4411 1536 3946 1536 3519 
C 1536 3093 1408 2628 1171 2628 
z
" transform="scale(0.015625)"/>
      </defs>
      <use xlink:href="#CMSS17-48" transform="scale(0.996264)"/>
      <use xlink:href="#CMSS17-75" transform="translate(66.061519 0) scale(0.996264)"/>
      <use xlink:href="#CMSS17-6d" transform="translate(114.266462 0) scale(0.996264)"/>
      <use xlink:href="#CMSS17-61" transform="translate(188.495717 0) scale(0.996264)"/>
      <use xlink:href="#CMSS17-6e" transform="translate(233.417637 0) scale(0.996264)"/>
      <use xlink:href="#CMSS17-4e" transform="translate(312.851693 0) scale(0.996264)"/>
      <use xlink:href="#CMSS17-6f" transform="translate(378.913212 0) scale(0.996264)"/>
      <use xlink:href="#CMSS17-72" transform="translate(423.154382 0) scale(0.996264)"/>
      <use xlink:href="#CMSS17-6d" transform="translate(455.064155 0) scale(0.996264)"/>
      <use xlink:href="#CMSS17-61" transform="translate(529.293409 0) scale(0.996264)"/>
      <use xlink:href="#CMSS17-6c" transform="translate(574.21533 0) scale(0.996264)"/>
      <use xlink:href="#CMSS17-69" transform="translate(596.396053 0) scale(0.996264)"/>
      <use xlink:href="#CMSS17-7a" transform="translate(618.576776 0) scale(0.996264)"/>
      <use xlink:href="#CMSS17-65" transform="translate(659.254647 0) scale(0.996264)"/>
      <use xlink:href="#CMSS17-64" transform="translate(700.89347 0) scale(0.996264)"/>
      <use xlink:href="#CMSS17-52" transform="translate(780.327525 0) scale(0.996264)"/>
      <use xlink:href="#CMSS17-65" transform="translate(840.74368 0) scale(0.996264)"/>
      <use xlink:href="#CMSS17-74" transform="translate(882.382502 0) scale(0.996264)"/>
      <use xlink:href="#CMSS17-75" transform="translate(916.214069 0) scale(0.996264)"/>
      <use xlink:href="#CMSS17-72" transform="translate(964.419012 0) scale(0.996264)"/>
      <use xlink:href="#CMSS17-6e" transform="translate(996.328785 0) scale(0.996264)"/>
      <use xlink:href="#CMSS17-28" transform="translate(1075.762841 0) scale(0.996264)"/>
      <use xlink:href="#CMSS17-25" transform="translate(1112.196755 0) scale(0.996264)"/>
      <use xlink:href="#CMSS17-29" transform="translate(1190.269491 0) scale(0.996264)"/>
     </g>
    </g>
   </g>
   <g id="PolyCollection_1">
    <defs>
     <path id="m6aa4adbaff" d="M 65.400964 -93.764091 
L 65.400964 -12.544671 
L 73.072603 -85.161341 
L 79.785287 -102.318492 
L 87.279342 -112.293652 
L 94.453746 -123.68349 
L 100.527127 -133.051887 
L 107.346361 -141.618807 
L 114.023529 -146.108013 
L 120.700696 -149.66374 
L 126.73856 -152.596721 
L 133.415728 -153.646543 
L 140.341513 -154.807761 
L 147.515917 -155.405598 
L 154.619286 -155.916891 
L 162.717127 -156.392014 
L 170.069115 -157.570576 
L 177.385586 -159.122087 
L 184.453438 -159.774174 
L 190.953022 -161.533673 
L 197.559155 -162.281616 
L 204.342873 -162.855049 
L 210.309704 -163.854966 
L 216.738253 -164.55565 
L 223.98369 -165.288896 
L 231.371195 -166.545926 
L 237.480093 -167.018907 
L 243.873125 -167.297913 
L 251.544764 -167.317283 
L 258.257449 -167.9958 
L 265.218751 -167.420384 
L 271.789368 -167.40108 
L 278.715153 -167.993906 
L 285.214736 -168.094743 
L 293.099477 -168.35786 
L 300.096296 -168.655806 
L 307.554834 -168.668157 
L 313.91235 -169.200641 
L 320.909169 -169.610442 
L 328.012538 -169.937907 
L 334.725223 -169.807344 
L 342.07721 -169.188504 
L 349.074029 -168.438842 
L 356.141882 -168.094743 
L 363.103184 -168.550617 
L 370.206554 -168.760632 
L 377.34544 -169.412258 
L 384.306742 -169.496494 
L 391.161494 -169.729929 
L 398.051763 -170.067913 
L 404.302728 -169.664269 
L 410.624727 -170.085598 
L 410.624727 -183.952641 
L 410.624727 -183.952641 
L 404.302728 -184.496917 
L 398.051763 -184.086836 
L 391.161494 -183.720131 
L 384.306742 -184.500586 
L 377.34544 -184.057066 
L 370.206554 -183.960112 
L 363.103184 -183.810346 
L 356.141882 -182.87658 
L 349.074029 -182.635665 
L 342.07721 -182.849475 
L 334.725223 -182.329843 
L 328.012538 -182.612249 
L 320.909169 -181.523248 
L 313.91235 -180.477685 
L 307.554834 -180.868827 
L 300.096296 -179.894189 
L 293.099477 -181.181433 
L 285.214736 -181.115887 
L 278.715153 -180.603065 
L 271.789368 -180.410604 
L 265.218751 -179.190253 
L 258.257449 -178.834291 
L 251.544764 -178.254141 
L 243.873125 -178.258646 
L 237.480093 -178.154858 
L 231.371195 -177.964413 
L 223.98369 -177.111059 
L 216.738253 -175.801493 
L 210.309704 -175.264445 
L 204.342873 -174.006017 
L 197.559155 -173.635943 
L 190.953022 -173.902225 
L 184.453438 -173.165598 
L 177.385586 -172.459788 
L 170.069115 -171.80969 
L 162.717127 -170.547642 
L 154.619286 -169.747811 
L 147.515917 -168.295419 
L 140.341513 -167.168461 
L 133.415728 -166.399925 
L 126.73856 -164.385541 
L 120.700696 -163.797049 
L 114.023529 -161.94462 
L 107.346361 -157.561682 
L 100.527127 -150.706597 
L 94.453746 -139.919719 
L 87.279342 -125.599387 
L 79.785287 -115.138829 
L 73.072603 -106.195257 
L 65.400964 -93.764091 
z
" style="stroke: #4c72b0; stroke-opacity: 0.2"/>
    </defs>
    <g clip-path="url(#p2a0134ea40)">
     <use xlink:href="#m6aa4adbaff" x="0" y="273.6" style="fill: #4c72b0; fill-opacity: 0.2; stroke: #4c72b0; stroke-opacity: 0.2"/>
    </g>
   </g>
   <g id="PolyCollection_2">
    <defs>
     <path id="m76efaa09df" d="M 65.827166 -162.980417 
L 65.827166 -91.70459 
L 73.427772 -122.662537 
L 80.140456 -112.790971 
L 87.598994 -136.891821 
L 94.773397 -152.316746 
L 100.917812 -168.903218 
L 107.70153 -177.791135 
L 114.378697 -178.128527 
L 121.055865 -182.496739 
L 127.129246 -178.79229 
L 133.735379 -180.905723 
L 140.732199 -186.655654 
L 147.906602 -195.248435 
L 154.974455 -209.246407 
L 163.001262 -222.145567 
L 170.424284 -226.585846 
L 177.776271 -227.081287 
L 184.77309 -228.311298 
L 191.30819 -232.272388 
L 197.949841 -236.573309 
L 204.698042 -236.834227 
L 210.700389 -237.076822 
L 217.128939 -234.84652 
L 224.303342 -234.524139 
L 231.76188 -238.137399 
L 237.835261 -240.029679 
L 244.228294 -243.192451 
L 251.864416 -244.983204 
L 258.5771 -246.783132 
L 265.467369 -246.462136 
L 272.109019 -248.057158 
L 279.070322 -246.385127 
L 285.569905 -247.92892 
L 293.419128 -247.285091 
L 300.38043 -246.349519 
L 307.838969 -244.90858 
L 314.125451 -243.1529 
L 321.22882 -244.196756 
L 328.261156 -245.421015 
L 334.938324 -247.336871 
L 342.396862 -248.686148 
L 349.393681 -248.575966 
L 356.426017 -248.858426 
L 363.422836 -248.548359 
L 370.384138 -245.810334 
L 377.558541 -244.450638 
L 384.55536 -243.422145 
L 391.410112 -243.080256 
L 398.229347 -245.804288 
L 404.444795 -247.07889 
L 410.802311 -246.793048 
L 410.802311 -262.929477 
L 410.802311 -262.929477 
L 404.444795 -263.158302 
L 398.229347 -263.338198 
L 391.410112 -263.8378 
L 384.55536 -264.091369 
L 377.558541 -264.180301 
L 370.384138 -264.232492 
L 363.422836 -264.085083 
L 356.426017 -263.773284 
L 349.393681 -263.078247 
L 342.396862 -259.233905 
L 334.938324 -262.241396 
L 328.261156 -261.869459 
L 321.22882 -261.214332 
L 314.125451 -260.259715 
L 307.838969 -258.98308 
L 300.38043 -257.251686 
L 293.419128 -255.959937 
L 285.569905 -254.908496 
L 279.070322 -254.310354 
L 272.109019 -253.911792 
L 265.467369 -252.213885 
L 258.5771 -252.329571 
L 251.864416 -251.580087 
L 244.228294 -250.976592 
L 237.835261 -250.780853 
L 231.76188 -250.005036 
L 224.303342 -249.607893 
L 217.128939 -249.572452 
L 210.700389 -247.775366 
L 204.698042 -249.10106 
L 197.949841 -248.643148 
L 191.30819 -246.927763 
L 184.77309 -245.189909 
L 177.776271 -244.299353 
L 170.424284 -239.454738 
L 163.001262 -242.305471 
L 154.974455 -241.716557 
L 147.906602 -240.355136 
L 140.732199 -237.685272 
L 133.735379 -234.634437 
L 127.129246 -229.925665 
L 121.055865 -221.899738 
L 114.378697 -211.772684 
L 107.70153 -200.501427 
L 100.917812 -184.391251 
L 94.773397 -168.889662 
L 87.598994 -166.566778 
L 80.140456 -168.976602 
L 73.427772 -156.13398 
L 65.827166 -162.980417 
z
" style="stroke: #dd8452; stroke-opacity: 0.2"/>
    </defs>
    <g clip-path="url(#p2a0134ea40)">
     <use xlink:href="#m76efaa09df" x="0" y="273.6" style="fill: #dd8452; fill-opacity: 0.2; stroke: #dd8452; stroke-opacity: 0.2"/>
    </g>
   </g>
   <g id="PolyCollection_3">
    <path d="M 65.8982 112.815033 
L 65.8982 70251.804471 
L 73.498805 261.661566 
L 80.211489 107.90906 
L 87.670028 94.98318 
L 94.844431 82.613191 
L 100.988846 73.742017 
L 107.772564 73.563592 
L 114.449731 73.459124 
L 121.126898 73.483468 
L 127.200279 73.608974 
L 133.806413 73.826345 
L 140.803232 73.7701 
L 147.977636 73.735 
L 155.045488 73.601988 
L 163.072296 73.258163 
L 170.495317 72.962609 
L 177.847305 72.996829 
L 184.844124 73.441748 
L 191.379224 73.640432 
L 198.020874 73.355014 
L 204.769076 72.928428 
L 210.771423 72.955769 
L 217.199972 73.041371 
L 224.374376 73.110026 
L 231.832914 73.490426 
L 237.906295 73.459123 
L 244.299327 72.925011 
L 251.93545 72.938678 
L 258.648134 73.379273 
L 265.538403 73.879168 
L 272.180053 74.176688 
L 279.141355 74.269371 
L 285.640939 74.315819 
L 293.490162 74.315819 
L 300.451464 74.201614 
L 307.910002 73.703445 
L 314.196484 73.154737 
L 321.299854 72.871005 
L 328.33219 73.400085 
L 335.009357 73.500869 
L 342.467895 73.595004 
L 349.464714 73.182283 
L 356.49705 72.656352 
L 363.493869 72.619131 
L 370.455172 72.95235 
L 377.629575 72.846549 
L 384.626394 72.652967 
L 391.481146 72.642813 
L 398.300381 72.622514 
L 404.515829 72.527964 
L 410.873345 72.353148 
L 410.873345 71.907238 
L 410.873345 71.907238 
L 404.515829 71.818176 
L 398.300381 71.788546 
L 391.481146 71.64083 
L 384.626394 71.76881 
L 377.629575 71.907238 
L 370.455172 72.083933 
L 363.493869 71.950213 
L 356.49705 71.993248 
L 349.464714 71.907238 
L 342.467895 72.076181 
L 335.009357 72.299561 
L 328.33219 72.410189 
L 321.299854 72.363206 
L 314.196484 72.106092 
L 307.910002 71.709676 
L 300.451464 71.663762 
L 293.490162 71.874222 
L 285.640939 72.15934 
L 279.141355 72.276145 
L 272.180053 72.363206 
L 265.538403 72.169334 
L 258.648134 72.082824 
L 251.93545 72.192667 
L 244.299327 72.175998 
L 237.906295 72.052937 
L 231.832914 72.046299 
L 224.374376 72.112742 
L 217.199972 72.179331 
L 210.771423 72.484166 
L 204.769076 72.730931 
L 198.020874 72.480799 
L 191.379224 72.507742 
L 184.844124 72.581957 
L 177.847305 72.629279 
L 170.495317 72.400116 
L 163.072296 72.102767 
L 155.045488 72.383333 
L 147.977636 72.507742 
L 140.803232 72.588712 
L 133.806413 72.632662 
L 127.200279 72.400116 
L 121.126898 72.246067 
L 114.449731 72.457244 
L 107.772564 72.669898 
L 100.988846 72.986558 
L 94.844431 73.251257 
L 87.670028 79.639959 
L 80.211489 81.747326 
L 73.498805 86.725741 
L 65.8982 112.815033 
z
" clip-path="url(#p2a0134ea40)" style="fill: #55a868; fill-opacity: 0.2; stroke: #55a868; stroke-opacity: 0.2"/>
   </g>
   <g id="PolyCollection_4">
    <defs>
     <path id="md6e955799a" d="M 65.578548 -61.249007 
L 65.578548 -51.958955 
L 73.179154 -103.42181 
L 79.891838 -123.689022 
L 87.350376 -130.021251 
L 94.524779 -140.160993 
L 100.669194 -146.928346 
L 107.452912 -149.204346 
L 114.130079 -152.446846 
L 120.807247 -157.402749 
L 126.880628 -160.408923 
L 133.486762 -162.306954 
L 140.483581 -163.026308 
L 147.657984 -164.641463 
L 154.725837 -166.068147 
L 162.752644 -167.388166 
L 170.175666 -169.717689 
L 177.527653 -170.630979 
L 184.524472 -170.646355 
L 191.059572 -167.362491 
L 197.701223 -163.651758 
L 204.449424 -163.399218 
L 210.451771 -164.939621 
L 216.880321 -166.687205 
L 224.054724 -168.97166 
L 231.513262 -170.52313 
L 237.586643 -173.025726 
L 243.979676 -171.134325 
L 251.615798 -170.553983 
L 258.328482 -170.407151 
L 265.218751 -173.979637 
L 271.860402 -173.096721 
L 278.821704 -174.732553 
L 285.321287 -175.291856 
L 293.17051 -175.41038 
L 300.131813 -175.646052 
L 307.590351 -176.329559 
L 313.876833 -178.589934 
L 320.980202 -179.557063 
L 328.012538 -179.774195 
L 334.689706 -179.853802 
L 342.148244 -179.961508 
L 349.145063 -180.10828 
L 356.177399 -180.057554 
L 363.174218 -180.063194 
L 370.13552 -180.130797 
L 377.309923 -180.649686 
L 384.306742 -181.360495 
L 391.161494 -182.333759 
L 397.980729 -182.516407 
L 404.196177 -181.986325 
L 410.553693 -181.19793 
L 410.553693 -196.699811 
L 410.553693 -196.699811 
L 404.196177 -196.315497 
L 397.980729 -196.644271 
L 391.161494 -196.823594 
L 384.306742 -196.44085 
L 377.309923 -195.344864 
L 370.13552 -193.966049 
L 363.174218 -192.86433 
L 356.177399 -192.645083 
L 349.145063 -193.272576 
L 342.148244 -193.232363 
L 334.689706 -192.700974 
L 328.012538 -191.135083 
L 320.980202 -189.19316 
L 313.876833 -187.523061 
L 307.590351 -186.858261 
L 300.131813 -186.790522 
L 293.17051 -187.145594 
L 285.321287 -188.113104 
L 278.821704 -187.567163 
L 271.860402 -186.844725 
L 265.218751 -186.01673 
L 258.328482 -183.989016 
L 251.615798 -183.37311 
L 243.979676 -182.790917 
L 237.586643 -182.055073 
L 231.513262 -182.171064 
L 224.054724 -182.023363 
L 216.880321 -181.290156 
L 210.451771 -180.29915 
L 204.449424 -179.904868 
L 197.701223 -180.158921 
L 191.059572 -181.328051 
L 184.524472 -181.858995 
L 177.527653 -180.996229 
L 170.175666 -178.625431 
L 162.752644 -176.316803 
L 154.725837 -174.032402 
L 147.657984 -172.393723 
L 140.483581 -171.39791 
L 133.486762 -167.83823 
L 126.880628 -163.40897 
L 120.807247 -159.866059 
L 114.130079 -157.224045 
L 107.452912 -153.760194 
L 100.669194 -151.04496 
L 94.524779 -144.847452 
L 87.350376 -134.893815 
L 79.891838 -130.182225 
L 73.179154 -116.33803 
L 65.578548 -61.249007 
z
" style="stroke: #c44e52; stroke-opacity: 0.2"/>
    </defs>
    <g clip-path="url(#p2a0134ea40)">
     <use xlink:href="#md6e955799a" x="0" y="273.6" style="fill: #c44e52; fill-opacity: 0.2; stroke: #c44e52; stroke-opacity: 0.2"/>
    </g>
   </g>
   <g id="PolyCollection_5">
    <path d="M 65.791649 238.77584 
L 65.791649 70251.804471 
L 73.392255 70251.804471 
L 80.104939 198.797301 
L 87.563477 164.236282 
L 94.73788 141.164378 
L 100.882295 123.198847 
L 107.666013 111.318237 
L 114.34318 103.46187 
L 121.020348 98.287366 
L 127.093729 97.023348 
L 133.699863 93.701704 
L 140.696682 106.298004 
L 147.871085 112.833355 
L 154.938938 116.56517 
L 162.965745 111.529556 
L 170.388767 105.967645 
L 177.740754 100.081656 
L 184.737573 94.535213 
L 191.272673 89.271015 
L 197.914324 84.19332 
L 204.662525 79.170982 
L 210.664872 67.19433 
L 217.093422 70.575936 
L 224.267825 67.315239 
L 231.726363 64.483917 
L 237.799744 62.388036 
L 244.192777 60.409994 
L 251.828899 58.544619 
L 258.541584 57.192696 
L 265.431852 55.782981 
L 272.073503 55.362609 
L 279.034805 55.282148 
L 285.534388 55.096442 
L 293.383611 54.807402 
L 300.344914 54.546028 
L 307.803452 54.276278 
L 314.089934 53.917964 
L 321.193303 53.405448 
L 328.225639 52.89467 
L 334.902807 52.369086 
L 342.361345 51.996341 
L 349.358164 51.816556 
L 356.3905 51.624869 
L 363.387319 51.489146 
L 370.348621 51.4537 
L 377.523024 51.418294 
L 384.519844 51.395785 
L 391.374595 51.400071 
L 398.19383 51.411861 
L 404.409278 51.415078 
L 410.766794 51.411861 
L 410.766794 51.264279 
L 410.766794 51.264279 
L 404.409278 51.261078 
L 398.19383 51.261078 
L 391.374595 51.264279 
L 384.519844 51.264279 
L 377.523024 51.280286 
L 370.348621 51.379717 
L 363.387319 51.434383 
L 356.3905 51.521406 
L 349.358164 51.55047 
L 342.361345 51.579561 
L 334.902807 51.647548 
L 328.225639 51.757947 
L 321.193303 51.868747 
L 314.089934 52.006178 
L 307.803452 52.13435 
L 300.344914 52.282916 
L 293.383611 52.585584 
L 285.534388 53.030042 
L 279.034805 53.060583 
L 272.073503 53.057188 
L 265.431852 52.972435 
L 258.541584 52.877791 
L 251.828899 52.706157 
L 244.192777 52.4555 
L 237.799744 52.249839 
L 231.726363 52.032426 
L 224.267825 51.823075 
L 217.093422 51.725435 
L 210.664872 51.976676 
L 204.662525 52.432211 
L 197.914324 53.213753 
L 191.272673 54.325789 
L 184.737573 55.443282 
L 177.740754 57.049135 
L 170.388767 59.23548 
L 162.965745 62.007508 
L 154.938938 65.575808 
L 147.871085 69.455574 
L 140.696682 73.186627 
L 133.699863 76.993655 
L 127.093729 80.773566 
L 121.020348 84.582868 
L 114.34318 89.069846 
L 107.666013 94.770693 
L 100.882295 101.929866 
L 94.73788 115.487662 
L 87.563477 135.69884 
L 80.104939 157.64074 
L 73.392255 70251.804471 
L 65.791649 238.77584 
z
" clip-path="url(#p2a0134ea40)" style="fill: #8172b3; fill-opacity: 0.2; stroke: #8172b3; stroke-opacity: 0.2"/>
   </g>
   <g id="PolyCollection_6">
    <path d="M 65.258896 70251.804471 
L 65.258896 173.637312 
L 72.33735 142.173625 
L 79.415803 140.349056 
L 86.494257 129.090264 
L 93.57271 125.398065 
L 100.651164 128.468028 
L 107.729617 115.373454 
L 114.808071 117.161168 
L 121.886524 112.933472 
L 128.964978 107.209751 
L 136.043431 109.136856 
L 143.121884 106.565684 
L 150.200338 105.208956 
L 157.278791 107.111397 
L 164.357245 105.581075 
L 171.435698 105.909349 
L 178.514152 106.143958 
L 185.592605 104.830551 
L 192.671059 102.946679 
L 199.749512 102.108937 
L 206.827966 103.176105 
L 213.906419 102.315136 
L 220.984872 101.535237 
L 228.063326 101.525259 
L 235.141779 101.833865 
L 242.220233 100.909295 
L 249.298686 103.468541 
L 256.37714 100.936944 
L 263.455593 100.434976 
L 270.534047 98.738169 
L 277.6125 96.908199 
L 284.690953 99.049002 
L 291.769407 98.130936 
L 298.84786 99.538257 
L 305.926314 98.552073 
L 313.004767 100.040267 
L 320.083221 97.033614 
L 327.161674 97.706408 
L 334.240128 97.146041 
L 341.318581 96.787533 
L 348.397035 97.635245 
L 355.475488 96.176257 
L 362.553941 98.024399 
L 369.632395 97.066391 
L 376.710848 95.539472 
L 383.789302 94.415438 
L 390.867755 97.645031 
L 397.946209 97.628133 
L 405.024662 98.159263 
L 412.103116 96.58969 
L 412.103116 96.92566 
L 412.103116 96.92566 
L 405.024662 97.87577 
L 397.946209 97.315884 
L 390.867755 98.265151 
L 383.789302 98.624978 
L 376.710848 96.105291 
L 369.632395 99.070562 
L 362.553941 98.500553 
L 355.475488 98.729517 
L 348.397035 97.984333 
L 341.318581 95.711009 
L 334.240128 97.14049 
L 327.161674 98.838904 
L 320.083221 99.675462 
L 313.004767 100.782931 
L 305.926314 98.806744 
L 298.84786 98.66116 
L 291.769407 99.982347 
L 284.690953 97.780095 
L 277.6125 98.572194 
L 270.534047 96.763008 
L 263.455593 98.477927 
L 256.37714 97.979897 
L 249.298686 98.207439 
L 242.220233 98.589834 
L 235.141779 99.678445 
L 228.063326 101.619211 
L 220.984872 99.118641 
L 213.906419 101.437759 
L 206.827966 102.755001 
L 199.749512 102.837681 
L 192.671059 104.193828 
L 185.592605 104.47855 
L 178.514152 106.97669 
L 171.435698 109.062307 
L 164.357245 105.615549 
L 157.278791 107.087349 
L 150.200338 108.601998 
L 143.121884 107.153549 
L 136.043431 112.520039 
L 128.964978 110.360278 
L 121.886524 116.192645 
L 114.808071 114.882107 
L 107.729617 115.445665 
L 100.651164 117.996466 
L 93.57271 124.48498 
L 86.494257 124.210492 
L 79.415803 134.163337 
L 72.33735 163.698575 
L 65.258896 70251.804471 
z
" clip-path="url(#p2a0134ea40)" style="fill: #4c72b0; fill-opacity: 0.1; stroke: #4c72b0; stroke-opacity: 0.1"/>
   </g>
   <g id="PolyCollection_7">
    <path d="M 65.258896 70251.804471 
L 65.258896 70251.804471 
L 72.33735 70251.804471 
L 79.415803 68.896514 
L 86.494257 62.275399 
L 93.57271 62.071755 
L 100.651164 57.152492 
L 107.729617 47.164492 
L 114.808071 52.369387 
L 121.886524 45.342547 
L 128.964978 48.892408 
L 136.043431 41.804334 
L 143.121884 39.946415 
L 150.200338 37.710334 
L 157.278791 33.65291 
L 164.357245 33.893746 
L 171.435698 29.842716 
L 178.514152 33.593115 
L 185.592605 32.771279 
L 192.671059 31.877344 
L 199.749512 29.055503 
L 206.827966 32.796261 
L 213.906419 28.819819 
L 220.984872 29.405135 
L 228.063326 26.684243 
L 235.141779 29.027366 
L 242.220233 26.690321 
L 249.298686 27.18119 
L 256.37714 28.449104 
L 263.455593 26.27617 
L 270.534047 25.393507 
L 277.6125 25.026181 
L 284.690953 26.322528 
L 291.769407 26.804331 
L 298.84786 24.893965 
L 305.926314 25.725344 
L 313.004767 24.884121 
L 320.083221 22.207621 
L 327.161674 23.026545 
L 334.240128 22.69207 
L 341.318581 23.033517 
L 348.397035 21.86918 
L 355.475488 22.833682 
L 362.553941 23.430514 
L 369.632395 21.435834 
L 376.710848 23.441998 
L 383.789302 22.736644 
L 390.867755 21.828409 
L 397.946209 22.108763 
L 405.024662 22.308727 
L 412.103116 22.419534 
L 412.103116 18.456523 
L 412.103116 18.456523 
L 405.024662 17.753659 
L 397.946209 19.365189 
L 390.867755 18.383025 
L 383.789302 20.259054 
L 376.710848 22.280457 
L 369.632395 20.042716 
L 362.553941 21.207844 
L 355.475488 22.154652 
L 348.397035 20.349221 
L 341.318581 21.20732 
L 334.240128 22.200873 
L 327.161674 21.757535 
L 320.083221 19.821679 
L 313.004767 22.120975 
L 305.926314 22.893021 
L 298.84786 23.078547 
L 291.769407 23.011981 
L 284.690953 24.283516 
L 277.6125 21.703647 
L 270.534047 21.507314 
L 263.455593 23.903553 
L 256.37714 23.591096 
L 249.298686 23.55725 
L 242.220233 24.183052 
L 235.141779 26.451428 
L 228.063326 23.977184 
L 220.984872 23.043489 
L 213.906419 24.511509 
L 206.827966 26.839096 
L 199.749512 25.158133 
L 192.671059 26.283829 
L 185.592605 28.056729 
L 178.514152 26.85616 
L 171.435698 27.466244 
L 164.357245 26.663377 
L 157.278791 28.277205 
L 150.200338 28.93618 
L 143.121884 26.894455 
L 136.043431 30.140352 
L 128.964978 33.569897 
L 121.886524 37.16666 
L 114.808071 37.751701 
L 107.729617 38.374474 
L 100.651164 39.7871 
L 93.57271 47.015788 
L 86.494257 50.332063 
L 79.415803 56.281351 
L 72.33735 53.555166 
L 65.258896 70251.804471 
z
" clip-path="url(#p2a0134ea40)" style="fill: #dd8452; fill-opacity: 0.1; stroke: #dd8452; stroke-opacity: 0.1"/>
   </g>
   <g id="PolyCollection_8">
    <defs>
     <path id="m3cf48f76e9" d="M 65.258896 -201.005088 
L 65.258896 -200.357379 
L 72.33735 -199.982334 
L 79.415803 -200.461151 
L 86.494257 -199.094609 
L 93.57271 -200.064428 
L 100.651164 -199.36443 
L 107.729617 -200.79631 
L 114.808071 -201.821141 
L 121.886524 -203.205082 
L 128.964978 -207.108025 
L 136.043431 -207.841081 
L 143.121884 -208.471632 
L 150.200338 -210.385041 
L 157.278791 -210.687802 
L 164.357245 -211.023731 
L 171.435698 -210.97405 
L 178.514152 -211.417609 
L 185.592605 -211.104703 
L 192.671059 -211.382305 
L 199.749512 -211.962046 
L 206.827966 -211.626974 
L 213.906419 -211.578855 
L 220.984872 -212.109293 
L 228.063326 -211.823231 
L 235.141779 -211.739066 
L 242.220233 -212.094131 
L 249.298686 -211.895503 
L 256.37714 -211.875963 
L 263.455593 -211.976564 
L 270.534047 -211.886126 
L 277.6125 -212.047378 
L 284.690953 -211.972101 
L 291.769407 -212.033449 
L 298.84786 -211.89473 
L 305.926314 -211.737565 
L 313.004767 -211.774519 
L 320.083221 -211.999105 
L 327.161674 -211.908762 
L 334.240128 -211.707964 
L 341.318581 -212.036068 
L 348.397035 -211.726961 
L 355.475488 -211.879244 
L 362.553941 -211.937525 
L 369.632395 -211.686849 
L 376.710848 -211.864165 
L 383.789302 -211.827526 
L 390.867755 -212.026591 
L 397.946209 -211.978051 
L 405.024662 -212.424794 
L 412.103116 -212.082555 
L 412.103116 -212.318034 
L 412.103116 -212.318034 
L 405.024662 -212.519418 
L 397.946209 -212.285645 
L 390.867755 -212.412197 
L 383.789302 -212.04466 
L 376.710848 -212.106139 
L 369.632395 -211.8701 
L 362.553941 -212.091916 
L 355.475488 -212.071607 
L 348.397035 -212.299977 
L 341.318581 -212.208626 
L 334.240128 -211.986787 
L 327.161674 -212.295856 
L 320.083221 -212.167397 
L 313.004767 -211.802456 
L 305.926314 -212.192255 
L 298.84786 -212.114897 
L 291.769407 -212.133204 
L 284.690953 -212.38853 
L 277.6125 -212.255791 
L 270.534047 -211.986364 
L 263.455593 -212.170296 
L 256.37714 -212.25048 
L 249.298686 -212.231167 
L 242.220233 -212.287117 
L 235.141779 -211.739066 
L 228.063326 -211.950838 
L 220.984872 -212.252594 
L 213.906419 -212.035906 
L 206.827966 -211.949155 
L 199.749512 -212.301481 
L 192.671059 -212.111243 
L 185.592605 -212.107401 
L 178.514152 -212.096296 
L 171.435698 -212.018388 
L 164.357245 -212.166038 
L 157.278791 -211.881661 
L 150.200338 -212.091824 
L 143.121884 -211.80978 
L 136.043431 -212.247382 
L 128.964978 -210.756007 
L 121.886524 -210.136354 
L 114.808071 -209.475406 
L 107.729617 -205.684069 
L 100.651164 -202.380391 
L 93.57271 -200.980745 
L 86.494257 -199.534112 
L 79.415803 -201.240311 
L 72.33735 -200.291679 
L 65.258896 -201.005088 
z
" style="stroke: #55a868; stroke-opacity: 0.1"/>
    </defs>
    <g clip-path="url(#p2a0134ea40)">
     <use xlink:href="#m3cf48f76e9" x="0" y="273.6" style="fill: #55a868; fill-opacity: 0.1; stroke: #55a868; stroke-opacity: 0.1"/>
    </g>
   </g>
   <g id="PolyCollection_9">
    <path d="M 65.258896 80.94373 
L 65.258896 70251.804471 
L 72.33735 70251.804471 
L 79.415803 70251.804471 
L 86.494257 70251.804471 
L 93.57271 70251.804471 
L 100.651164 70251.804471 
L 107.729617 70251.804471 
L 114.808071 70251.804471 
L 121.886524 70251.804471 
L 128.964978 70251.804471 
L 136.043431 70251.804471 
L 143.121884 70251.804471 
L 150.200338 70251.804471 
L 157.278791 70251.804471 
L 164.357245 70251.804471 
L 171.435698 70251.804471 
L 178.514152 70251.804471 
L 185.592605 70251.804471 
L 192.671059 70251.804471 
L 199.749512 70251.804471 
L 206.827966 70251.804471 
L 213.906419 70251.804471 
L 220.984872 70251.804471 
L 228.063326 70251.804471 
L 235.141779 70251.804471 
L 242.220233 70251.804471 
L 249.298686 70251.804471 
L 256.37714 70251.804471 
L 263.455593 70251.804471 
L 270.534047 70251.804471 
L 277.6125 70251.804471 
L 284.690953 70251.804471 
L 291.769407 70251.804471 
L 298.84786 70251.804471 
L 305.926314 70251.804471 
L 313.004767 70251.804471 
L 320.083221 70251.804471 
L 327.161674 70251.804471 
L 334.240128 70251.804471 
L 341.318581 70251.804471 
L 348.397035 70251.804471 
L 355.475488 70251.804471 
L 362.553941 70251.804471 
L 369.632395 70251.804471 
L 376.710848 70251.804471 
L 383.789302 70251.804471 
L 390.867755 70251.804471 
L 397.946209 70251.804471 
L 405.024662 70251.804471 
L 412.103116 70251.804471 
L 412.103116 55.840259 
L 412.103116 55.840259 
L 405.024662 55.996729 
L 397.946209 55.813253 
L 390.867755 58.002496 
L 383.789302 56.414988 
L 376.710848 56.694557 
L 369.632395 57.805341 
L 362.553941 55.978622 
L 355.475488 57.527182 
L 348.397035 56.427894 
L 341.318581 56.701359 
L 334.240128 56.343948 
L 327.161674 57.601031 
L 320.083221 57.006017 
L 313.004767 57.60386 
L 305.926314 56.845816 
L 298.84786 57.321892 
L 291.769407 58.202421 
L 284.690953 57.483928 
L 277.6125 58.98395 
L 270.534047 58.621153 
L 263.455593 58.899708 
L 256.37714 58.447775 
L 249.298686 57.893643 
L 242.220233 59.475387 
L 235.141779 60.02757 
L 228.063326 61.328574 
L 220.984872 60.602441 
L 213.906419 61.901987 
L 206.827966 63.314243 
L 199.749512 63.410659 
L 192.671059 63.328734 
L 185.592605 64.280795 
L 178.514152 63.896925 
L 171.435698 65.778141 
L 164.357245 65.128967 
L 157.278791 65.182478 
L 150.200338 65.411797 
L 143.121884 66.594897 
L 136.043431 67.265011 
L 128.964978 66.185652 
L 121.886524 68.476207 
L 114.808071 70.391729 
L 107.729617 71.020368 
L 100.651164 73.437963 
L 93.57271 75.036358 
L 86.494257 75.688919 
L 79.415803 78.081014 
L 72.33735 79.834327 
L 65.258896 80.94373 
z
" clip-path="url(#p2a0134ea40)" style="fill: #c44e52; fill-opacity: 0.1; stroke: #c44e52; stroke-opacity: 0.1"/>
   </g>
   <g id="PolyCollection_10">
    <path d="M 65.258896 30.775836 
L 65.258896 70251.804471 
L 72.33735 70251.804471 
L 79.415803 70251.804471 
L 86.494257 70251.804471 
L 93.57271 70251.804471 
L 100.651164 70251.804471 
L 107.729617 70251.804471 
L 114.808071 70251.804471 
L 121.886524 70251.804471 
L 128.964978 70251.804471 
L 136.043431 70251.804471 
L 143.121884 70251.804471 
L 150.200338 70251.804471 
L 157.278791 70251.804471 
L 164.357245 70251.804471 
L 171.435698 70251.804471 
L 178.514152 70251.804471 
L 185.592605 70251.804471 
L 192.671059 70251.804471 
L 199.749512 70251.804471 
L 206.827966 70251.804471 
L 213.906419 70251.804471 
L 220.984872 70251.804471 
L 228.063326 70251.804471 
L 235.141779 70251.804471 
L 242.220233 70251.804471 
L 249.298686 70251.804471 
L 256.37714 70251.804471 
L 263.455593 70251.804471 
L 270.534047 70251.804471 
L 277.6125 70251.804471 
L 284.690953 70251.804471 
L 291.769407 70251.804471 
L 298.84786 70251.804471 
L 305.926314 70251.804471 
L 313.004767 70251.804471 
L 320.083221 70251.804471 
L 327.161674 70251.804471 
L 334.240128 70251.804471 
L 341.318581 70251.804471 
L 348.397035 70251.804471 
L 355.475488 70251.804471 
L 362.553941 70251.804471 
L 369.632395 70251.804471 
L 376.710848 70251.804471 
L 383.789302 70251.804471 
L 390.867755 70251.804471 
L 397.946209 70251.804471 
L 405.024662 70251.804471 
L 412.103116 70251.804471 
L 412.103116 30.646344 
L 412.103116 30.646344 
L 405.024662 30.638612 
L 397.946209 30.678927 
L 390.867755 30.70001 
L 383.789302 30.775836 
L 376.710848 30.677492 
L 369.632395 30.498018 
L 362.553941 30.770203 
L 355.475488 30.759183 
L 348.397035 30.759423 
L 341.318581 30.635577 
L 334.240128 30.583802 
L 327.161674 30.622743 
L 320.083221 30.729437 
L 313.004767 30.657178 
L 305.926314 30.612106 
L 298.84786 30.761755 
L 291.769407 30.730801 
L 284.690953 30.719553 
L 277.6125 30.743019 
L 270.534047 30.775836 
L 263.455593 30.803733 
L 256.37714 30.775836 
L 249.298686 30.764571 
L 242.220233 30.773019 
L 235.141779 30.80043 
L 228.063326 30.759183 
L 220.984872 30.729437 
L 213.906419 30.759423 
L 206.827966 30.775836 
L 199.749512 30.759423 
L 192.671059 30.773019 
L 185.592605 30.773019 
L 178.514152 30.775836 
L 171.435698 30.692926 
L 164.357245 30.775836 
L 157.278791 30.75331 
L 150.200338 30.668988 
L 143.121884 29.402115 
L 136.043431 30.759183 
L 128.964978 30.775836 
L 121.886524 30.563193 
L 114.808071 29.013891 
L 107.729617 30.798001 
L 100.651164 30.779579 
L 93.57271 30.690419 
L 86.494257 30.151663 
L 79.415803 30.759183 
L 72.33735 30.773019 
L 65.258896 30.775836 
z
" clip-path="url(#p2a0134ea40)" style="fill: #8172b3; fill-opacity: 0.1; stroke: #8172b3; stroke-opacity: 0.1"/>
   </g>
   <g id="line2d_10"/>
   <g id="line2d_11">
    <path d="M 65.400964 192.673337 
L 73.072603 176.390104 
L 79.785287 165.426195 
L 87.279342 152.996965 
L 94.453746 139.485169 
L 100.527127 130.182609 
L 107.346361 123.372606 
L 114.023529 119.484966 
L 120.700696 116.69772 
L 126.73856 115.337803 
L 133.415728 113.975072 
L 140.341513 113.214433 
L 147.515917 112.340782 
L 154.619286 110.725026 
L 162.717127 109.500107 
L 170.069115 107.979429 
L 177.385586 106.970329 
L 184.453438 106.325779 
L 190.953022 105.398483 
L 197.559155 105.29 
L 204.342873 104.70833 
L 210.309704 103.903878 
L 216.738253 103.585204 
L 223.98369 102.608665 
L 231.371195 102.190153 
L 237.480093 101.911203 
L 243.873125 101.71245 
L 251.544764 101.516826 
L 258.257449 101.236664 
L 265.218751 100.930173 
L 271.789368 100.213297 
L 278.715153 100.239745 
L 285.214736 99.922133 
L 293.099477 99.852387 
L 300.096296 100.320996 
L 307.554834 99.562915 
L 313.91235 99.41663 
L 320.909169 98.6336 
L 328.012538 98.254473 
L 334.725223 98.451761 
L 342.07721 98.473392 
L 349.074029 98.853589 
L 356.141882 98.631927 
L 363.103184 97.976472 
L 370.206554 97.762714 
L 377.34544 97.455328 
L 384.306742 97.04443 
L 391.161494 97.315608 
L 398.051763 96.80557 
L 404.302728 96.65625 
L 410.624727 96.781944 
" clip-path="url(#p2a0134ea40)" style="fill: none; stroke: #4c72b0; stroke-width: 1.5; stroke-linecap: round"/>
   </g>
   <g id="line2d_12">
    <path d="M 65.827166 122.84476 
L 73.427772 129.351404 
L 80.140456 121.474282 
L 87.598994 115.821482 
L 94.773397 109.314128 
L 100.917812 96.668133 
L 107.70153 83.945526 
L 114.378697 73.712225 
L 121.055865 64.461785 
L 127.129246 58.301545 
L 133.735379 53.58469 
L 140.732199 50.255714 
L 147.906602 47.891094 
L 154.974455 44.810632 
L 163.001262 41.735682 
L 170.424284 39.419069 
L 177.776271 37.824879 
L 184.77309 36.596153 
L 191.30819 34.713448 
L 197.949841 32.252822 
L 204.698042 30.790975 
L 210.700389 29.643647 
L 217.128939 29.924696 
L 224.303342 29.688118 
L 231.76188 28.194132 
L 237.835261 27.005023 
L 244.228294 26.007454 
L 251.864416 25.084482 
L 258.5771 24.296043 
L 265.467369 23.436358 
L 272.109019 22.923462 
L 279.070322 22.491062 
L 285.569905 21.695988 
L 293.419128 21.445233 
L 300.38043 20.950228 
L 307.838969 20.723335 
L 314.125451 20.712588 
L 321.22882 19.803032 
L 328.261156 19.152459 
L 334.938324 18.856381 
L 342.396862 18.958993 
L 349.393681 19.146426 
L 356.426017 18.841919 
L 363.422836 18.769096 
L 370.384138 18.973813 
L 377.558541 19.48367 
L 384.55536 19.639147 
L 391.410112 20.002845 
L 398.229347 20.053076 
L 404.444795 20.042799 
L 410.802311 20.207873 
" clip-path="url(#p2a0134ea40)" style="fill: none; stroke: #dd8452; stroke-width: 1.5; stroke-linecap: round"/>
   </g>
   <g id="line2d_13">
    <path d="M 65.8982 144.391884 
L 73.498805 102.311715 
L 80.211489 89.690142 
L 87.670028 84.782739 
L 94.844431 76.198854 
L 100.988846 73.451014 
L 107.772564 73.232848 
L 114.449731 73.083691 
L 121.126898 73.020805 
L 127.200279 73.188025 
L 133.806413 73.418594 
L 140.803232 73.363098 
L 147.977636 73.292717 
L 155.045488 73.103155 
L 163.072296 72.768289 
L 170.495317 72.738852 
L 177.847305 72.812499 
L 184.844124 72.964889 
L 191.379224 73.032229 
L 198.020874 72.993405 
L 204.769076 72.856772 
L 210.771423 72.712834 
L 217.199972 72.68345 
L 224.374376 72.708311 
L 231.832914 72.68571 
L 237.906295 72.613496 
L 244.299327 72.547075 
L 251.93545 72.554948 
L 258.648134 72.61575 
L 265.538403 72.784152 
L 272.180053 73.015095 
L 279.141355 73.135239 
L 285.640939 73.182282 
L 293.490162 73.198363 
L 300.451464 73.031087 
L 307.910002 72.779619 
L 314.196484 72.649582 
L 321.299854 72.692489 
L 328.33219 72.750171 
L 335.009357 72.766024 
L 342.467895 72.703791 
L 349.464714 72.433708 
L 356.49705 72.297329 
L 363.493869 72.388926 
L 370.455172 72.425866 
L 377.629575 72.359854 
L 384.626394 72.300676 
L 391.481146 72.230482 
L 398.300381 72.1072 
L 404.515829 72.092794 
L 410.873345 72.086147 
" clip-path="url(#p2a0134ea40)" style="fill: none; stroke: #55a868; stroke-width: 1.5; stroke-linecap: round"/>
   </g>
   <g id="line2d_14">
    <path d="M 65.578548 218.21934 
L 73.179154 162.620501 
L 79.891838 146.786417 
L 87.350376 140.809098 
L 94.524779 130.729851 
L 100.669194 125.225998 
L 107.452912 122.331389 
L 114.130079 118.778441 
L 120.807247 114.83826 
L 126.880628 112.081655 
L 133.486762 109.329073 
L 140.483581 107.106002 
L 147.657984 105.504365 
L 154.725837 103.44957 
L 162.752644 101.451582 
L 170.175666 99.284693 
L 177.527653 98.338949 
L 184.524472 98.617598 
L 191.059572 99.638737 
L 197.701223 101.025392 
L 204.449424 100.934152 
L 210.451771 100.227973 
L 216.880321 99.157787 
L 224.054724 98.123972 
L 231.513262 97.319365 
L 237.586643 96.695664 
L 243.979676 96.11108 
L 251.615798 95.819907 
L 258.328482 95.465324 
L 265.218751 94.363841 
L 271.860402 93.529287 
L 278.821704 92.838034 
L 285.321287 92.596479 
L 293.17051 92.998296 
L 300.131813 92.974296 
L 307.590351 92.611064 
L 313.876833 91.506214 
L 320.980202 90.083905 
L 328.012538 88.526773 
L 334.689706 87.58327 
L 342.148244 87.386049 
L 349.145063 87.161119 
L 356.177399 87.127599 
L 363.174218 86.305821 
L 370.13552 85.04571 
L 377.309923 83.902766 
L 384.306742 83.079881 
L 391.161494 82.564367 
L 397.980729 82.380118 
L 404.196177 82.350169 
L 410.553693 82.131007 
" clip-path="url(#p2a0134ea40)" style="fill: none; stroke: #c44e52; stroke-width: 1.5; stroke-linecap: round"/>
   </g>
   <g id="line2d_15">
    <path d="M 80.095369 274.6 
L 80.104939 174.691055 
L 87.563477 149.718468 
L 94.73788 128.489914 
L 100.882295 113.473956 
L 107.666013 104.057371 
L 114.34318 96.964741 
L 121.020348 91.666048 
L 127.093729 87.828073 
L 133.699863 85.39519 
L 140.696682 82.947896 
L 147.871085 80.271992 
L 154.938938 77.276805 
L 162.965745 73.619644 
L 170.388767 70.487502 
L 177.740754 67.851551 
L 184.737573 65.61511 
L 191.272673 63.862605 
L 197.914324 62.283643 
L 204.662525 60.849784 
L 210.664872 59.530833 
L 217.093422 58.370285 
L 224.267825 57.467473 
L 231.726363 56.748695 
L 237.799744 56.245665 
L 244.192777 55.839968 
L 251.828899 55.423705 
L 258.541584 55.091602 
L 265.431852 54.696133 
L 272.073503 54.324609 
L 279.034805 54.019409 
L 285.534388 53.712614 
L 293.383611 53.463881 
L 300.344914 53.251313 
L 307.803452 53.071903 
L 314.089934 52.867668 
L 321.193303 52.583356 
L 328.225639 52.309404 
L 334.902807 52.031332 
L 342.361345 51.805694 
L 349.358164 51.673488 
L 356.3905 51.555855 
L 363.387319 51.468733 
L 370.348621 51.409717 
L 377.523024 51.364728 
L 384.519844 51.349747 
L 391.374595 51.354026 
L 398.19383 51.356166 
L 404.409278 51.357237 
L 410.766794 51.356166 
" clip-path="url(#p2a0134ea40)" style="fill: none; stroke: #8172b3; stroke-width: 1.5; stroke-linecap: round"/>
   </g>
   <g id="line2d_16"/>
   <g id="line2d_17"/>
   <g id="line2d_18"/>
   <g id="line2d_19"/>
   <g id="line2d_20"/>
   <g id="line2d_21"/>
   <g id="line2d_22">
    <path d="M 65.258896 230.782757 
L 72.33735 151.070752 
L 79.415803 137.099244 
L 86.494257 126.552639 
L 93.57271 124.938097 
L 100.651164 122.78389 
L 107.729617 115.409538 
L 114.808071 116.0003 
L 121.886524 114.519433 
L 128.964978 108.744248 
L 136.043431 110.78144 
L 143.121884 106.858196 
L 150.200338 106.858196 
L 157.278791 107.09937 
L 164.357245 105.598307 
L 171.435698 107.444998 
L 178.514152 106.557475 
L 185.592605 104.654041 
L 192.671059 103.563863 
L 199.749512 102.471127 
L 206.827966 102.964824 
L 213.906419 101.873285 
L 220.984872 100.302949 
L 228.063326 101.572199 
L 235.141779 100.737069 
L 242.220233 99.727464 
L 249.298686 100.724398 
L 256.37714 99.422505 
L 263.455593 99.440717 
L 270.534047 97.734561 
L 277.6125 97.728821 
L 284.690953 98.407933 
L 291.769407 99.042559 
L 298.84786 99.096548 
L 305.926314 98.679142 
L 313.004767 100.409333 
L 320.083221 98.325869 
L 327.161674 98.267386 
L 334.240128 97.143265 
L 341.318581 96.24451 
L 348.397035 97.809288 
L 355.475488 97.426108 
L 362.553941 98.261544 
L 369.632395 98.051975 
L 376.710848 95.821066 
L 383.789302 96.447454 
L 390.867755 97.953511 
L 397.946209 97.471608 
L 405.024662 98.017187 
L 412.103116 96.757211 
" clip-path="url(#p2a0134ea40)" style="fill: none; stroke-dasharray: 5.55,2.4; stroke-dashoffset: 0; stroke: #4c72b0; stroke-width: 1.5"/>
   </g>
   <g id="line2d_23">
    <path d="M 79.394357 274.6 
L 79.415803 61.939653 
L 86.494257 55.72134 
L 93.57271 53.621695 
L 100.651164 47.247174 
L 107.729617 42.453104 
L 114.808071 44.190871 
L 121.886524 40.980761 
L 128.964978 40.276479 
L 136.043431 35.416714 
L 143.121884 32.72576 
L 150.200338 33.008015 
L 157.278791 30.846469 
L 164.357245 30.064256 
L 171.435698 28.63128 
L 178.514152 30.038525 
L 185.592605 30.322765 
L 192.671059 28.952208 
L 199.749512 27.044447 
L 206.827966 29.672092 
L 213.906419 26.589459 
L 220.984872 26.058322 
L 228.063326 25.300612 
L 235.141779 27.71214 
L 242.220233 25.410863 
L 249.298686 25.315289 
L 256.37714 25.92323 
L 263.455593 25.066736 
L 270.534047 23.388397 
L 277.6125 23.319577 
L 284.690953 25.285942 
L 291.769407 24.849099 
L 298.84786 23.972716 
L 305.926314 24.276232 
L 313.004767 23.471187 
L 320.083221 20.991264 
L 327.161674 22.385423 
L 334.240128 22.44548 
L 341.318581 22.106717 
L 348.397035 21.099709 
L 355.475488 22.492272 
L 362.553941 22.298884 
L 369.632395 20.731301 
L 376.710848 22.855684 
L 383.789302 21.472633 
L 390.867755 20.056967 
L 397.946209 20.706057 
L 405.024662 19.946017 
L 412.103116 20.373541 
" clip-path="url(#p2a0134ea40)" style="fill: none; stroke-dasharray: 5.55,2.4; stroke-dashoffset: 0; stroke: #dd8452; stroke-width: 1.5"/>
   </g>
   <g id="line2d_24">
    <path d="M 65.258896 72.917043 
L 72.33735 73.462601 
L 79.415803 72.746774 
L 86.494257 74.284846 
L 93.57271 73.073964 
L 100.651164 72.690229 
L 107.729617 70.261751 
L 114.808071 67.711623 
L 121.886524 66.732302 
L 128.964978 64.613335 
L 136.043431 63.47606 
L 143.121884 63.41353 
L 150.200338 62.349599 
L 157.278791 62.309413 
L 164.357245 61.999754 
L 171.435698 62.0993 
L 178.514152 61.841155 
L 185.592605 61.989817 
L 192.671059 61.851043 
L 199.749512 61.467763 
L 206.827966 61.811509 
L 213.906419 61.791761 
L 220.984872 61.418972 
L 228.063326 61.712899 
L 235.141779 61.860934 
L 242.220233 61.409223 
L 249.298686 61.536202 
L 256.37714 61.536202 
L 263.455593 61.526416 
L 270.534047 61.663713 
L 277.6125 61.448237 
L 284.690953 61.418972 
L 291.769407 61.516632 
L 298.84786 61.594987 
L 305.926314 61.63424 
L 313.004767 61.811509 
L 320.083221 61.516632 
L 327.161674 61.497075 
L 334.240128 61.752305 
L 341.318581 61.47753 
L 348.397035 61.585182 
L 355.475488 61.624422 
L 362.553941 61.585182 
L 369.632395 61.821388 
L 376.710848 61.614607 
L 383.789302 61.663713 
L 390.867755 61.379995 
L 397.946209 61.467763 
L 405.024662 61.127857 
L 412.103116 61.399477 
" clip-path="url(#p2a0134ea40)" style="fill: none; stroke-dasharray: 5.55,2.4; stroke-dashoffset: 0; stroke: #55a868; stroke-width: 1.5"/>
   </g>
   <g id="line2d_25">
    <path d="M 73.107072 274.6 
L 79.415803 168.483412 
L 86.494257 146.33903 
L 93.57271 139.449584 
L 100.651164 129.250153 
L 107.729617 123.265986 
L 114.808071 120.92335 
L 121.886524 110.87302 
L 128.964978 104.656777 
L 136.043431 106.078102 
L 143.121884 100.27955 
L 150.200338 98.430445 
L 157.278791 97.883384 
L 164.357245 98.430445 
L 171.435698 98.819326 
L 178.514152 95.561619 
L 185.592605 97.080808 
L 192.671059 93.663023 
L 199.749512 94.451863 
L 206.827966 93.078746 
L 213.906419 91.041999 
L 220.984872 87.336943 
L 228.063326 88.015281 
L 235.141779 86.729713 
L 242.220233 86.115948 
L 249.298686 84.380393 
L 256.37714 83.931542 
L 263.455593 84.835967 
L 270.534047 83.7777 
L 277.6125 85.084131 
L 284.690953 82.9535 
L 291.769407 83.303998 
L 298.84786 81.102588 
L 305.926314 81.369209 
L 313.004767 81.49549 
L 320.083221 80.622333 
L 327.161674 82.215761 
L 334.240128 80.714696 
L 341.318581 80.576256 
L 348.397035 79.683986 
L 355.475488 79.96848 
L 362.553941 80.210136 
L 369.632395 82.151042 
L 376.710848 79.62443 
L 383.789302 80.469015 
L 390.867755 82.005926 
L 397.946209 78.528814 
L 405.024662 79.34312 
L 412.103116 80.240478 
" clip-path="url(#p2a0134ea40)" style="fill: none; stroke-dasharray: 5.55,2.4; stroke-dashoffset: 0; stroke: #c44e52; stroke-width: 1.5"/>
   </g>
   <g id="line2d_26">
    <path d="M 65.258896 52.522141 
L 72.33735 52.536042 
L 79.415803 52.522141 
L 86.494257 55.884021 
L 93.57271 52.857549 
L 100.651164 52.563865 
L 107.729617 52.619587 
L 114.808071 63.122688 
L 121.886524 53.741534 
L 128.964978 52.522141 
L 136.043431 52.522141 
L 143.121884 60.483574 
L 150.200338 53.054925 
L 157.278791 52.633533 
L 164.357245 52.522141 
L 171.435698 52.787366 
L 178.514152 52.522141 
L 185.592605 52.536042 
L 192.671059 52.536042 
L 199.749512 52.508245 
L 206.827966 52.522141 
L 213.906419 52.508245 
L 220.984872 52.466597 
L 228.063326 52.522141 
L 235.141779 52.829456 
L 242.220233 52.536042 
L 249.298686 52.577786 
L 256.37714 52.522141 
L 263.455593 52.717346 
L 270.534047 52.522141 
L 277.6125 52.494356 
L 284.690953 52.80139 
L 291.769407 52.745335 
L 298.84786 52.591713 
L 305.926314 52.383471 
L 313.004767 52.383471 
L 320.083221 52.466597 
L 327.161674 52.383471 
L 334.240128 52.300572 
L 341.318581 52.466597 
L 348.397035 52.508245 
L 355.475488 52.522141 
L 362.553941 52.54995 
L 369.632395 52.286777 
L 376.710848 52.438863 
L 383.789302 52.522141 
L 390.867755 52.452727 
L 397.946209 52.452727 
L 405.024662 52.39731 
L 412.103116 52.425006 
" clip-path="url(#p2a0134ea40)" style="fill: none; stroke-dasharray: 5.55,2.4; stroke-dashoffset: 0; stroke: #8172b3; stroke-width: 1.5"/>
   </g>
   <g id="line2d_27">
    <path d="M 54.85357 64.262313 
L 419.04 64.262313 
" clip-path="url(#p2a0134ea40)" style="fill: none; stroke-dasharray: 9.6,2.4,1.5,2.4; stroke-dashoffset: 0; stroke: #808080; stroke-width: 1.5"/>
   </g>
   <g id="patch_3">
    <path d="M 54.85357 225.443591 
L 54.85357 12.96 
" style="fill: none; stroke: #808080; stroke-width: 1.25; stroke-linejoin: miter; stroke-linecap: square"/>
   </g>
   <g id="patch_4">
    <path d="M 419.04 225.443591 
L 419.04 12.96 
" style="fill: none; stroke: #808080; stroke-width: 1.25; stroke-linejoin: miter; stroke-linecap: square"/>
   </g>
   <g id="patch_5">
    <path d="M 54.85357 225.443591 
L 419.04 225.443591 
" style="fill: none; stroke: #808080; stroke-width: 1.25; stroke-linejoin: miter; stroke-linecap: square"/>
   </g>
   <g id="patch_6">
    <path d="M 54.85357 12.96 
L 419.04 12.96 
" style="fill: none; stroke: #808080; stroke-width: 1.25; stroke-linejoin: miter; stroke-linecap: square"/>
   </g>
   <g id="legend_1">
    <g id="patch_7">
     <path d="M 236.697148 219.443591 
L 410.64 219.443591 
Q 413.04 219.443591 413.04 217.043591 
L 413.04 117.896001 
Q 413.04 115.496001 410.64 115.496001 
L 236.697148 115.496001 
Q 234.297148 115.496001 234.297148 117.896001 
L 234.297148 217.043591 
Q 234.297148 219.443591 236.697148 219.443591 
z
" style="fill: #eaeaf2; opacity: 0.8; stroke: #cccccc; stroke-linejoin: miter"/>
    </g>
    <g id="line2d_28"/>
    <g id="text_12">
     <!-- \textbf{OC} -->
     <g style="fill: #262626" transform="translate(272.697148 128.696001) scale(0.12 -0.12)">
      <defs>
       <path id="CMSSBX10-4f" d="M 4685 2236 
C 4685 3541 4218 4665 2541 4665 
C 768 4665 390 3424 390 2236 
C 390 1021 806 -128 2534 -128 
C 4186 -128 4685 904 4685 2236 
z
M 2541 389 
C 1331 389 1331 1748 1331 2339 
C 1331 2911 1331 4160 2534 4160 
C 3744 4160 3744 2924 3744 2339 
C 3744 1761 3744 389 2541 389 
z
" transform="scale(0.015625)"/>
       <path id="CMSSBX10-43" d="M 4096 925 
C 4096 977 4051 1002 4026 1002 
C 3872 1002 3686 583 2784 583 
C 1658 583 1338 1280 1338 2247 
C 1338 3207 1683 3904 2733 3904 
C 3302 3904 3603 3678 3776 3536 
C 3814 3504 3834 3478 3878 3478 
C 3904 3478 3936 3510 3942 3536 
L 4070 4253 
C 4077 4279 4070 4305 4019 4324 
C 3642 4466 3251 4557 2752 4557 
C 1190 4557 390 3789 390 2253 
C 390 672 1203 -64 2758 -64 
C 3302 -64 3642 14 4109 305 
C 4160 337 4147 383 4147 383 
L 4096 925 
z
" transform="scale(0.015625)"/>
      </defs>
      <use xlink:href="#CMSSBX10-4f" transform="scale(0.996264)"/>
      <use xlink:href="#CMSSBX10-43" transform="translate(79.14808 0) scale(0.996264)"/>
     </g>
    </g>
    <g id="line2d_29">
     <path d="M 239.097148 141.220597 
L 251.097148 141.220597 
L 263.097148 141.220597 
" style="fill: none; stroke: #4c72b0; stroke-width: 1.5; stroke-linecap: round"/>
    </g>
    <g id="text_13">
     <!-- Asterix -->
     <g style="fill: #262626" transform="translate(272.697148 145.420597) scale(0.12 -0.12)">
      <defs>
       <path id="CMSS17-41" d="M 2272 4416 
L 1722 4416 
L 166 0 
L 653 0 
L 1101 1280 
L 2816 1280 
L 3270 0 
L 3827 0 
L 2272 4416 
z
M 2694 1637 
L 1222 1637 
C 1530 2528 1914 3638 1958 3925 
L 1965 3925 
C 2010 3663 2138 3281 2246 2956 
L 2694 1637 
z
" transform="scale(0.015625)"/>
       <path id="CMSS17-78" d="M 1587 1414 
L 2656 2739 
L 2099 2739 
L 1363 1777 
L 602 2739 
L 32 2739 
L 1139 1414 
L 0 0 
L 563 0 
L 1363 1121 
L 2195 0 
L 2758 0 
L 1587 1414 
z
" transform="scale(0.015625)"/>
      </defs>
      <use xlink:href="#CMSS17-41" transform="scale(0.996264)"/>
      <use xlink:href="#CMSS17-73" transform="translate(62.217855 0) scale(0.996264)"/>
      <use xlink:href="#CMSS17-74" transform="translate(98.131397 0) scale(0.996264)"/>
      <use xlink:href="#CMSS17-65" transform="translate(131.962964 0) scale(0.996264)"/>
      <use xlink:href="#CMSS17-72" transform="translate(173.601786 0) scale(0.996264)"/>
      <use xlink:href="#CMSS17-69" transform="translate(205.511558 0) scale(0.996264)"/>
      <use xlink:href="#CMSS17-78" transform="translate(227.692281 0) scale(0.996264)"/>
     </g>
    </g>
    <g id="line2d_30">
     <path d="M 239.097148 157.945192 
L 251.097148 157.945192 
L 263.097148 157.945192 
" style="fill: none; stroke: #dd8452; stroke-width: 1.5; stroke-linecap: round"/>
    </g>
    <g id="text_14">
     <!-- Boxing -->
     <g style="fill: #262626" transform="translate(272.697148 162.145192) scale(0.12 -0.12)">
      <defs>
       <path id="CMSS17-42" d="M 570 4416 
L 570 0 
L 2163 0 
C 3034 0 3667 574 3667 1200 
C 3667 1685 3251 2176 2502 2317 
C 3334 2558 3501 3040 3501 3313 
C 3501 3883 2874 4416 1997 4416 
L 570 4416 
z
M 1088 2496 
L 1088 4059 
L 1824 4059 
C 2483 4059 3002 3724 3002 3306 
C 3002 2926 2592 2496 1766 2496 
L 1088 2496 
z
M 1088 357 
L 1088 2107 
L 1939 2107 
C 2630 2107 3162 1679 3162 1206 
C 3162 772 2694 357 1984 357 
L 1088 357 
z
" transform="scale(0.015625)"/>
       <path id="CMSS17-67" d="M 2848 2808 
C 2483 2808 2170 2738 1914 2617 
C 1702 2777 1485 2808 1338 2808 
C 781 2808 358 2349 358 1814 
C 358 1468 550 1207 563 1195 
C 448 1035 384 863 384 672 
C 384 448 474 289 544 200 
C 211 -3 166 -314 166 -435 
C 166 -898 749 -1280 1498 -1280 
C 2253 -1280 2835 -898 2835 -428 
C 2835 448 1856 448 1587 448 
L 1069 448 
C 973 448 717 448 717 791 
C 717 921 774 1004 781 1010 
C 877 940 1075 832 1338 832 
C 1869 832 2310 1278 2310 1827 
C 2310 2132 2170 2355 2112 2432 
L 2131 2432 
C 2150 2432 2419 2432 2515 2432 
C 2720 2432 2739 2429 2918 2419 
L 2848 2808 
z
M 1338 1182 
C 1120 1182 813 1315 813 1823 
C 813 2375 1165 2464 1331 2464 
C 1549 2464 1856 2331 1856 1823 
C 1856 1271 1504 1182 1338 1182 
z
M 1581 -10 
C 1734 -10 2381 -10 2381 -442 
C 2381 -714 1984 -929 1504 -929 
C 1018 -929 621 -720 621 -435 
C 621 -403 621 -10 1062 -10 
L 1581 -10 
z
" transform="scale(0.015625)"/>
      </defs>
      <use xlink:href="#CMSS17-42" transform="scale(0.996264)"/>
      <use xlink:href="#CMSS17-6f" transform="translate(62.33804 0) scale(0.996264)"/>
      <use xlink:href="#CMSS17-78" transform="translate(106.57921 0) scale(0.996264)"/>
      <use xlink:href="#CMSS17-69" transform="translate(149.579351 0) scale(0.996264)"/>
      <use xlink:href="#CMSS17-6e" transform="translate(171.760075 0) scale(0.996264)"/>
      <use xlink:href="#CMSS17-67" transform="translate(219.965018 0) scale(0.996264)"/>
     </g>
    </g>
    <g id="line2d_31">
     <path d="M 239.097148 174.669788 
L 251.097148 174.669788 
L 263.097148 174.669788 
" style="fill: none; stroke: #55a868; stroke-width: 1.5; stroke-linecap: round"/>
    </g>
    <g id="text_15">
     <!-- Freeway -->
     <g style="fill: #262626" transform="translate(272.697148 178.869788) scale(0.12 -0.12)">
      <defs>
       <path id="CMSS17-77" d="M 4013 2752 
L 3526 2752 
L 3187 1601 
C 3117 1358 2918 685 2893 371 
L 2886 371 
C 2874 564 2765 1024 2586 1633 
L 2259 2752 
L 1818 2752 
L 1498 1658 
C 1338 1101 1216 627 1203 371 
L 1197 371 
C 1171 749 909 1633 870 1773 
L 582 2752 
L 83 2752 
L 915 0 
L 1402 0 
C 1734 1096 1990 1943 2010 2370 
C 2022 2160 2131 1707 2195 1484 
L 2618 0 
L 3181 0 
L 4013 2752 
z
" transform="scale(0.015625)"/>
       <path id="CMSS17-79" d="M 2675 2752 
L 2176 2752 
C 1632 1294 1446 702 1434 383 
L 1427 383 
C 1408 696 1126 1460 902 2007 
L 602 2752 
L 83 2752 
L 1216 13 
C 1146 -178 1043 -465 1011 -529 
C 870 -885 774 -885 672 -885 
C 646 -885 442 -885 211 -809 
L 250 -1229 
C 410 -1261 570 -1280 685 -1280 
C 845 -1280 1165 -1280 1459 -497 
L 2675 2752 
z
" transform="scale(0.015625)"/>
      </defs>
      <use xlink:href="#CMSS17-46" transform="scale(0.996264)"/>
      <use xlink:href="#CMSS17-72" transform="translate(50.687105 0) scale(0.996264)"/>
      <use xlink:href="#CMSS17-65" transform="translate(82.596878 0) scale(0.996264)"/>
      <use xlink:href="#CMSS17-65" transform="translate(124.2357 0) scale(0.996264)"/>
      <use xlink:href="#CMSS17-77" transform="translate(165.874522 0) scale(0.996264)"/>
      <use xlink:href="#CMSS17-61" transform="translate(227.091613 0) scale(0.996264)"/>
      <use xlink:href="#CMSS17-79" transform="translate(269.41108 0) scale(0.996264)"/>
     </g>
    </g>
    <g id="line2d_32">
     <path d="M 239.097148 191.394384 
L 251.097148 191.394384 
L 263.097148 191.394384 
" style="fill: none; stroke: #c44e52; stroke-width: 1.5; stroke-linecap: round"/>
    </g>
    <g id="text_16">
     <!-- Pong -->
     <g style="fill: #262626" transform="translate(272.697148 195.594384) scale(0.12 -0.12)">
      <defs>
       <path id="CMSS17-50" d="M 2106 1856 
C 2874 1856 3501 2453 3501 3158 
C 3501 3850 2899 4453 2067 4453 
L 570 4453 
L 570 0 
L 1107 0 
L 1107 1856 
L 2106 1856 
z
M 1926 4096 
C 2669 4096 2995 3627 2995 3157 
C 2995 2720 2694 2226 1926 2226 
L 1094 2226 
L 1094 4096 
L 1926 4096 
z
" transform="scale(0.015625)"/>
      </defs>
      <use xlink:href="#CMSS17-50" transform="scale(0.996264)"/>
      <use xlink:href="#CMSS17-6f" transform="translate(57.133132 0) scale(0.996264)"/>
      <use xlink:href="#CMSS17-6e" transform="translate(103.976756 0) scale(0.996264)"/>
      <use xlink:href="#CMSS17-67" transform="translate(152.181699 0) scale(0.996264)"/>
     </g>
    </g>
    <g id="line2d_33">
     <path d="M 239.097148 208.11898 
L 251.097148 208.11898 
L 263.097148 208.11898 
" style="fill: none; stroke: #8172b3; stroke-width: 1.5; stroke-linecap: round"/>
    </g>
    <g id="text_17">
     <!-- Tennis -->
     <g style="fill: #262626" transform="translate(272.697148 212.31898) scale(0.12 -0.12)">
      <defs>
       <path id="CMSS17-54" d="M 2317 3968 
L 2848 3968 
C 2925 3968 3002 3968 3078 3968 
L 3878 3968 
L 3878 4376 
L 218 4376 
L 218 3968 
L 1018 3968 
C 1094 3968 1171 3968 1248 3968 
L 1779 3968 
L 1779 -32 
L 2317 -32 
L 2317 3968 
z
" transform="scale(0.015625)"/>
      </defs>
      <use xlink:href="#CMSS17-54" transform="scale(0.996264)"/>
      <use xlink:href="#CMSS17-65" transform="translate(56.012199 0) scale(0.996264)"/>
      <use xlink:href="#CMSS17-6e" transform="translate(97.651021 0) scale(0.996264)"/>
      <use xlink:href="#CMSS17-6e" transform="translate(145.855964 0) scale(0.996264)"/>
      <use xlink:href="#CMSS17-69" transform="translate(194.060907 0) scale(0.996264)"/>
      <use xlink:href="#CMSS17-73" transform="translate(216.24163 0) scale(0.996264)"/>
     </g>
    </g>
    <g id="line2d_34"/>
    <g id="text_18">
     <!-- \textbf{Deep} -->
     <g style="fill: #262626" transform="translate(369.268574 128.696001) scale(0.12 -0.12)">
      <defs>
       <path id="CMSSBX10-44" d="M 890 4480 
C 659 4480 582 4409 582 4171 
L 582 309 
C 582 78 653 0 890 0 
L 2579 0 
C 4141 0 4685 942 4685 2208 
C 4685 2718 4602 3344 4243 3802 
C 3763 4403 2995 4480 2579 4480 
L 890 4480 
z
M 1504 556 
L 1504 3924 
L 2323 3924 
C 3706 3924 3763 2930 3763 2208 
C 3763 1479 3693 556 2330 556 
L 1504 556 
z
" transform="scale(0.015625)"/>
       <path id="CMSSBX10-65" d="M 2758 1385 
C 2906 1385 3066 1385 3066 1678 
C 3066 2514 2682 3072 1728 3072 
C 704 3072 198 2491 198 1510 
C 198 452 806 -64 1811 -64 
C 2054 -64 2419 -32 2842 182 
C 2982 253 3027 272 3027 350 
C 3027 395 3008 582 3002 633 
C 2976 833 2970 839 2912 839 
C 2886 839 2874 839 2803 775 
C 2426 447 2042 402 1837 402 
C 1114 402 1037 974 1018 1385 
L 2758 1385 
z
M 1024 1728 
C 1043 2122 1171 2606 1728 2606 
C 2240 2606 2336 2231 2355 1728 
L 1024 1728 
z
" transform="scale(0.015625)"/>
       <path id="CMSSBX10-70" d="M 1261 242 
C 1549 -82 1901 -82 1990 -82 
C 3347 -82 3347 1154 3347 1476 
C 3347 1791 3347 3008 2189 3008 
C 1811 3008 1472 2853 1242 2633 
C 1242 2872 1152 2937 934 2937 
L 698 2937 
C 467 2937 390 2866 390 2627 
L 390 -969 
C 390 -1202 461 -1280 698 -1280 
L 954 -1280 
C 1197 -1280 1261 -1195 1261 -966 
L 1261 242 
z
M 1261 2292 
C 1331 2356 1542 2504 1818 2504 
C 2470 2504 2477 1746 2477 1463 
C 2477 1206 2477 384 1754 384 
C 1606 384 1491 435 1414 492 
C 1261 602 1261 634 1261 750 
L 1261 2292 
z
" transform="scale(0.015625)"/>
      </defs>
      <use xlink:href="#CMSSBX10-44" transform="scale(0.996264)"/>
      <use xlink:href="#CMSSBX10-65" transform="translate(79.14808 0) scale(0.996264)"/>
      <use xlink:href="#CMSSBX10-65" transform="translate(130.068533 0) scale(0.996264)"/>
      <use xlink:href="#CMSSBX10-70" transform="translate(180.988985 0) scale(0.996264)"/>
     </g>
    </g>
    <g id="line2d_35">
     <path d="M 335.668574 141.220612 
L 347.668574 141.220612 
L 359.668574 141.220612 
" style="fill: none; stroke-dasharray: 5.55,2.4; stroke-dashoffset: 0; stroke: #4c72b0; stroke-width: 1.5"/>
    </g>
    <g id="text_19">
     <!-- Asterix -->
     <g style="fill: #262626" transform="translate(369.268574 145.420612) scale(0.12 -0.12)">
      <use xlink:href="#CMSS17-41" transform="scale(0.996264)"/>
      <use xlink:href="#CMSS17-73" transform="translate(62.217855 0) scale(0.996264)"/>
      <use xlink:href="#CMSS17-74" transform="translate(98.131397 0) scale(0.996264)"/>
      <use xlink:href="#CMSS17-65" transform="translate(131.962964 0) scale(0.996264)"/>
      <use xlink:href="#CMSS17-72" transform="translate(173.601786 0) scale(0.996264)"/>
      <use xlink:href="#CMSS17-69" transform="translate(205.511558 0) scale(0.996264)"/>
      <use xlink:href="#CMSS17-78" transform="translate(227.692281 0) scale(0.996264)"/>
     </g>
    </g>
    <g id="line2d_36">
     <path d="M 335.668574 157.945208 
L 347.668574 157.945208 
L 359.668574 157.945208 
" style="fill: none; stroke-dasharray: 5.55,2.4; stroke-dashoffset: 0; stroke: #dd8452; stroke-width: 1.5"/>
    </g>
    <g id="text_20">
     <!-- Boxing -->
     <g style="fill: #262626" transform="translate(369.268574 162.145208) scale(0.12 -0.12)">
      <use xlink:href="#CMSS17-42" transform="scale(0.996264)"/>
      <use xlink:href="#CMSS17-6f" transform="translate(62.33804 0) scale(0.996264)"/>
      <use xlink:href="#CMSS17-78" transform="translate(106.57921 0) scale(0.996264)"/>
      <use xlink:href="#CMSS17-69" transform="translate(149.579351 0) scale(0.996264)"/>
      <use xlink:href="#CMSS17-6e" transform="translate(171.760075 0) scale(0.996264)"/>
      <use xlink:href="#CMSS17-67" transform="translate(219.965018 0) scale(0.996264)"/>
     </g>
    </g>
    <g id="line2d_37">
     <path d="M 335.668574 174.669803 
L 347.668574 174.669803 
L 359.668574 174.669803 
" style="fill: none; stroke-dasharray: 5.55,2.4; stroke-dashoffset: 0; stroke: #55a868; stroke-width: 1.5"/>
    </g>
    <g id="text_21">
     <!-- Freeway -->
     <g style="fill: #262626" transform="translate(369.268574 178.869803) scale(0.12 -0.12)">
      <use xlink:href="#CMSS17-46" transform="scale(0.996264)"/>
      <use xlink:href="#CMSS17-72" transform="translate(50.687105 0) scale(0.996264)"/>
      <use xlink:href="#CMSS17-65" transform="translate(82.596878 0) scale(0.996264)"/>
      <use xlink:href="#CMSS17-65" transform="translate(124.2357 0) scale(0.996264)"/>
      <use xlink:href="#CMSS17-77" transform="translate(165.874522 0) scale(0.996264)"/>
      <use xlink:href="#CMSS17-61" transform="translate(227.091613 0) scale(0.996264)"/>
      <use xlink:href="#CMSS17-79" transform="translate(269.41108 0) scale(0.996264)"/>
     </g>
    </g>
    <g id="line2d_38">
     <path d="M 335.668574 191.394399 
L 347.668574 191.394399 
L 359.668574 191.394399 
" style="fill: none; stroke-dasharray: 5.55,2.4; stroke-dashoffset: 0; stroke: #c44e52; stroke-width: 1.5"/>
    </g>
    <g id="text_22">
     <!-- Pong -->
     <g style="fill: #262626" transform="translate(369.268574 195.594399) scale(0.12 -0.12)">
      <use xlink:href="#CMSS17-50" transform="scale(0.996264)"/>
      <use xlink:href="#CMSS17-6f" transform="translate(57.133132 0) scale(0.996264)"/>
      <use xlink:href="#CMSS17-6e" transform="translate(103.976756 0) scale(0.996264)"/>
      <use xlink:href="#CMSS17-67" transform="translate(152.181699 0) scale(0.996264)"/>
     </g>
    </g>
    <g id="line2d_39">
     <path d="M 335.668574 208.118995 
L 347.668574 208.118995 
L 359.668574 208.118995 
" style="fill: none; stroke-dasharray: 5.55,2.4; stroke-dashoffset: 0; stroke: #8172b3; stroke-width: 1.5"/>
    </g>
    <g id="text_23">
     <!-- Tennis -->
     <g style="fill: #262626" transform="translate(369.268574 212.318995) scale(0.12 -0.12)">
      <use xlink:href="#CMSS17-54" transform="scale(0.996264)"/>
      <use xlink:href="#CMSS17-65" transform="translate(56.012199 0) scale(0.996264)"/>
      <use xlink:href="#CMSS17-6e" transform="translate(97.651021 0) scale(0.996264)"/>
      <use xlink:href="#CMSS17-6e" transform="translate(145.855964 0) scale(0.996264)"/>
      <use xlink:href="#CMSS17-69" transform="translate(194.060907 0) scale(0.996264)"/>
      <use xlink:href="#CMSS17-73" transform="translate(216.24163 0) scale(0.996264)"/>
     </g>
    </g>
   </g>
  </g>
 </g>
 <defs>
  <clipPath id="p2a0134ea40">
   <rect x="54.85357" y="12.96" width="364.18643" height="212.483591"/>
  </clipPath>
 </defs>
</svg>
