<?xml version="1.0" encoding="UTF-8" standalone="no"?>
<svg
   width="406.70499pt"
   height="248.30499pt"
   viewBox="0 0 406.70499 248.30499"
   version="1.1"
   id="svg585"
   sodipodi:docname="oc_vs_deep_rl.svg"
   inkscape:version="1.1.2 (0a00cf5339, 2022-02-04)"
   xmlns:inkscape="http://www.inkscape.org/namespaces/inkscape"
   xmlns:sodipodi="http://sodipodi.sourceforge.net/DTD/sodipodi-0.dtd"
   xmlns:xlink="http://www.w3.org/1999/xlink"
   xmlns="http://www.w3.org/2000/svg"
   xmlns:svg="http://www.w3.org/2000/svg"
   xmlns:rdf="http://www.w3.org/1999/02/22-rdf-syntax-ns#"
   xmlns:cc="http://creativecommons.org/ns#"
   xmlns:dc="http://purl.org/dc/elements/1.1/">
  <sodipodi:namedview
     id="namedview587"
     pagecolor="#ffffff"
     bordercolor="#666666"
     borderopacity="1.0"
     inkscape:pageshadow="2"
     inkscape:pageopacity="0.0"
     inkscape:pagecheckerboard="0"
     inkscape:document-units="pt"
     showgrid="false"
     fit-margin-top="0"
     fit-margin-left="0"
     fit-margin-right="0"
     fit-margin-bottom="0"
     inkscape:zoom="2.1408991"
     inkscape:cx="267.87811"
     inkscape:cy="251.29629"
     inkscape:window-width="1602"
     inkscape:window-height="1001"
     inkscape:window-x="9"
     inkscape:window-y="70"
     inkscape:window-maximized="1"
     inkscape:current-layer="figure_1" />
  <metadata
     id="metadata2">
    <rdf:RDF>
      <cc:Work>
        <dc:type
           rdf:resource="http://purl.org/dc/dcmitype/StillImage" />
        <dc:date>2023-08-24T22:28:43.386297</dc:date>
        <dc:format>image/svg+xml</dc:format>
        <dc:creator>
          <cc:Agent>
            <dc:title>Matplotlib v3.7.2, https://matplotlib.org/</dc:title>
          </cc:Agent>
        </dc:creator>
      </cc:Work>
    </rdf:RDF>
  </metadata>
  <defs
     id="defs6">
    <style
       type="text/css"
       id="style4">*{stroke-linejoin: round; stroke-linecap: butt}</style>
  </defs>
  <g
     id="figure_1"
     transform="translate(-12.96,-12.335)">
    <g
       id="axes_1">
      <g
         id="patch_2">
        <path
           d="M 54.85357,225.44359 H 419.04 V 12.96 H 54.85357 Z"
           style="fill:#ffffff"
           id="path11" />
      </g>
      <g
         id="matplotlib.axis_1">
        <g
           id="xtick_1">
          <g
             id="line2d_1">
            <path
               d="M 65.258896,225.44359 V 12.96"
               clip-path="url(#pa787c37ad9)"
               style="fill:none;stroke:#e0e0e0;stroke-linecap:round"
               id="path14" />
          </g>
          <g
             id="text_1">
            <!-- 0 -->
            <g
               style="fill:#262626"
               transform="matrix(0.11,0,0,-0.11,62.519163,242.55394)"
               id="g22">
              <defs
                 id="defs18">
                <path
                   id="CMSS17-30"
                   d="m 2758,2044 c 0,361 -6,1033 -268,1552 -263,500 -685,633 -986,633 -435,0 -806,-254 -998,-659 C 301,3146 243,2709 243,2044 243,1589 262,1031 493,543 755,5 1197,-128 1498,-128 c 396,0 780,209 998,646 224,456 262,956 262,1526 z M 1498,261 c -487,0 -634,550 -679,734 -77,315 -89,619 -89,1119 0,392 0,834 121,1183 147,404 403,543 647,543 473,0 627,-468 678,-632 96,-335 96,-727 96,-1094 0,-588 0,-1853 -774,-1853 z"
                   transform="scale(0.015625)" />
              </defs>
              <use
                 xlink:href="#CMSS17-30"
                 transform="scale(0.996264)"
                 id="use20"
                 x="0"
                 y="0"
                 width="100%"
                 height="100%" />
            </g>
          </g>
        </g>
        <g
           id="xtick_2">
          <g
             id="line2d_2">
            <path
               d="M 134.62774,225.44359 V 12.96"
               clip-path="url(#pa787c37ad9)"
               style="fill:none;stroke:#e0e0e0;stroke-linecap:round"
               id="path26" />
          </g>
          <g
             id="text_2">
            <!-- 2 -->
            <g
               style="fill:#262626"
               transform="matrix(0.11,0,0,-0.11,131.88801,242.55394)"
               id="g34">
              <defs
                 id="defs30">
                <path
                   id="CMSS17-32"
                   d="m 1651,1357 c 179,184 448,407 634,630 179,217 416,524 416,970 0,700 -474,1331 -1280,1331 -634,0 -999,-395 -1171,-1014 l 249,-345 c 141,581 339,951 839,951 550,0 857,-447 857,-938 0,-587 -448,-1041 -787,-1379 C 1030,1187 659,804 301,408 V 0 H 2701 V 433 H 1613 c -77,0 -154,0 -231,0 H 742 v 6 z"
                   transform="scale(0.015625)" />
              </defs>
              <use
                 xlink:href="#CMSS17-32"
                 transform="scale(0.996264)"
                 id="use32"
                 x="0"
                 y="0"
                 width="100%"
                 height="100%" />
            </g>
          </g>
        </g>
        <g
           id="xtick_3">
          <g
             id="line2d_3">
            <path
               d="M 203.99658,225.44359 V 12.96"
               clip-path="url(#pa787c37ad9)"
               style="fill:none;stroke:#e0e0e0;stroke-linecap:round"
               id="path38" />
          </g>
          <g
             id="text_3">
            <!-- 4 -->
            <g
               style="fill:#262626"
               transform="matrix(0.11,0,0,-0.11,201.25685,242.55394)"
               id="g46">
              <defs
                 id="defs42">
                <path
                   id="CMSS17-34"
                   d="m 2253,1088 h 582 v 389 H 2253 V 4192 H 1690 L 166,1477 V 1088 H 1747 V 0 h 506 z M 659,1477 c 371,650 1107,1962 1107,2408 V 1477 Z"
                   transform="scale(0.015625)" />
              </defs>
              <use
                 xlink:href="#CMSS17-34"
                 transform="scale(0.996264)"
                 id="use44"
                 x="0"
                 y="0"
                 width="100%"
                 height="100%" />
            </g>
          </g>
        </g>
        <g
           id="xtick_4">
          <g
             id="line2d_4">
            <path
               d="M 273.36543,225.44359 V 12.96"
               clip-path="url(#pa787c37ad9)"
               style="fill:none;stroke:#e0e0e0;stroke-linecap:round"
               id="path50" />
          </g>
          <g
             id="text_4">
            <!-- 6 -->
            <g
               style="fill:#262626"
               transform="matrix(0.11,0,0,-0.11,270.62569,242.55394)"
               id="g58">
              <defs
                 id="defs54">
                <path
                   id="CMSS17-36"
                   d="m 2496,4101 c -269,109 -461,128 -640,128 -832,0 -1606,-861 -1606,-2223 0,-1741 736,-2134 1260,-2134 288,0 576,89 852,408 281,337 390,618 390,1109 0,790 -390,1491 -973,1491 -422,0 -787,-223 -1011,-504 64,882 486,1464 1094,1464 167,0 384,-24 634,-130 z M 774,1369 c 0,51 0,83 7,179 0,497 288,943 755,943 301,0 454,-159 570,-356 134,-249 140,-485 140,-747 0,-248 0,-497 -147,-751 C 1978,439 1818,267 1510,267 902,267 800,1114 774,1369 Z"
                   transform="scale(0.015625)" />
              </defs>
              <use
                 xlink:href="#CMSS17-36"
                 transform="scale(0.996264)"
                 id="use56"
                 x="0"
                 y="0"
                 width="100%"
                 height="100%" />
            </g>
          </g>
        </g>
        <g
           id="xtick_5">
          <g
             id="line2d_5">
            <path
               d="M 342.73427,225.44359 V 12.96"
               clip-path="url(#pa787c37ad9)"
               style="fill:none;stroke:#e0e0e0;stroke-linecap:round"
               id="path62" />
          </g>
          <g
             id="text_5">
            <!-- 8 -->
            <g
               style="fill:#262626"
               transform="matrix(0.11,0,0,-0.11,339.99454,242.55394)"
               id="g70">
              <defs
                 id="defs66">
                <path
                   id="CMSS17-38"
                   d="m 1933,2222 c 486,158 736,538 736,912 0,588 -512,1095 -1165,1095 C 826,4229 333,3708 333,3144 333,2780 576,2403 1069,2241 442,1997 250,1512 250,1149 250,446 819,-128 1498,-128 c 704,0 1254,583 1254,1266 0,419 -250,862 -819,1084 z m -429,210 c -429,0 -717,280 -717,704 0,430 288,704 717,704 397,0 710,-249 710,-704 0,-449 -307,-704 -710,-704 z m 0,-2165 c -365,0 -755,250 -755,889 0,657 435,887 749,887 345,0 755,-243 755,-887 0,-665 -423,-889 -749,-889 z"
                   transform="scale(0.015625)" />
              </defs>
              <use
                 xlink:href="#CMSS17-38"
                 transform="scale(0.996264)"
                 id="use68"
                 x="0"
                 y="0"
                 width="100%"
                 height="100%" />
            </g>
          </g>
        </g>
        <g
           id="xtick_6">
          <g
             id="line2d_6">
            <path
               d="M 412.10312,225.44359 V 12.96"
               clip-path="url(#pa787c37ad9)"
               style="fill:none;stroke:#e0e0e0;stroke-linecap:round"
               id="path74" />
          </g>
          <g
             id="text_6">
            <!-- 10 -->
            <g
               style="fill:#262626"
               transform="matrix(0.11,0,0,-0.11,406.62365,242.55394)"
               id="g84">
              <defs
                 id="defs78">
                <path
                   id="CMSS17-31"
                   d="M 1818,4288 H 1696 C 1350,3940 947,3890 538,3890 v -370 c 185,0 486,0 787,147 V 369 H 570 V 0 h 2003 v 369 h -755 z"
                   transform="scale(0.015625)" />
              </defs>
              <use
                 xlink:href="#CMSS17-31"
                 transform="scale(0.996264)"
                 id="use80"
                 x="0"
                 y="0"
                 width="100%"
                 height="100%" />
              <use
                 xlink:href="#CMSS17-30"
                 transform="matrix(0.996264,0,0,0.996264,46.843624,0)"
                 id="use82"
                 x="0"
                 y="0"
                 width="100%"
                 height="100%" />
            </g>
          </g>
        </g>
        <g
           id="text_7">
          <!-- Frames (M) -->
          <g
             style="fill:#262626"
             transform="matrix(0.12,0,0,-0.12,207.93923,257.65121)"
             id="g117">
            <defs
               id="defs97">
              <path
                 id="CMSS17-46"
                 d="m 2918,1984 v 389 H 1101 v 1595 h 781 c 76,0 153,0 230,0 h 1056 v 407 H 563 V -32 h 538 v 2016 z"
                 transform="scale(0.015625)" />
              <path
                 id="CMSS17-72"
                 d="m 954,1363 c 0,602 441,1005 1004,1005 v 421 c -409,0 -793,-204 -1024,-536 v 505 H 480 V 0 h 474 z"
                 transform="scale(0.015625)" />
              <path
                 id="CMSS17-61"
                 d="m 2406,1791 c 0,601 -428,1017 -1004,1017 -282,0 -589,-51 -941,-255 l 38,-418 c 160,113 435,297 896,297 327,0 525,-252 525,-650 V 1536 C 896,1536 256,1238 256,726 256,461 416,-64 947,-64 c 96,0 615,0 986,281 V -19 h 473 z M 1920,816 c 0,-115 0,-268 -192,-382 -166,-109 -378,-109 -467,-109 -320,0 -538,186 -538,419 0,467 999,467 1197,467 z"
                 transform="scale(0.015625)" />
              <path
                 id="CMSS17-6d"
                 d="m 4288,1877 c 0,431 -109,939 -826,939 -480,0 -768,-300 -896,-485 -115,339 -384,485 -768,485 -435,0 -710,-248 -857,-427 v 369 H 474 V 0 h 486 v 1559 c 0,380 141,869 595,869 583,0 583,-412 583,-599 V 0 h 486 v 1559 c 0,380 141,869 595,869 583,0 583,-412 583,-599 V 0 h 486 z"
                 transform="scale(0.015625)" />
              <path
                 id="CMSS17-65"
                 d="m 2502,1377 c 0,213 -12,626 -217,968 -224,368 -589,471 -864,471 C 755,2816 192,2188 192,1375 192,582 774,-64 1510,-64 c 288,0 640,83 960,312 0,26 -12,166 -19,172 0,13 -19,210 -19,236 C 2125,407 1773,325 1517,325 1107,325 666,667 646,1377 Z M 698,1728 c 83,356 364,693 723,693 96,0 544,0 659,-693 z"
                 transform="scale(0.015625)" />
              <path
                 id="CMSS17-73"
                 d="m 2061,2627 c -378,180 -672,180 -864,180 -455,0 -999,-159 -999,-804 0,-644 704,-785 896,-824 295,-57 621,-121 621,-439 0,-403 -461,-403 -544,-403 -256,0 -608,70 -928,301 L 166,210 C 531,0 883,-64 1178,-64 c 787,0 985,480 985,845 0,313 -179,524 -301,620 -211,167 -288,186 -812,295 -90,13 -404,83 -404,370 0,366 404,366 493,366 416,0 672,-129 845,-224 z"
                 transform="scale(0.015625)" />
              <path
                 id="CMSS17-28"
                 d="M 1613,4768 C 1267,4417 474,3601 474,1588 c 0,-2021 793,-2831 1139,-3188 h 390 C 1216,-784 960,357 960,1581 c 0,1217 243,2365 1043,3187 z"
                 transform="scale(0.015625)" />
              <path
                 id="CMSS17-4d"
                 d="M 3194,2371 2886,1473 C 2835,1307 2662,791 2624,587 h -6 c -20,128 -58,262 -160,587 -58,191 -122,388 -186,567 L 1325,4416 H 576 V 0 h 499 v 3900 h 7 c 0,-6 57,-287 448,-1401 L 2374,96 h 474 l 762,2135 c 51,147 211,612 281,835 64,191 224,662 263,847 h 6 V 0 h 506 v 4416 h -743 z"
                 transform="scale(0.015625)" />
              <path
                 id="CMSS17-29"
                 d="m 723,-1600 c 346,351 1139,1167 1139,3181 0,2020 -793,2830 -1139,3187 H 333 C 1120,3952 1376,2811 1376,1588 1376,370 1133,-778 333,-1600 Z"
                 transform="scale(0.015625)" />
            </defs>
            <use
               xlink:href="#CMSS17-46"
               transform="scale(0.996264)"
               id="use99"
               x="0"
               y="0"
               width="100%"
               height="100%" />
            <use
               xlink:href="#CMSS17-72"
               transform="matrix(0.996264,0,0,0.996264,50.687105,0)"
               id="use101"
               x="0"
               y="0"
               width="100%"
               height="100%" />
            <use
               xlink:href="#CMSS17-61"
               transform="matrix(0.996264,0,0,0.996264,82.596878,0)"
               id="use103"
               x="0"
               y="0"
               width="100%"
               height="100%" />
            <use
               xlink:href="#CMSS17-6d"
               transform="matrix(0.996264,0,0,0.996264,127.5188,0)"
               id="use105"
               x="0"
               y="0"
               width="100%"
               height="100%" />
            <use
               xlink:href="#CMSS17-65"
               transform="matrix(0.996264,0,0,0.996264,201.74805,0)"
               id="use107"
               x="0"
               y="0"
               width="100%"
               height="100%" />
            <use
               xlink:href="#CMSS17-73"
               transform="matrix(0.996264,0,0,0.996264,243.38687,0)"
               id="use109"
               x="0"
               y="0"
               width="100%"
               height="100%" />
            <use
               xlink:href="#CMSS17-28"
               transform="matrix(0.996264,0,0,0.996264,310.52953,0)"
               id="use111"
               x="0"
               y="0"
               width="100%"
               height="100%" />
            <use
               xlink:href="#CMSS17-4d"
               transform="matrix(0.996264,0,0,0.996264,346.96344,0)"
               id="use113"
               x="0"
               y="0"
               width="100%"
               height="100%" />
            <use
               xlink:href="#CMSS17-29"
               transform="matrix(0.996264,0,0,0.996264,428.63947,0)"
               id="use115"
               x="0"
               y="0"
               width="100%"
               height="100%" />
          </g>
        </g>
      </g>
      <g
         id="matplotlib.axis_2">
        <g
           id="ytick_1">
          <g
             id="line2d_7">
            <path
               d="M 54.85357,204.35721 H 419.04"
               clip-path="url(#pa787c37ad9)"
               style="fill:none;stroke:#e0e0e0;stroke-linecap:round"
               id="path121" />
          </g>
          <g
             id="text_8">
            <!-- 0 -->
            <g
               style="fill:#262626"
               transform="matrix(0.11,0,0,-0.11,39.874103,208.16238)"
               id="g126">
              <use
                 xlink:href="#CMSS17-30"
                 transform="scale(0.996264)"
                 id="use124"
                 x="0"
                 y="0"
                 width="100%"
                 height="100%" />
            </g>
          </g>
        </g>
        <g
           id="ytick_2">
          <g
             id="line2d_8">
            <path
               d="M 54.85357,134.30976 H 419.04"
               clip-path="url(#pa787c37ad9)"
               style="fill:none;stroke:#e0e0e0;stroke-linecap:round"
               id="path130" />
          </g>
          <g
             id="text_9">
            <!-- 10 -->
            <g
               style="fill:#262626"
               transform="matrix(0.11,0,0,-0.11,34.394635,138.11493)"
               id="g137">
              <use
                 xlink:href="#CMSS17-31"
                 transform="scale(0.996264)"
                 id="use133"
                 x="0"
                 y="0"
                 width="100%"
                 height="100%" />
              <use
                 xlink:href="#CMSS17-30"
                 transform="matrix(0.996264,0,0,0.996264,46.843624,0)"
                 id="use135"
                 x="0"
                 y="0"
                 width="100%"
                 height="100%" />
            </g>
          </g>
        </g>
        <g
           id="ytick_3">
          <g
             id="line2d_9">
            <path
               d="M 54.85357,64.262313 H 419.04"
               clip-path="url(#pa787c37ad9)"
               style="fill:none;stroke:#e0e0e0;stroke-linecap:round"
               id="path141" />
          </g>
          <g
             id="text_10">
            <!-- 100 -->
            <g
               style="fill:#262626"
               transform="matrix(0.11,0,0,-0.11,28.915168,68.067487)"
               id="g150">
              <use
                 xlink:href="#CMSS17-31"
                 transform="scale(0.996264)"
                 id="use144"
                 x="0"
                 y="0"
                 width="100%"
                 height="100%" />
              <use
                 xlink:href="#CMSS17-30"
                 transform="matrix(0.996264,0,0,0.996264,46.843624,0)"
                 id="use146"
                 x="0"
                 y="0"
                 width="100%"
                 height="100%" />
              <use
                 xlink:href="#CMSS17-30"
                 transform="matrix(0.996264,0,0,0.996264,93.687247,0)"
                 id="use148"
                 x="0"
                 y="0"
                 width="100%"
                 height="100%" />
            </g>
          </g>
        </g>
        <g
           id="ytick_4" />
        <g
           id="ytick_5" />
        <g
           id="ytick_6" />
        <g
           id="ytick_7" />
        <g
           id="ytick_8" />
        <g
           id="ytick_9" />
        <g
           id="ytick_10" />
        <g
           id="ytick_11" />
        <g
           id="ytick_12" />
        <g
           id="ytick_13" />
        <g
           id="ytick_14" />
        <g
           id="ytick_15" />
        <g
           id="ytick_16" />
        <g
           id="ytick_17" />
        <g
           id="ytick_18" />
        <g
           id="ytick_19" />
        <g
           id="ytick_20" />
        <g
           id="ytick_21" />
        <g
           id="ytick_22" />
        <g
           id="ytick_23" />
        <g
           id="ytick_24" />
        <g
           id="ytick_25" />
        <g
           id="ytick_26" />
        <g
           id="ytick_27" />
        <g
           id="ytick_28" />
        <g
           id="text_11">
          <!-- Human Normalized Return (\%) -->
          <g
             style="fill:#262626"
             transform="matrix(0,-0.12,-0.12,0,21.926376,195.68144)"
             id="g241">
            <defs
               id="defs191">
              <path
                 id="CMSS17-48"
                 d="M 3674,4416 H 3136 V 2501 H 1101 V 4416 H 563 V 0 h 538 V 2112 H 3136 V 0 h 538 z"
                 transform="scale(0.015625)" />
              <path
                 id="CMSS17-75"
                 d="M 2618,2739 H 2131 V 972 C 2131,498 1786,306 1421,306 998,306 960,447 960,709 V 2739 H 474 V 678 c 0,-499 172,-742 614,-742 218,0 710,51 1056,370 V 0 h 474 z"
                 transform="scale(0.015625)" />
              <path
                 id="CMSS17-6e"
                 d="m 2618,1877 c 0,406 -96,939 -820,939 -409,0 -678,-210 -857,-427 v 369 H 474 V 0 h 486 v 1559 c 0,405 154,869 589,869 563,0 582,-380 582,-599 V 0 h 487 z"
                 transform="scale(0.015625)" />
              <path
                 id="CMSS17-4e"
                 d="m 1466,4180 -116,236 H 563 V 0 h 499 v 3926 l 7,6 c 45,-115 70,-172 333,-738 L 2771,236 2886,0 h 788 V 4416 H 3174 V 490 l -6,-7 c -45,115 -70,172 -333,738 z"
                 transform="scale(0.015625)" />
              <path
                 id="CMSS17-6f"
                 d="m 2829,1356 c 0,820 -608,1460 -1325,1460 C 768,2816 173,2157 173,1356 173,544 787,-64 1498,-64 c 729,0 1331,627 1331,1420 z M 1504,337 c -454,0 -845,372 -845,1071 0,743 455,1019 839,1019 416,0 844,-301 844,-1019 0,-725 -416,-1071 -838,-1071 z"
                 transform="scale(0.015625)" />
              <path
                 id="CMSS17-6c"
                 d="M 947,4416 H 474 V 0 h 473 z"
                 transform="scale(0.015625)" />
              <path
                 id="CMSS17-69"
                 d="M 979,4183 H 442 V 3648 H 979 Z M 947,2739 H 474 V 0 h 473 z"
                 transform="scale(0.015625)" />
              <path
                 id="CMSS17-7a"
                 d="m 2400,2502 v 248 H 250 v -382 h 819 c 77,0 153,0 230,0 h 448 L 166,261 V 0 h 2253 v 395 h -870 c -77,0 -154,0 -231,0 H 826 Z"
                 transform="scale(0.015625)" />
              <path
                 id="CMSS17-64"
                 d="M 2611,4416 H 2138 V 2438 c -199,165 -525,318 -884,318 C 672,2756 211,2131 211,1347 211,562 666,-64 1235,-64 c 442,0 736,236 890,370 V -13 h 486 z M 2125,836 c 0,-89 0,-183 -199,-354 -128,-107 -281,-157 -428,-157 -346,0 -800,251 -800,1015 0,794 512,1028 864,1028 236,0 428,-114 563,-303 z"
                 transform="scale(0.015625)" />
              <path
                 id="CMSS17-52"
                 d="m 2522,2109 12,6 c 999,344 1005,1032 1005,1153 0,605 -614,1185 -1536,1185 H 570 V 32 h 524 v 2016 h 941 L 3168,32 h 538 z m -1428,328 v 1659 h 839 c 813,0 1101,-459 1101,-829 0,-345 -256,-830 -1101,-830 z"
                 transform="scale(0.015625)" />
              <path
                 id="CMSS17-74"
                 d="m 1069,2368 h 832 v 369 h -832 v 783 H 614 V 2737 H 109 V 2368 H 602 V 749 c 0,-365 83,-813 505,-813 320,0 615,89 896,236 L 1901,548 C 1747,414 1562,337 1363,337 c -281,0 -294,359 -294,519 z"
                 transform="scale(0.015625)" />
              <path
                 id="CMSS17-25"
                 d="m 3923,4583 c 39,64 39,96 39,102 0,70 -58,115 -109,115 -71,0 -103,-51 -135,-115 L 1101,-104 c -13,-25 -39,-63 -39,-102 0,-70 58,-114 116,-114 57,0 70,25 121,114 z M 4678,959 c 0,739 -396,1281 -832,1281 -428,0 -838,-529 -838,-1281 0,-751 410,-1279 838,-1279 442,0 832,541 832,1279 z M 3846,68 c -134,0 -352,121 -352,891 0,765 218,892 352,892 237,0 365,-465 365,-892 C 4211,533 4083,68 3846,68 Z M 2003,3519 c 0,739 -397,1281 -832,1281 -429,0 -838,-529 -838,-1281 0,-751 409,-1279 838,-1279 442,0 832,541 832,1279 z m -832,-891 c -134,0 -352,121 -352,891 0,765 218,892 352,892 237,0 365,-465 365,-892 0,-426 -128,-891 -365,-891 z"
                 transform="scale(0.015625)" />
            </defs>
            <use
               xlink:href="#CMSS17-48"
               transform="scale(0.996264)"
               id="use193"
               x="0"
               y="0"
               width="100%"
               height="100%" />
            <use
               xlink:href="#CMSS17-75"
               transform="matrix(0.996264,0,0,0.996264,66.061519,0)"
               id="use195"
               x="0"
               y="0"
               width="100%"
               height="100%" />
            <use
               xlink:href="#CMSS17-6d"
               transform="matrix(0.996264,0,0,0.996264,114.26646,0)"
               id="use197"
               x="0"
               y="0"
               width="100%"
               height="100%" />
            <use
               xlink:href="#CMSS17-61"
               transform="matrix(0.996264,0,0,0.996264,188.49572,0)"
               id="use199"
               x="0"
               y="0"
               width="100%"
               height="100%" />
            <use
               xlink:href="#CMSS17-6e"
               transform="matrix(0.996264,0,0,0.996264,233.41764,0)"
               id="use201"
               x="0"
               y="0"
               width="100%"
               height="100%" />
            <use
               xlink:href="#CMSS17-4e"
               transform="matrix(0.996264,0,0,0.996264,312.85169,0)"
               id="use203"
               x="0"
               y="0"
               width="100%"
               height="100%" />
            <use
               xlink:href="#CMSS17-6f"
               transform="matrix(0.996264,0,0,0.996264,378.91321,0)"
               id="use205"
               x="0"
               y="0"
               width="100%"
               height="100%" />
            <use
               xlink:href="#CMSS17-72"
               transform="matrix(0.996264,0,0,0.996264,423.15438,0)"
               id="use207"
               x="0"
               y="0"
               width="100%"
               height="100%" />
            <use
               xlink:href="#CMSS17-6d"
               transform="matrix(0.996264,0,0,0.996264,455.06416,0)"
               id="use209"
               x="0"
               y="0"
               width="100%"
               height="100%" />
            <use
               xlink:href="#CMSS17-61"
               transform="matrix(0.996264,0,0,0.996264,529.29341,0)"
               id="use211"
               x="0"
               y="0"
               width="100%"
               height="100%" />
            <use
               xlink:href="#CMSS17-6c"
               transform="matrix(0.996264,0,0,0.996264,574.21533,0)"
               id="use213"
               x="0"
               y="0"
               width="100%"
               height="100%" />
            <use
               xlink:href="#CMSS17-69"
               transform="matrix(0.996264,0,0,0.996264,596.39605,0)"
               id="use215"
               x="0"
               y="0"
               width="100%"
               height="100%" />
            <use
               xlink:href="#CMSS17-7a"
               transform="matrix(0.996264,0,0,0.996264,618.57678,0)"
               id="use217"
               x="0"
               y="0"
               width="100%"
               height="100%" />
            <use
               xlink:href="#CMSS17-65"
               transform="matrix(0.996264,0,0,0.996264,659.25465,0)"
               id="use219"
               x="0"
               y="0"
               width="100%"
               height="100%" />
            <use
               xlink:href="#CMSS17-64"
               transform="matrix(0.996264,0,0,0.996264,700.89347,0)"
               id="use221"
               x="0"
               y="0"
               width="100%"
               height="100%" />
            <use
               xlink:href="#CMSS17-52"
               transform="matrix(0.996264,0,0,0.996264,780.32753,0)"
               id="use223"
               x="0"
               y="0"
               width="100%"
               height="100%" />
            <use
               xlink:href="#CMSS17-65"
               transform="matrix(0.996264,0,0,0.996264,840.74368,0)"
               id="use225"
               x="0"
               y="0"
               width="100%"
               height="100%" />
            <use
               xlink:href="#CMSS17-74"
               transform="matrix(0.996264,0,0,0.996264,882.3825,0)"
               id="use227"
               x="0"
               y="0"
               width="100%"
               height="100%" />
            <use
               xlink:href="#CMSS17-75"
               transform="matrix(0.996264,0,0,0.996264,916.21407,0)"
               id="use229"
               x="0"
               y="0"
               width="100%"
               height="100%" />
            <use
               xlink:href="#CMSS17-72"
               transform="matrix(0.996264,0,0,0.996264,964.41901,0)"
               id="use231"
               x="0"
               y="0"
               width="100%"
               height="100%" />
            <use
               xlink:href="#CMSS17-6e"
               transform="matrix(0.996264,0,0,0.996264,996.32879,0)"
               id="use233"
               x="0"
               y="0"
               width="100%"
               height="100%" />
            <use
               xlink:href="#CMSS17-28"
               transform="matrix(0.996264,0,0,0.996264,1075.7628,0)"
               id="use235"
               x="0"
               y="0"
               width="100%"
               height="100%" />
            <use
               xlink:href="#CMSS17-25"
               transform="matrix(0.996264,0,0,0.996264,1112.1968,0)"
               id="use237"
               x="0"
               y="0"
               width="100%"
               height="100%" />
            <use
               xlink:href="#CMSS17-29"
               transform="matrix(0.996264,0,0,0.996264,1190.2695,0)"
               id="use239"
               x="0"
               y="0"
               width="100%"
               height="100%" />
          </g>
        </g>
      </g>
      <g
         id="PolyCollection_1">
        <defs
           id="defs246">
          <path
             id="m133129a5b2"
             d="m 65.400964,-93.764091 v 81.21942 l 7.671639,-72.61667 6.712684,-17.157149 7.494055,-9.97516 7.174404,-11.38984 6.073384,-9.3684 6.81923,-8.56692 6.67717,-4.4892 6.67717,-3.55573 6.03786,-2.93298 6.67717,-1.04982 6.92578,-1.16122 7.17441,-0.59784 7.10337,-0.51129 8.09784,-0.47512 7.35198,-1.17857 7.31648,-1.55151 7.06785,-0.65208 6.49958,-1.7595 6.60613,-0.74795 6.78372,-0.57343 5.96683,-0.99992 6.42855,-0.70068 7.24544,-0.73325 7.3875,-1.25703 6.1089,-0.47298 6.39303,-0.279 7.67164,-0.0194 6.71269,0.33098 6.9613,-0.43408 6.57062,0.0193 6.92578,-0.59283 6.49959,-0.10083 7.88474,-0.26312 6.99682,-0.29795 7.45853,-0.0123 6.35752,-0.53248 6.99682,-0.4098 7.10337,-0.32747 6.71268,0.13057 7.35199,0.61884 6.99682,0.74966 7.06785,0.3441 6.9613,-0.45588 7.10337,-0.21001 7.13889,-0.65163 6.9613,-0.0842 6.85475,-0.23344 6.89027,-0.33798 6.25097,0.40364 6.322,-0.42133 v -13.86704 0 l -6.322,-0.54428 -6.25097,0.41008 -6.89027,0.36671 -6.85475,-0.78046 -6.9613,0.44352 -7.13889,0.097 -7.10337,0.14976 -6.9613,0.93377 -7.06785,0.24092 -6.99682,-0.21381 -7.35199,0.51963 -6.71268,-0.28241 -7.10337,1.089 -6.99682,3.63387 -6.35752,-2.97945 -7.45853,0.97464 -6.99682,-1.28724 -7.88474,0.0655 -6.49959,0.51283 -6.92578,0.19246 -6.57062,1.22035 -6.9613,0.35596 -6.71269,0.58015 -7.67164,-0.005 -6.39303,0.10379 -6.1089,0.19045 -7.3875,0.85335 -7.24544,3.5241 -6.42855,-1.67748 -5.96683,1.25842 -6.78372,0.37008 -6.60613,-0.26628 -6.49958,0.73662 -7.06785,0.70581 -7.31648,0.6501 -7.35198,1.26205 -8.09784,0.79983 -7.10337,1.45239 -7.17441,1.12696 -6.92578,0.76854 -6.67717,2.01438 -6.03786,0.58849 -6.67717,1.85243 -6.67717,4.38294 -6.81923,6.85508 -6.073384,10.78688 -7.174404,14.32033 -7.494055,10.46056 -6.712684,8.94357 z"
             style="stroke:#4c72b0;stroke-opacity:0.2" />
        </defs>
        <g
           clip-path="url(#pa787c37ad9)"
           id="g250">
          <use
             xlink:href="#m133129a5b2"
             x="0"
             y="273.60001"
             style="fill:#4c72b0;fill-opacity:0.2;stroke:#4c72b0;stroke-opacity:0.2"
             id="use248"
             width="100%"
             height="100%" />
        </g>
      </g>
      <g
         id="PolyCollection_2">
        <defs
           id="defs254">
          <path
             id="m6734647e31"
             d="m 65.827166,-165.56927 v 73.86468 l 7.600606,-30.95795 6.712684,9.87157 7.458538,-24.10085 7.174403,-15.42493 6.144413,-16.58647 6.78372,-8.88791 6.67717,-0.3374 6.67716,-4.36821 6.07339,3.70445 6.60613,-2.11343 6.99682,-5.74993 7.1744,-8.59278 7.06785,-13.99798 8.02681,-12.89916 7.42302,-4.44028 7.35199,-0.49544 6.99682,-1.23001 6.5351,-3.96109 6.64165,-4.30092 6.7482,-1.75033 6.00235,1.24682 6.42855,2.2303 7.1744,0.32238 7.45854,-3.61326 6.07338,-1.89228 6.39303,-3.16277 7.63613,-1.79075 6.71268,0.056 6.89027,-1.53489 6.64165,0.20778 6.9613,-0.13077 6.49958,-1.54379 7.84923,0.64383 6.9613,0.93557 7.45854,1.44094 6.28648,1.75568 7.10337,-1.04386 7.03234,-1.22425 6.67716,-1.91586 7.45854,-1.34928 6.99682,0.11018 7.03234,-0.28246 6.99682,0.31007 6.9613,2.73803 7.1744,1.35969 6.99682,1.0285 6.85475,0.34188 6.81924,-2.72403 6.21544,-0.7995 6.35752,-0.18926 v -16.13643 0 l -6.35752,-0.22882 -6.21544,-0.1799 -6.81924,-0.4996 -6.85475,-0.25357 -6.99682,-0.0889 -7.1744,-0.0522 -6.9613,0.14741 -6.99682,0.3118 -7.03234,0.69503 -6.99682,0.44302 -7.45854,0.39383 -6.67716,0.37194 -7.03234,0.65513 -7.10337,0.95461 -6.28648,1.27664 -7.45854,1.73139 -6.9613,1.29175 -7.84923,1.05144 -6.49958,0.59815 -6.9613,0.39856 -6.64165,1.68023 -6.89027,0.59977 -6.71268,0.0517 -7.63613,0.6035 -6.39303,0.19574 -6.07338,0.77581 -7.45854,0.39715 -7.1744,0.0354 -6.42855,0.0981 -6.00235,0.37329 -6.7482,0.45791 -6.64165,1.71539 -6.5351,1.73785 -6.99682,0.89056 -7.35199,1.31323 -7.42302,0.68065 -8.02681,0.58891 -7.06785,1.36142 -7.1744,2.66987 -6.99682,3.05083 -6.60613,4.70878 -6.07339,11.16528 -6.67716,6.9877 -6.67717,11.27125 -6.78372,16.11018 -6.144413,15.50159 -7.174403,2.32288 -7.458538,-2.40982 -6.712684,12.84262 z"
             style="stroke:#dd8452;stroke-opacity:0.2" />
        </defs>
        <g
           clip-path="url(#pa787c37ad9)"
           id="g258">
          <use
             xlink:href="#m6734647e31"
             x="0"
             y="273.60001"
             style="fill:#dd8452;fill-opacity:0.2;stroke:#dd8452;stroke-opacity:0.2"
             id="use256"
             width="100%"
             height="100%" />
        </g>
      </g>
      <g
         id="PolyCollection_3">
        <path
           d="M 65.8982,112.81503 V 70251.804 l 7.600605,-69990.14243 6.712684,-153.75251 7.458539,-12.92588 7.174403,-12.369989 6.144419,-8.871174 6.78371,-0.178425 6.67717,-0.104468 6.67717,0.02434 6.07338,0.125506 6.60613,0.217371 6.99682,-0.05625 7.17441,-0.0351 7.06785,-0.133012 8.02681,-0.343825 7.42302,-0.295554 7.35198,0.03422 6.99682,0.444919 6.5351,0.198684 6.64165,-0.285418 6.74821,-0.426586 6.00234,0.02734 6.42855,0.0856 7.17441,0.06866 7.45853,0.3804 6.07338,-0.0313 6.39304,-0.534112 7.63612,0.01367 6.71268,0.440595 6.89027,0.499895 6.64165,0.29752 6.9613,0.09268 6.49959,0.04645 h 7.84922 l 6.9613,-0.114205 7.45854,-0.498169 6.28648,-0.548708 7.10337,-0.260452 7.03234,0.5058 6.67717,0.100784 7.45853,0.09414 6.99682,-0.412721 7.03234,-0.525931 6.99682,-0.03722 6.9613,0.333219 7.1744,-0.105801 6.99682,-0.193582 6.85476,-0.01015 6.81923,-0.0203 6.21545,-0.09455 6.35751,-0.174816 v -0.44591 0 l -6.35751,-0.08906 -6.21545,-0.02963 -6.81923,-0.147716 -6.85476,0.12798 -6.99682,0.138428 -7.1744,0.01322 -6.9613,0.02976 -6.99682,0.04303 -7.03234,-0.08601 -6.99682,0.168943 -7.45853,0.22338 -6.67717,0.07035 -7.03234,-0.0067 -7.10337,-0.257114 -6.28648,-0.396416 -7.45854,-0.04591 -6.9613,0.21046 -7.84922,0.285118 -6.49959,0.116805 -6.9613,0.08706 -6.64165,-0.193872 -6.89027,-0.08651 -6.71268,0.109843 -7.63612,-0.01667 -6.39304,-0.123061 -6.07338,-0.0066 -7.45853,0.06644 -7.17441,0.06659 -6.42855,0.304835 -6.00234,0.246765 -6.74821,-0.250132 -6.64165,0.02694 -6.5351,0.07422 -6.99682,0.04732 -7.35198,-0.229163 -7.42302,-0.297349 -8.02681,0.280566 -7.06785,0.124409 -7.17441,0.08097 -6.99682,0.04395 -6.60613,-0.232546 -6.07338,-0.154049 -6.67717,0.211177 -6.67717,0.212654 -6.78371,0.31666 -6.144419,0.264699 -7.174403,6.388702 -7.458539,2.107367 -6.712684,4.978415 z"
           clip-path="url(#pa787c37ad9)"
           style="fill:#55a868;fill-opacity:0.2;stroke:#55a868;stroke-opacity:0.2"
           id="path261" />
      </g>
      <g
         id="PolyCollection_4">
        <defs
           id="defs265">
          <path
             id="m53b4b14d8f"
             d="m 65.578548,-61.249007 v 9.290052 l 7.600606,-51.462855 6.712684,-17.71766 7.458538,-8.88178 7.174403,-10.13974 6.144411,-6.77853 6.78372,-2.26483 6.67717,-3.2425 6.67717,-4.9559 6.07338,-3.00617 6.60613,-1.89803 6.99682,-0.71936 7.1744,-1.61515 7.06786,-1.42669 8.0268,-1.32002 7.42303,-2.32952 7.35198,-0.91329 6.99682,-0.0154 6.5351,3.28386 6.64165,3.71073 6.7482,0.25254 6.00235,-1.5404 6.42855,-1.74758 7.1744,-2.28446 7.45854,-1.55147 6.07338,-0.54305 6.39304,-0.0681 7.63612,0.58034 6.71268,0.14683 6.89027,-1.02074 6.64165,-1.66883 6.9613,-1.63583 6.49959,-0.55931 7.84922,-0.11852 6.9613,-0.23567 7.45854,-0.68351 6.28648,-2.26037 7.10337,-0.96713 7.03234,-0.21713 6.67717,-0.0796 7.45853,-0.10771 6.99682,-0.14677 7.03234,0.0507 6.99682,-0.006 6.9613,-0.0676 7.1744,-0.51889 6.99682,-0.7108 6.85475,-0.97327 6.81924,-0.18265 6.21545,0.53009 6.35751,0.78839 v -15.50188 0 l -6.35751,0.38431 -6.21545,-0.32877 -6.81924,-0.17932 -6.85475,0.38274 -6.99682,1.09599 -7.1744,1.37881 -6.9613,1.10172 -6.99682,0.21925 -7.03234,-0.6275 -6.99682,0.0402 -7.45853,0.53139 -6.67717,1.56589 -7.03234,1.94192 -7.10337,1.6701 -6.28648,0.6648 -7.45854,0.0677 -6.9613,-0.35507 -7.84922,-0.96751 -6.49959,0.54594 -6.9613,0.72244 -6.64165,0.82799 -6.89027,2.02771 -6.71268,0.61591 -7.63612,0.58219 -6.39304,0.73585 -6.07338,-0.11599 -7.45854,0.1477 -7.1744,0.7332 -6.42855,0.99101 -6.00235,0.39428 -6.7482,-0.25405 -6.64165,-1.16913 -6.5351,-0.53094 -6.99682,0.86276 -7.35198,2.3708 -7.42303,2.30863 -8.0268,2.2844 -7.06786,3.37106 -7.1744,-0.73657 -6.99682,3.55968 -6.60613,4.42926 -6.07338,3.54291 -6.67717,3.49013 -6.67717,2.61574 -6.78372,2.71523 -6.144411,6.19751 -7.174403,9.95364 -7.458538,4.71159 -6.712684,13.84419 z"
             style="stroke:#c44e52;stroke-opacity:0.2" />
        </defs>
        <g
           clip-path="url(#pa787c37ad9)"
           id="g269">
          <use
             xlink:href="#m53b4b14d8f"
             x="0"
             y="273.60001"
             style="fill:#c44e52;fill-opacity:0.2;stroke:#c44e52;stroke-opacity:0.2"
             id="use267"
             width="100%"
             height="100%" />
        </g>
      </g>
      <g
         id="PolyCollection_5">
        <path
           d="M 65.791649,238.77584 V 70251.804 h 7.600606 l 6.712684,-70053.0067 7.458538,-34.56102 7.174403,-23.0719 6.14442,-17.96553 6.78371,-11.88061 6.67717,-7.85637 6.67717,-5.174504 6.07338,-1.264018 6.60613,3.848932 6.99682,5.42572 7.1744,6.53535 7.06786,-20.114292 8.0268,18.810502 7.42303,-5.56191 7.35198,-5.88599 6.99682,-5.546447 6.5351,-5.264198 6.64165,-5.077695 6.7482,-5.022338 6.00235,-4.792261 6.42855,-3.802785 7.1744,-3.260697 7.45854,-2.831322 6.07338,-2.095881 6.39304,-1.978042 7.63612,-1.865375 6.71268,-1.351923 6.89027,-1.409715 6.64165,-0.420372 6.9613,-0.08046 6.49959,-0.185706 7.84922,-0.28904 6.9613,-0.261374 7.45854,-0.26975 6.28648,-0.358314 7.10337,-0.512516 7.03234,-0.510778 6.67717,-0.525584 7.45853,-0.372745 6.99682,-0.179785 7.03234,-0.191687 6.99682,-0.135723 6.9613,-0.03545 7.1744,-0.03541 6.99682,-0.02251 6.85475,0.0064 6.81924,0.0096 6.21545,0.0032 6.35751,-0.0032 v -0.147582 0 l -6.35751,-0.0032 h -6.21545 l -6.81924,0.0032 h -6.85475 l -6.99682,0.01601 -7.1744,0.09943 -6.9613,0.05467 -6.99682,0.08702 -7.03234,0.02906 -6.99682,0.02909 -7.45853,0.06799 -6.67717,0.110399 -7.03234,0.1108 -7.10337,0.137431 -6.28648,0.128172 -7.45854,0.148566 -6.9613,0.302668 -7.84922,0.444458 -6.49959,0.03054 -6.9613,-0.0034 -6.64165,-0.08475 -6.89027,-0.09464 -6.71268,-0.171634 -7.63612,-0.250657 -6.39304,-0.205661 -6.07338,-0.217413 -7.45854,0.916321 -7.1744,-1.223312 -6.42855,0.251241 -6.00235,0.455535 -6.7482,0.781542 -6.64165,1.112036 -6.5351,1.117493 -6.99682,1.605853 -7.35198,2.186345 -7.42303,2.772028 -8.0268,3.5683 -7.06786,3.879766 -7.1744,3.731053 -6.99682,3.807028 -6.60613,3.779911 -6.07338,3.809302 -6.67717,4.486978 -6.67717,5.700847 -6.78371,7.159179 -6.14442,13.55779 -7.174403,20.21118 -7.458538,21.9419 -6.712684,70094.16334 z"
           clip-path="url(#pa787c37ad9)"
           style="fill:#8172b3;fill-opacity:0.2;stroke:#8172b3;stroke-opacity:0.2"
           id="path272" />
      </g>
      <g
         id="PolyCollection_6">
        <path
           d="M 65.258896,70251.804 V 173.63731 l 7.078454,-31.46369 7.078453,-1.82456 7.078454,-11.2588 7.078453,-3.69219 7.07845,3.06996 7.07846,-13.09458 7.07845,1.78772 7.07845,-4.2277 7.07846,-5.72372 7.07845,1.92711 7.07845,-2.57118 7.07846,-1.35672 7.07845,1.90244 7.07845,-1.53032 7.07846,0.32827 7.07845,0.23461 7.07845,-1.31341 7.07846,-1.88387 7.07845,-0.83774 7.07846,1.06717 7.07845,-0.86097 7.07845,-0.7799 7.07846,-0.01 7.07845,0.30861 7.07845,-0.92457 7.07846,2.55924 7.07845,-2.5316 7.07845,-0.50196 7.07846,-1.696811 7.07845,-1.82997 7.07845,2.140803 7.07846,-0.918066 7.07845,1.407321 7.07845,-0.986184 7.07846,1.488197 7.07845,-3.006656 7.07845,0.672794 7.07846,-0.560367 7.07845,-0.358508 7.07846,0.847712 7.07845,-1.458988 7.07845,1.848142 7.07845,-0.958008 7.07846,-1.526919 7.07845,-1.124034 7.07845,3.229593 7.07846,-0.0169 7.07845,0.53113 7.07846,-1.569573 v 0.33597 0 l -7.07846,0.95011 -7.07845,-0.559886 -7.07846,0.949267 -7.07845,0.359827 -7.07845,-2.519687 -7.07846,2.965271 -7.07845,-0.570009 -7.07845,0.228964 -7.07845,-0.745184 -7.07846,-2.273324 -7.07845,1.429481 -7.07846,1.698414 -7.07845,0.836558 -7.07845,1.10747 -7.07846,-1.976188 -7.07845,-0.145584 -7.07845,1.321187 -7.07846,-2.202252 -7.07845,0.792099 -7.07845,-1.809186 -7.07846,1.714919 -7.07845,-0.49803 -7.07845,0.227542 -7.07846,0.382395 -7.07845,1.088611 -7.07845,1.940767 -7.07846,-2.500571 -7.07845,2.319121 -7.07845,1.31724 -7.07846,0.0827 -7.07845,1.35615 -7.07846,0.28472 -7.07845,2.49814 -7.07845,2.08562 -7.07846,-3.44676 -7.07845,1.4718 -7.07845,1.51465 -7.07846,-1.44845 -7.07845,5.36649 -7.07845,-2.15976 -7.07846,5.83237 -7.07845,-1.31054 -7.07845,0.56356 -7.07846,2.5508 -7.07845,6.48851 -7.078453,-0.27449 -7.078454,9.95285 -7.078453,29.53523 z"
           clip-path="url(#pa787c37ad9)"
           style="fill:#4c72b0;fill-opacity:0.1;stroke:#4c72b0;stroke-opacity:0.1"
           id="path275" />
      </g>
      <g
         id="PolyCollection_7">
        <path
           d="m 65.258896,70251.804 v 0 H 72.33735 L 79.415803,68.896514 l 7.078454,-6.621115 7.078453,-0.203644 7.07845,-4.919263 7.07846,-9.988 7.07845,5.204895 7.07845,-7.02684 7.07846,3.549861 7.07845,-7.088074 7.07845,-1.857919 7.07846,-2.236081 7.07845,-4.057424 7.07845,0.240836 7.07846,-4.05103 7.07845,3.750399 7.07845,-0.821836 7.07846,-0.893935 7.07845,-2.821841 7.07846,3.740758 7.07845,-3.976442 7.07845,0.585316 7.07846,-2.720892 7.07845,2.343123 7.07845,-2.337045 7.07846,0.490869 7.07845,1.267914 7.07845,-2.172934 7.07846,-0.882663 7.07845,-0.367326 7.07845,1.296347 7.07846,0.481803 7.07845,-1.910366 7.07845,0.831379 7.07846,-0.841223 7.07845,-2.6765 7.07845,0.818924 7.07846,-0.334475 7.07845,0.341447 7.07846,-1.164337 7.07845,0.964502 7.07845,0.596832 7.07845,-1.99468 7.07846,2.006164 7.07845,-0.705354 7.07845,-0.908235 7.07846,0.280354 7.07845,0.199964 7.07846,0.110807 v -3.963011 0 l -7.07846,-0.702864 -7.07845,1.61153 -7.07846,-0.982164 -7.07845,1.876029 -7.07845,2.021403 -7.07846,-2.237741 -7.07845,1.165128 -7.07845,0.946808 -7.07845,-1.805431 -7.07846,0.858099 -7.07845,0.993553 -7.07846,-0.443338 -7.07845,-1.935856 -7.07845,2.299296 -7.07846,0.772046 -7.07845,0.185526 -7.07845,-0.06657 -7.07846,1.271535 -7.07845,-2.579869 -7.07845,-0.196333 -7.07846,2.396239 -7.07845,-0.312457 -7.07845,-0.03385 -7.07846,0.625802 -7.07845,2.268376 -7.07845,-2.474244 -7.07846,-0.933695 -7.07845,1.46802 -7.07845,2.327587 -7.07846,-1.680963 -7.07845,1.125696 -7.07846,1.7729 -7.07845,-1.200569 -7.07845,0.610084 -7.07846,-0.802867 -7.07845,1.613828 -7.07845,0.658975 -7.07846,-2.041725 -7.07845,3.245897 -7.07845,3.429545 -7.07846,3.596763 -7.07845,0.585041 -7.07845,0.622773 -7.07846,1.412626 -7.07845,7.228688 -7.078453,3.316275 -7.078454,5.949288 -7.078453,-2.726185 z"
           clip-path="url(#pa787c37ad9)"
           style="fill:#dd8452;fill-opacity:0.1;stroke:#dd8452;stroke-opacity:0.1"
           id="path278" />
      </g>
      <g
         id="PolyCollection_8">
        <defs
           id="defs282">
          <path
             id="m484c80a029"
             d="m 65.258896,-201.00509 v 0.64771 l 7.078454,0.37505 7.078453,-0.47882 7.078454,1.36654 7.078453,-0.96982 7.07845,0.7 7.07846,-1.43188 7.07845,-1.02483 7.07845,-1.38394 7.07846,-3.90294 7.07845,-0.73306 7.07845,-0.63055 7.07846,-1.91341 7.07845,-0.30276 7.07845,-0.33593 7.07846,0.0497 7.07845,-0.44356 7.07845,0.31291 7.07846,-0.2776 7.07845,-0.57975 7.07846,0.33508 7.07845,0.0481 7.07845,-0.53044 7.07846,0.28606 7.07845,0.0842 7.07845,-0.35506 7.07846,0.19863 7.07845,0.0195 7.07845,-0.1006 7.07846,0.0904 7.07845,-0.16125 7.07845,0.0753 7.07846,-0.0613 7.07845,0.13872 7.07845,0.15717 7.07846,-0.037 7.07845,-0.22458 7.07845,0.0903 7.07846,0.2008 7.07845,-0.32811 7.07846,0.30911 7.07845,-0.15228 7.07845,-0.0583 7.07845,0.25067 7.07846,-0.17732 7.07845,0.0366 7.07845,-0.19906 7.07846,0.0485 7.07845,-0.44674 7.07846,0.34223 v -0.23547 0 l -7.07846,-0.20139 -7.07845,0.23378 -7.07846,-0.12656 -7.07845,0.36754 -7.07845,-0.0615 -7.07846,0.23604 -7.07845,-0.22182 -7.07845,0.0203 -7.07845,-0.22837 -7.07846,0.0914 -7.07845,0.22184 -7.07846,-0.30907 -7.07845,0.12846 -7.07845,0.36494 -7.07846,-0.38979 -7.07845,0.0773 -7.07845,-0.0183 -7.07846,-0.25533 -7.07845,0.13274 -7.07845,0.26943 -7.07846,-0.18394 -7.07845,-0.0802 -7.07845,0.0193 -7.07846,-0.0559 -7.07845,0.54805 -7.07845,-0.21177 -7.07846,-0.30175 -7.07845,0.21668 -7.07845,0.0868 -7.07846,-0.35233 -7.07845,0.19024 -7.07846,0.004 -7.07845,0.0111 -7.07845,0.0779 -7.07846,-0.14765 -7.07845,0.28438 -7.07845,-0.21016 -7.07846,0.28204 -7.07845,-0.4376 -7.07845,1.49137 -7.07846,0.61966 -7.07845,0.66094 -7.07845,3.79134 -7.07846,3.30368 -7.07845,1.39964 -7.078453,1.44664 -7.078454,-1.7062 -7.078453,0.94863 z"
             style="stroke:#55a868;stroke-opacity:0.1" />
        </defs>
        <g
           clip-path="url(#pa787c37ad9)"
           id="g286">
          <use
             xlink:href="#m484c80a029"
             x="0"
             y="273.60001"
             style="fill:#55a868;fill-opacity:0.1;stroke:#55a868;stroke-opacity:0.1"
             id="use284"
             width="100%"
             height="100%" />
        </g>
      </g>
      <g
         id="PolyCollection_9">
        <path
           d="M 65.258896,80.94373 V 70251.804 h 7.078454 7.078453 7.078454 7.078453 7.07845 7.07846 7.07845 7.07845 7.07846 7.07845 7.07845 7.07846 7.07845 7.07845 7.07846 7.07845 7.07845 7.07846 7.07845 7.07846 7.07845 7.07845 7.07846 7.07845 7.07845 7.07846 7.07845 7.07845 7.07846 7.07845 7.07845 7.07846 7.07845 7.07845 7.07846 7.07845 7.07845 7.07846 7.07845 7.07846 7.07845 7.07845 7.07845 7.07846 7.07845 7.07845 7.07846 7.07845 7.07846 V 55.840259 v 0 l -7.07846,0.15647 -7.07845,-0.183476 -7.07846,2.189243 -7.07845,-1.587508 -7.07845,0.279569 -7.07846,1.110784 -7.07845,-1.826719 -7.07845,1.54856 -7.07845,-1.099288 -7.07846,0.273465 -7.07845,-0.357411 -7.07846,1.257083 -7.07845,-0.595014 -7.07845,0.597843 -7.07846,-0.758044 -7.07845,0.476076 -7.07845,0.880529 -7.07846,-0.718493 -7.07845,1.500022 -7.07845,-0.362797 -7.07846,0.278555 -7.07845,-0.451933 -7.07845,-0.554132 -7.07846,1.581744 -7.07845,0.552183 -7.07845,1.301004 -7.07846,-0.726133 -7.07845,1.299546 -7.07845,1.412256 -7.07846,0.09642 -7.07845,-0.08193 -7.07846,0.952061 -7.07845,-0.38387 -7.07845,1.881216 -7.07846,-0.649174 -7.07845,0.05351 -7.07845,0.229319 -7.07846,1.1831 -7.07845,0.670114 -7.07845,-1.079359 -7.07846,2.290555 -7.07845,1.915522 -7.07845,0.628639 -7.07846,2.417595 -7.07845,1.598395 -7.078453,0.652561 -7.078454,2.392095 -7.078453,1.753313 z"
           clip-path="url(#pa787c37ad9)"
           style="fill:#c44e52;fill-opacity:0.1;stroke:#c44e52;stroke-opacity:0.1"
           id="path289" />
      </g>
      <g
         id="PolyCollection_10">
        <path
           d="M 65.258896,30.775836 V 70251.804 h 7.078454 7.078453 7.078454 7.078453 7.07845 7.07846 7.07845 7.07845 7.07846 7.07845 7.07845 7.07846 7.07845 7.07845 7.07846 7.07845 7.07845 7.07846 7.07845 7.07846 7.07845 7.07845 7.07846 7.07845 7.07845 7.07846 7.07845 7.07845 7.07846 7.07845 7.07845 7.07846 7.07845 7.07845 7.07846 7.07845 7.07845 7.07846 7.07845 7.07846 7.07845 7.07845 7.07845 7.07846 7.07845 7.07845 7.07846 7.07845 7.07846 V 30.646344 v 0 l -7.07846,-0.0077 -7.07845,0.04032 -7.07846,0.02108 -7.07845,0.07583 -7.07845,-0.09834 -7.07846,-0.179474 -7.07845,0.272185 -7.07845,-0.01102 -7.07845,2.4e-4 -7.07846,-0.123846 -7.07845,-0.05178 -7.07846,0.03894 -7.07845,0.106694 -7.07845,-0.07226 -7.07846,-0.04507 -7.07845,0.149649 -7.07845,-0.03095 -7.07846,-0.01125 -7.07845,0.02347 -7.07845,0.03282 -7.07846,0.0279 -7.07845,-0.0279 -7.07845,-0.01127 -7.07846,0.0084 -7.07845,0.02741 -7.07845,-0.04125 -7.07846,-0.02975 -7.07845,0.02999 -7.07845,0.01641 -7.07846,-0.01641 -7.07845,0.0136 h -7.07846 l -7.07845,0.0028 -7.07845,-0.08291 -7.07846,0.08291 -7.07845,-0.02253 -7.07845,-0.08432 -7.07846,-1.266873 -7.07845,1.357068 -7.07845,0.01665 -7.07846,-0.212643 -7.07845,-1.549302 -7.07845,1.78411 -7.07846,-0.01842 -7.07845,-0.08916 -7.078453,-0.538756 -7.078454,0.60752 -7.078453,0.01384 z"
           clip-path="url(#pa787c37ad9)"
           style="fill:#8172b3;fill-opacity:0.1;stroke:#8172b3;stroke-opacity:0.1"
           id="path292" />
      </g>
      <g
         id="line2d_10" />
      <g
         id="line2d_11">
        <path
           d="m 65.400964,192.67334 7.671639,-16.28324 6.712684,-10.96391 7.494055,-12.42923 7.174404,-13.51179 6.073384,-9.30256 6.81923,-6.81 6.67717,-3.88764 6.67717,-2.78725 6.03786,-1.35992 6.67717,-1.36273 6.92578,-0.76064 7.17441,-0.87365 7.10337,-1.61575 8.09784,-1.22492 7.35198,-1.52068 7.31648,-1.0091 7.06785,-0.64455 6.49958,-0.9273 6.60613,-0.10848 6.78372,-0.58167 5.96683,-0.80445 6.42855,-0.31868 7.24544,-0.97653 7.3875,-0.41852 6.1089,-0.27895 6.39303,-0.19875 7.67164,-0.19562 6.71269,-0.28017 6.9613,-0.30649 6.57062,-0.71687 6.92578,0.0264 6.49959,-0.317617 7.88474,-0.06975 6.99682,0.468617 7.45853,-0.758089 6.35752,-0.146285 6.99682,-0.78303 7.10337,-0.379127 6.71268,0.197288 7.35199,0.02163 6.99682,0.380197 7.06785,-0.221662 6.9613,-0.655455 7.10337,-0.213758 7.13889,-0.307386 6.9613,-0.410898 6.85475,0.271178 6.89027,-0.510038 6.25097,-0.14932 6.322,0.125694"
           clip-path="url(#pa787c37ad9)"
           style="fill:none;stroke:#4c72b0;stroke-width:1.5;stroke-linecap:round"
           id="path296" />
      </g>
      <g
         id="line2d_12">
        <path
           d="m 65.827166,122.84476 7.600606,6.50664 6.712684,-7.87712 7.458538,-5.6528 7.174403,-6.50735 6.144413,-12.645997 6.78372,-12.722607 6.67717,-10.233301 6.67716,-9.25044 6.07339,-6.16024 6.60613,-4.716855 6.99682,-3.328976 7.1744,-2.36462 7.06785,-3.080462 8.02681,-3.07495 7.42302,-2.316613 7.35199,-1.59419 6.99682,-1.228726 6.5351,-1.882705 6.64165,-2.460626 6.7482,-1.461847 6.00235,-1.147328 6.42855,0.281049 7.1744,-0.236578 7.45854,-1.493986 6.07338,-1.189109 6.39303,-0.997569 7.63613,-0.922972 6.71268,-0.788439 6.89027,-0.859685 6.64165,-0.512896 6.9613,-0.4324 6.49958,-0.795074 7.84923,-0.250755 6.9613,-0.495005 7.45854,-0.226893 6.28648,-0.01075 7.10337,-0.909556 7.03234,-0.650573 6.67716,-0.296078 7.45854,0.102612 6.99682,0.187433 7.03234,-0.304507 6.99682,-0.07282 6.9613,0.204717 7.1744,0.509857 6.99682,0.155477 6.85475,0.363698 6.81924,0.05023 6.21544,-0.01028 6.35752,0.165074"
           clip-path="url(#pa787c37ad9)"
           style="fill:none;stroke:#dd8452;stroke-width:1.5;stroke-linecap:round"
           id="path299" />
      </g>
      <g
         id="line2d_13">
        <path
           d="m 65.8982,144.39188 7.600605,-42.08016 6.712684,-12.621578 7.458539,-4.907403 7.174403,-8.583885 6.144419,-2.74784 6.78371,-0.218166 6.67717,-0.149157 6.67717,-0.06289 6.07338,0.16722 6.60613,0.230569 6.99682,-0.0555 7.17441,-0.07038 7.06785,-0.189562 8.02681,-0.334866 7.42302,-0.02944 7.35198,0.07365 6.99682,0.15239 6.5351,0.06734 6.64165,-0.03882 6.74821,-0.136633 6.00234,-0.143938 6.42855,-0.02938 7.17441,0.02486 7.45853,-0.0226 6.07338,-0.07221 6.39304,-0.06642 7.63612,0.0079 6.71268,0.0608 6.89027,0.168402 6.64165,0.230943 6.9613,0.120144 6.49959,0.04704 7.84922,0.01608 6.9613,-0.167276 7.45854,-0.251468 6.28648,-0.130037 7.10337,0.04291 7.03234,0.05768 6.67717,0.01585 7.45853,-0.06223 6.99682,-0.270083 7.03234,-0.136379 6.99682,0.0916 6.9613,0.03694 7.1744,-0.06601 6.99682,-0.05918 6.85476,-0.07019 6.81923,-0.123282 6.21545,-0.01441 6.35751,-0.0066"
           clip-path="url(#pa787c37ad9)"
           style="fill:none;stroke:#55a868;stroke-width:1.5;stroke-linecap:round"
           id="path302" />
      </g>
      <g
         id="line2d_14">
        <path
           d="m 65.578548,218.21934 7.600606,-55.59884 6.712684,-15.83408 7.458538,-5.97732 7.174403,-10.07925 6.144411,-5.50385 6.78372,-2.89461 6.67717,-3.55295 6.67717,-3.94018 6.07338,-2.75661 6.60613,-2.75258 6.99682,-2.22307 7.1744,-1.60163 7.06786,-2.0548 8.0268,-1.99799 7.42303,-2.166887 7.35198,-0.945744 6.99682,0.278649 6.5351,1.021139 6.64165,1.386653 6.7482,-0.0912 6.00235,-0.70618 6.42855,-1.070183 7.1744,-1.033815 7.45854,-0.804607 6.07338,-0.623701 6.39304,-0.584584 7.63612,-0.291173 6.71268,-0.354583 6.89027,-1.101483 6.64165,-0.834554 6.9613,-0.691253 6.49959,-0.241555 7.84922,0.401817 6.9613,-0.024 7.45854,-0.363232 6.28648,-1.10485 7.10337,-1.422309 7.03234,-1.557132 6.67717,-0.943503 7.45853,-0.197221 6.99682,-0.22493 7.03234,-0.03352 6.99682,-0.821778 6.9613,-1.260111 7.1744,-1.142944 6.99682,-0.822885 6.85475,-0.515514 6.81924,-0.184249 6.21545,-0.02995 6.35751,-0.219162"
           clip-path="url(#pa787c37ad9)"
           style="fill:none;stroke:#c44e52;stroke-width:1.5;stroke-linecap:round"
           id="path305" />
      </g>
      <g
         id="line2d_15">
        <path
           d="m 80.095369,274.6 0.0096,-99.90895 7.458538,-24.97258 7.174403,-21.22856 6.14442,-15.01595 6.78371,-9.41659 6.67717,-7.092629 6.67717,-5.298693 6.07338,-3.837975 6.60613,-2.432883 6.99682,-2.447294 7.1744,-2.675904 7.06786,-2.995187 8.0268,-3.657161 7.42303,-3.132142 7.35198,-2.635951 6.99682,-2.236441 6.5351,-1.752505 6.64165,-1.578962 6.7482,-1.433859 6.00235,-1.318951 6.42855,-1.160548 7.1744,-0.902812 7.45854,-0.718778 6.07338,-0.50303 6.39304,-0.405697 7.63612,-0.416263 6.71268,-0.332103 6.89027,-0.395469 6.64165,-0.371524 6.9613,-0.3052 6.49959,-0.306795 7.84922,-0.248733 6.9613,-0.212568 7.45854,-0.17941 6.28648,-0.204235 7.10337,-0.284312 7.03234,-0.273952 6.67717,-0.278072 7.45853,-0.225638 6.99682,-0.132206 7.03234,-0.117633 6.99682,-0.08712 6.9613,-0.05902 7.1744,-0.04499 6.99682,-0.01498 6.85475,0.0043 6.81924,0.0021 6.21545,0.0011 6.35751,-0.0011"
           clip-path="url(#pa787c37ad9)"
           style="fill:none;stroke:#8172b3;stroke-width:1.5;stroke-linecap:round"
           id="path308" />
      </g>
      <g
         id="line2d_16" />
      <g
         id="line2d_17" />
      <g
         id="line2d_18" />
      <g
         id="line2d_19" />
      <g
         id="line2d_20" />
      <g
         id="line2d_21" />
      <g
         id="line2d_22">
        <path
           d="m 65.258896,230.78276 7.078454,-79.71201 7.078453,-13.97151 7.078454,-10.5466 7.078453,-1.61454 7.07845,-2.15421 7.07846,-7.37435 7.07845,0.59076 7.07845,-1.48087 7.07846,-5.77518 7.07845,2.03719 7.07845,-3.92324 h 7.07846 l 7.07845,0.24117 7.07845,-1.50106 7.07846,1.84669 7.07845,-0.88753 7.07845,-1.90343 7.07846,-1.09018 7.07845,-1.09273 7.07846,0.49369 7.07845,-1.09154 7.07845,-1.57033 7.07846,1.26925 7.07845,-0.83513 7.07845,-1.009606 7.07846,0.996936 7.07845,-1.301895 7.07845,0.01821 7.07846,-1.706156 7.07845,-0.0057 7.07845,0.679112 7.07846,0.634626 7.07845,0.05399 7.07845,-0.417406 7.07846,1.730189 7.07845,-2.083462 7.07845,-0.05848 7.07846,-1.124121 7.07845,-0.898755 7.07846,1.564778 7.07845,-0.38318 7.07845,0.835436 7.07845,-0.209569 7.07846,-2.230909 7.07845,0.626388 7.07845,1.506057 7.07846,-0.481903 7.07845,0.545579 7.07846,-1.259976"
           clip-path="url(#pa787c37ad9)"
           style="fill:none;stroke:#4c72b0;stroke-width:1.5;stroke-dasharray:5.55, 2.4;stroke-dashoffset:0"
           id="path317" />
      </g>
      <g
         id="line2d_23">
        <path
           d="m 79.394357,274.6 0.02145,-212.660347 7.078454,-6.218313 7.078453,-2.099645 7.078446,-6.374521 7.07846,-4.79407 7.07845,1.737767 7.07845,-3.21011 7.07846,-0.704282 7.07845,-4.859765 7.07845,-2.690954 7.07846,0.282255 7.07845,-2.161546 7.07845,-0.782213 7.07846,-1.432976 7.07845,1.407245 7.07845,0.28424 7.07846,-1.370557 7.07845,-1.907761 7.07846,2.627645 7.07845,-3.082633 7.07845,-0.531137 7.07846,-0.75771 7.07845,2.411528 7.07845,-2.301277 7.07846,-0.09557 7.07845,0.607941 7.07845,-0.856494 7.07846,-1.678339 7.07845,-0.06882 7.07845,1.966365 7.07846,-0.436843 7.07845,-0.876383 7.07845,0.303516 7.07846,-0.805045 7.07845,-2.479923 7.07845,1.394159 7.07846,0.06006 7.07845,-0.338763 7.07846,-1.007008 7.07845,1.392563 7.07845,-0.193388 7.07845,-1.567583 7.07846,2.124383 7.07845,-1.383051 7.07845,-1.415666 7.07846,0.64909 7.07845,-0.76004 7.07846,0.427524"
           clip-path="url(#pa787c37ad9)"
           style="fill:none;stroke:#dd8452;stroke-width:1.5;stroke-dasharray:5.55, 2.4;stroke-dashoffset:0"
           id="path320" />
      </g>
      <g
         id="line2d_24">
        <path
           d="m 65.258896,72.917043 7.078454,0.545558 7.078453,-0.715827 7.078454,1.538072 7.078453,-1.210882 7.07845,-0.383735 7.07846,-2.428478 7.07845,-2.550128 7.07845,-0.979321 7.07846,-2.118967 7.07845,-1.137275 7.07845,-0.06253 7.07846,-1.063931 7.07845,-0.04019 7.07845,-0.309659 7.07846,0.09955 7.07845,-0.258145 7.07845,0.148662 7.07846,-0.138774 7.07845,-0.38328 7.07846,0.343746 7.07845,-0.01975 7.07845,-0.372789 7.07846,0.293927 7.07845,0.148035 7.07845,-0.451711 7.07846,0.126979 h 7.07845 l 7.07845,-0.0098 7.07846,0.137297 7.07845,-0.215476 7.07845,-0.02927 7.07846,0.09766 7.07845,0.07836 7.07845,0.03925 7.07846,0.177269 7.07845,-0.294877 7.07845,-0.01956 7.07846,0.25523 7.07845,-0.274775 7.07846,0.107652 7.07845,0.03924 7.07845,-0.03924 7.07845,0.236206 7.07846,-0.206781 7.07845,0.04911 7.07845,-0.283718 7.07846,0.08777 7.07845,-0.339906 7.07846,0.27162"
           clip-path="url(#pa787c37ad9)"
           style="fill:none;stroke:#55a868;stroke-width:1.5;stroke-dasharray:5.55, 2.4;stroke-dashoffset:0"
           id="path323" />
      </g>
      <g
         id="line2d_25">
        <path
           d="m 73.107072,274.6 6.308731,-106.11659 7.078454,-22.14438 7.078453,-6.88945 7.07845,-10.19943 7.07846,-5.98416 7.07845,-2.34264 7.07845,-10.05033 7.07846,-6.21624 7.07845,1.42132 7.07845,-5.79855 7.07846,-1.849105 7.07845,-0.547061 7.07845,0.547061 7.07846,0.388881 7.07845,-3.257707 7.07845,1.519189 7.07846,-3.417785 7.07845,0.78884 7.07846,-1.373117 7.07845,-2.036747 7.07845,-3.705056 7.07846,0.678338 7.07845,-1.285568 7.07845,-0.613765 7.07846,-1.735555 7.07845,-0.448851 7.07845,0.904425 7.07846,-1.058267 7.07845,1.306431 7.07845,-2.130631 7.07846,0.350498 7.07845,-2.20141 7.07845,0.266621 7.07846,0.126281 7.07845,-0.873157 7.07845,1.593428 7.07846,-1.501065 7.07845,-0.13844 7.07846,-0.89227 7.07845,0.284494 7.07845,0.241656 7.07845,1.940906 7.07846,-2.526612 7.07845,0.844585 7.07845,1.536911 7.07846,-3.477112 7.07845,0.814306 7.07846,0.897358"
           clip-path="url(#pa787c37ad9)"
           style="fill:none;stroke:#c44e52;stroke-width:1.5;stroke-dasharray:5.55, 2.4;stroke-dashoffset:0"
           id="path326" />
      </g>
      <g
         id="line2d_26">
        <path
           d="m 65.258896,52.522141 7.078454,0.0139 7.078453,-0.0139 7.078454,3.36188 7.078453,-3.026472 7.07845,-0.293684 7.07846,0.05572 7.07845,10.503101 7.07845,-9.381154 7.07846,-1.219393 h 7.07845 l 7.07845,7.961433 7.07846,-7.428649 7.07845,-0.421392 7.07845,-0.111392 7.07846,0.265225 7.07845,-0.265225 7.07845,0.0139 h 7.07846 l 7.07845,-0.0278 7.07846,0.0139 7.07845,-0.0139 7.07845,-0.04165 7.07846,0.05554 7.07845,0.307315 7.07845,-0.293414 7.07846,0.04174 7.07845,-0.05565 7.07845,0.195205 7.07846,-0.195205 7.07845,-0.02778 7.07845,0.307034 7.07846,-0.05606 7.07845,-0.153622 7.07845,-0.208242 h 7.07846 l 7.07845,0.08313 7.07845,-0.08313 7.07846,-0.0829 7.07845,0.166025 7.07846,0.04165 7.07845,0.0139 7.07845,0.02781 7.07845,-0.263173 7.07846,0.152086 7.07845,0.08328 7.07845,-0.06941 h 7.07846 l 7.07845,-0.05542 7.07846,0.0277"
           clip-path="url(#pa787c37ad9)"
           style="fill:none;stroke:#8172b3;stroke-width:1.5;stroke-dasharray:5.55, 2.4;stroke-dashoffset:0"
           id="path329" />
      </g>
      <g
         id="line2d_27">
        <path
           d="M 54.85357,64.262313 H 419.04"
           clip-path="url(#pa787c37ad9)"
           style="fill:none;stroke:#808080;stroke-width:1.5;stroke-dasharray:9.6, 2.4, 1.5, 2.4;stroke-dashoffset:0"
           id="path332" />
      </g>
      <g
         id="patch_3">
        <path
           d="M 54.85357,225.44359 V 12.96"
           style="fill:none;stroke:#808080;stroke-width:1.25;stroke-linecap:square;stroke-linejoin:miter"
           id="path335" />
      </g>
      <g
         id="patch_4">
        <path
           d="M 419.04,225.44359 V 12.96"
           style="fill:none;stroke:#808080;stroke-width:1.25;stroke-linecap:square;stroke-linejoin:miter"
           id="path338" />
      </g>
      <g
         id="patch_5">
        <path
           d="M 54.85357,225.44359 H 419.04"
           style="fill:none;stroke:#808080;stroke-width:1.25;stroke-linecap:square;stroke-linejoin:miter"
           id="path341" />
      </g>
      <g
         id="patch_6">
        <path
           d="M 54.85357,12.96 H 419.04"
           style="fill:none;stroke:#808080;stroke-width:1.25;stroke-linecap:square;stroke-linejoin:miter"
           id="path344" />
      </g>
      <g
         id="legend_1">
        <g
           id="patch_7">
          <path
             d="M 236.69715,219.44359 H 410.64 q 2.4,0 2.4,-2.4 V 117.896 q 0,-2.4 -2.4,-2.4 H 236.69715 q -2.4,0 -2.4,2.4 v 99.14759 q 0,2.4 2.4,2.4 z"
             style="opacity:0.8;fill:#eaeaf2;stroke:#cccccc;stroke-linejoin:miter"
             id="path347" />
        </g>
        <g
           id="line2d_28" />
        <g
           id="text_12">
          <!-- \textbf{OC} -->
          <g
             style="fill:#262626"
             transform="matrix(0.12,0,0,-0.12,272.69715,128.696)"
             id="g359">
            <defs
               id="defs353">
              <path
                 id="CMSSBX10-4f"
                 d="M 4685,2236 C 4685,3541 4218,4665 2541,4665 768,4665 390,3424 390,2236 390,1021 806,-128 2534,-128 4186,-128 4685,904 4685,2236 Z M 2541,389 c -1210,0 -1210,1359 -1210,1950 0,572 0,1821 1203,1821 1210,0 1210,-1236 1210,-1821 0,-578 0,-1950 -1203,-1950 z"
                 transform="scale(0.015625)" />
              <path
                 id="CMSSBX10-43"
                 d="m 4096,925 c 0,52 -45,77 -70,77 -154,0 -340,-419 -1242,-419 -1126,0 -1446,697 -1446,1664 0,960 345,1657 1395,1657 569,0 870,-226 1043,-368 38,-32 58,-58 102,-58 26,0 58,32 64,58 l 128,717 c 7,26 0,52 -51,71 -377,142 -768,233 -1267,233 C 1190,4557 390,3789 390,2253 390,672 1203,-64 2758,-64 c 544,0 884,78 1351,369 51,32 38,78 38,78 z"
                 transform="scale(0.015625)" />
            </defs>
            <use
               xlink:href="#CMSSBX10-4f"
               transform="scale(0.996264)"
               id="use355"
               x="0"
               y="0"
               width="100%"
               height="100%" />
            <use
               xlink:href="#CMSSBX10-43"
               transform="matrix(0.996264,0,0,0.996264,79.14808,0)"
               id="use357"
               x="0"
               y="0"
               width="100%"
               height="100%" />
          </g>
        </g>
        <g
           id="line2d_29">
          <path
             d="m 239.09715,141.2206 h 12 12"
             style="fill:none;stroke:#4c72b0;stroke-width:1.5;stroke-linecap:round"
             id="path362" />
        </g>
        <g
           id="text_13">
          <!-- Asterix -->
          <g
             style="fill:#262626"
             transform="matrix(0.12,0,0,-0.12,272.69715,145.4206)"
             id="g383">
            <defs
               id="defs367">
              <path
                 id="CMSS17-41"
                 d="M 2272,4416 H 1722 L 166,0 h 487 l 448,1280 H 2816 L 3270,0 h 557 z M 2694,1637 H 1222 c 308,891 692,2001 736,2288 h 7 c 45,-262 173,-644 281,-969 z"
                 transform="scale(0.015625)" />
              <path
                 id="CMSS17-78"
                 d="M 1587,1414 2656,2739 H 2099 L 1363,1777 602,2739 H 32 L 1139,1414 0,0 H 563 L 1363,1121 2195,0 h 563 z"
                 transform="scale(0.015625)" />
            </defs>
            <use
               xlink:href="#CMSS17-41"
               transform="scale(0.996264)"
               id="use369"
               x="0"
               y="0"
               width="100%"
               height="100%" />
            <use
               xlink:href="#CMSS17-73"
               transform="matrix(0.996264,0,0,0.996264,62.217855,0)"
               id="use371"
               x="0"
               y="0"
               width="100%"
               height="100%" />
            <use
               xlink:href="#CMSS17-74"
               transform="matrix(0.996264,0,0,0.996264,98.131397,0)"
               id="use373"
               x="0"
               y="0"
               width="100%"
               height="100%" />
            <use
               xlink:href="#CMSS17-65"
               transform="matrix(0.996264,0,0,0.996264,131.96296,0)"
               id="use375"
               x="0"
               y="0"
               width="100%"
               height="100%" />
            <use
               xlink:href="#CMSS17-72"
               transform="matrix(0.996264,0,0,0.996264,173.60179,0)"
               id="use377"
               x="0"
               y="0"
               width="100%"
               height="100%" />
            <use
               xlink:href="#CMSS17-69"
               transform="matrix(0.996264,0,0,0.996264,205.51156,0)"
               id="use379"
               x="0"
               y="0"
               width="100%"
               height="100%" />
            <use
               xlink:href="#CMSS17-78"
               transform="matrix(0.996264,0,0,0.996264,227.69228,0)"
               id="use381"
               x="0"
               y="0"
               width="100%"
               height="100%" />
          </g>
        </g>
        <g
           id="line2d_30">
          <path
             d="m 239.09715,157.94519 h 12 12"
             style="fill:none;stroke:#dd8452;stroke-width:1.5;stroke-linecap:round"
             id="path386" />
        </g>
        <g
           id="text_14">
          <!-- Boxing -->
          <g
             style="fill:#262626"
             transform="matrix(0.12,0,0,-0.12,272.69715,162.14519)"
             id="g405">
            <defs
               id="defs391">
              <path
                 id="CMSS17-42"
                 d="M 570,4416 V 0 h 1593 c 871,0 1504,574 1504,1200 0,485 -416,976 -1165,1117 832,241 999,723 999,996 0,570 -627,1103 -1504,1103 z m 518,-1920 v 1563 h 736 c 659,0 1178,-335 1178,-753 0,-380 -410,-810 -1236,-810 z m 0,-2139 v 1750 h 851 c 691,0 1223,-428 1223,-901 0,-434 -468,-849 -1178,-849 z"
                 transform="scale(0.015625)" />
              <path
                 id="CMSS17-67"
                 d="m 2848,2808 c -365,0 -678,-70 -934,-191 -212,160 -429,191 -576,191 -557,0 -980,-459 -980,-994 0,-346 192,-607 205,-619 C 448,1035 384,863 384,672 384,448 474,289 544,200 211,-3 166,-314 166,-435 c 0,-463 583,-845 1332,-845 755,0 1337,382 1337,852 0,876 -979,876 -1248,876 h -518 c -96,0 -352,0 -352,343 0,130 57,213 64,219 96,-70 294,-178 557,-178 531,0 972,446 972,995 0,305 -140,528 -198,605 h 19 c 19,0 288,0 384,0 205,0 224,-3 403,-13 z M 1338,1182 c -218,0 -525,133 -525,641 0,552 352,641 518,641 218,0 525,-133 525,-641 0,-552 -352,-641 -518,-641 z M 1581,-10 c 153,0 800,0 800,-432 0,-272 -397,-487 -877,-487 -486,0 -883,209 -883,494 0,32 0,425 441,425 z"
                 transform="scale(0.015625)" />
            </defs>
            <use
               xlink:href="#CMSS17-42"
               transform="scale(0.996264)"
               id="use393"
               x="0"
               y="0"
               width="100%"
               height="100%" />
            <use
               xlink:href="#CMSS17-6f"
               transform="matrix(0.996264,0,0,0.996264,62.33804,0)"
               id="use395"
               x="0"
               y="0"
               width="100%"
               height="100%" />
            <use
               xlink:href="#CMSS17-78"
               transform="matrix(0.996264,0,0,0.996264,106.57921,0)"
               id="use397"
               x="0"
               y="0"
               width="100%"
               height="100%" />
            <use
               xlink:href="#CMSS17-69"
               transform="matrix(0.996264,0,0,0.996264,149.57935,0)"
               id="use399"
               x="0"
               y="0"
               width="100%"
               height="100%" />
            <use
               xlink:href="#CMSS17-6e"
               transform="matrix(0.996264,0,0,0.996264,171.76007,0)"
               id="use401"
               x="0"
               y="0"
               width="100%"
               height="100%" />
            <use
               xlink:href="#CMSS17-67"
               transform="matrix(0.996264,0,0,0.996264,219.96502,0)"
               id="use403"
               x="0"
               y="0"
               width="100%"
               height="100%" />
          </g>
        </g>
        <g
           id="line2d_31">
          <path
             d="m 239.09715,174.66979 h 12 12"
             style="fill:none;stroke:#55a868;stroke-width:1.5;stroke-linecap:round"
             id="path408" />
        </g>
        <g
           id="text_15">
          <!-- Freeway -->
          <g
             style="fill:#262626"
             transform="matrix(0.12,0,0,-0.12,272.69715,178.86979)"
             id="g429">
            <defs
               id="defs413">
              <path
                 id="CMSS17-77"
                 d="M 4013,2752 H 3526 L 3187,1601 C 3117,1358 2918,685 2893,371 h -7 c -12,193 -121,653 -300,1262 L 2259,2752 H 1818 L 1498,1658 C 1338,1101 1216,627 1203,371 h -6 C 1171,749 909,1633 870,1773 L 582,2752 H 83 L 915,0 h 487 c 332,1096 588,1943 608,2370 12,-210 121,-663 185,-886 L 2618,0 h 563 z"
                 transform="scale(0.015625)" />
              <path
                 id="CMSS17-79"
                 d="M 2675,2752 H 2176 C 1632,1294 1446,702 1434,383 h -7 C 1408,696 1126,1460 902,2007 L 602,2752 H 83 L 1216,13 c -70,-191 -173,-478 -205,-542 -141,-356 -237,-356 -339,-356 -26,0 -230,0 -461,76 l 39,-420 c 160,-32 320,-51 435,-51 160,0 480,0 774,783 z"
                 transform="scale(0.015625)" />
            </defs>
            <use
               xlink:href="#CMSS17-46"
               transform="scale(0.996264)"
               id="use415"
               x="0"
               y="0"
               width="100%"
               height="100%" />
            <use
               xlink:href="#CMSS17-72"
               transform="matrix(0.996264,0,0,0.996264,50.687105,0)"
               id="use417"
               x="0"
               y="0"
               width="100%"
               height="100%" />
            <use
               xlink:href="#CMSS17-65"
               transform="matrix(0.996264,0,0,0.996264,82.596878,0)"
               id="use419"
               x="0"
               y="0"
               width="100%"
               height="100%" />
            <use
               xlink:href="#CMSS17-65"
               transform="matrix(0.996264,0,0,0.996264,124.2357,0)"
               id="use421"
               x="0"
               y="0"
               width="100%"
               height="100%" />
            <use
               xlink:href="#CMSS17-77"
               transform="matrix(0.996264,0,0,0.996264,165.87452,0)"
               id="use423"
               x="0"
               y="0"
               width="100%"
               height="100%" />
            <use
               xlink:href="#CMSS17-61"
               transform="matrix(0.996264,0,0,0.996264,227.09161,0)"
               id="use425"
               x="0"
               y="0"
               width="100%"
               height="100%" />
            <use
               xlink:href="#CMSS17-79"
               transform="matrix(0.996264,0,0,0.996264,269.41108,0)"
               id="use427"
               x="0"
               y="0"
               width="100%"
               height="100%" />
          </g>
        </g>
        <g
           id="line2d_32">
          <path
             d="m 239.09715,191.39438 h 12 12"
             style="fill:none;stroke:#c44e52;stroke-width:1.5;stroke-linecap:round"
             id="path432" />
        </g>
        <g
           id="text_16">
          <!-- Pong -->
          <g
             style="fill:#262626"
             transform="matrix(0.12,0,0,-0.12,272.69715,195.59438)"
             id="g446">
            <defs
               id="defs436">
              <path
                 id="CMSS17-50"
                 d="m 2106,1856 c 768,0 1395,597 1395,1302 0,692 -602,1295 -1434,1295 H 570 V 0 h 537 v 1856 z m -180,2240 c 743,0 1069,-469 1069,-939 0,-437 -301,-931 -1069,-931 h -832 v 1870 z"
                 transform="scale(0.015625)" />
            </defs>
            <use
               xlink:href="#CMSS17-50"
               transform="scale(0.996264)"
               id="use438"
               x="0"
               y="0"
               width="100%"
               height="100%" />
            <use
               xlink:href="#CMSS17-6f"
               transform="matrix(0.996264,0,0,0.996264,57.133132,0)"
               id="use440"
               x="0"
               y="0"
               width="100%"
               height="100%" />
            <use
               xlink:href="#CMSS17-6e"
               transform="matrix(0.996264,0,0,0.996264,103.97676,0)"
               id="use442"
               x="0"
               y="0"
               width="100%"
               height="100%" />
            <use
               xlink:href="#CMSS17-67"
               transform="matrix(0.996264,0,0,0.996264,152.1817,0)"
               id="use444"
               x="0"
               y="0"
               width="100%"
               height="100%" />
          </g>
        </g>
        <g
           id="line2d_33">
          <path
             d="m 239.09715,208.11898 h 12 12"
             style="fill:none;stroke:#8172b3;stroke-width:1.5;stroke-linecap:round"
             id="path449" />
        </g>
        <g
           id="text_17">
          <!-- Tennis -->
          <g
             style="fill:#262626"
             transform="matrix(0.12,0,0,-0.12,272.69715,212.31898)"
             id="g467">
            <defs
               id="defs453">
              <path
                 id="CMSS17-54"
                 d="m 2317,3968 h 531 c 77,0 154,0 230,0 h 800 v 408 H 218 v -408 h 800 c 76,0 153,0 230,0 h 531 V -32 h 538 z"
                 transform="scale(0.015625)" />
            </defs>
            <use
               xlink:href="#CMSS17-54"
               transform="scale(0.996264)"
               id="use455"
               x="0"
               y="0"
               width="100%"
               height="100%" />
            <use
               xlink:href="#CMSS17-65"
               transform="matrix(0.996264,0,0,0.996264,56.012199,0)"
               id="use457"
               x="0"
               y="0"
               width="100%"
               height="100%" />
            <use
               xlink:href="#CMSS17-6e"
               transform="matrix(0.996264,0,0,0.996264,97.651021,0)"
               id="use459"
               x="0"
               y="0"
               width="100%"
               height="100%" />
            <use
               xlink:href="#CMSS17-6e"
               transform="matrix(0.996264,0,0,0.996264,145.85596,0)"
               id="use461"
               x="0"
               y="0"
               width="100%"
               height="100%" />
            <use
               xlink:href="#CMSS17-69"
               transform="matrix(0.996264,0,0,0.996264,194.06091,0)"
               id="use463"
               x="0"
               y="0"
               width="100%"
               height="100%" />
            <use
               xlink:href="#CMSS17-73"
               transform="matrix(0.996264,0,0,0.996264,216.24163,0)"
               id="use465"
               x="0"
               y="0"
               width="100%"
               height="100%" />
          </g>
        </g>
        <g
           id="line2d_34" />
        <g
           id="text_18">
          <!-- \textbf{Deep} -->
          <g
             style="fill:#262626"
             transform="matrix(0.12,0,0,-0.12,369.26857,128.696)"
             id="g484">
            <defs
               id="defs474">
              <path
                 id="CMSSBX10-44"
                 d="m 890,4480 c -231,0 -308,-71 -308,-309 V 309 C 582,78 653,0 890,0 h 1689 c 1562,0 2106,942 2106,2208 0,510 -83,1136 -442,1594 -480,601 -1248,678 -1664,678 z M 1504,556 v 3368 h 819 c 1383,0 1440,-994 1440,-1716 0,-729 -70,-1652 -1433,-1652 z"
                 transform="scale(0.015625)" />
              <path
                 id="CMSSBX10-65"
                 d="m 2758,1385 c 148,0 308,0 308,293 0,836 -384,1394 -1338,1394 C 704,3072 198,2491 198,1510 198,452 806,-64 1811,-64 c 243,0 608,32 1031,246 140,71 185,90 185,168 0,45 -19,232 -25,283 -26,200 -32,206 -90,206 -26,0 -38,0 -109,-64 -377,-328 -761,-373 -966,-373 -723,0 -800,572 -819,983 z m -1734,343 c 19,394 147,878 704,878 512,0 608,-375 627,-878 z"
                 transform="scale(0.015625)" />
              <path
                 id="CMSSBX10-70"
                 d="m 1261,242 c 288,-324 640,-324 729,-324 1357,0 1357,1236 1357,1558 0,315 0,1532 -1158,1532 -378,0 -717,-155 -947,-375 0,239 -90,304 -308,304 H 698 c -231,0 -308,-71 -308,-310 V -969 c 0,-233 71,-311 308,-311 h 256 c 243,0 307,85 307,314 z m 0,2050 c 70,64 281,212 557,212 652,0 659,-758 659,-1041 0,-257 0,-1079 -723,-1079 -148,0 -263,51 -340,108 -153,110 -153,142 -153,258 z"
                 transform="scale(0.015625)" />
            </defs>
            <use
               xlink:href="#CMSSBX10-44"
               transform="scale(0.996264)"
               id="use476"
               x="0"
               y="0"
               width="100%"
               height="100%" />
            <use
               xlink:href="#CMSSBX10-65"
               transform="matrix(0.996264,0,0,0.996264,79.14808,0)"
               id="use478"
               x="0"
               y="0"
               width="100%"
               height="100%" />
            <use
               xlink:href="#CMSSBX10-65"
               transform="matrix(0.996264,0,0,0.996264,130.06853,0)"
               id="use480"
               x="0"
               y="0"
               width="100%"
               height="100%" />
            <use
               xlink:href="#CMSSBX10-70"
               transform="matrix(0.996264,0,0,0.996264,180.98899,0)"
               id="use482"
               x="0"
               y="0"
               width="100%"
               height="100%" />
          </g>
        </g>
        <g
           id="line2d_35">
          <path
             d="m 335.66857,141.22061 h 12 12"
             style="fill:none;stroke:#4c72b0;stroke-width:1.5;stroke-dasharray:5.55, 2.4;stroke-dashoffset:0"
             id="path487" />
        </g>
        <g
           id="text_19">
          <!-- Asterix -->
          <g
             style="fill:#262626"
             transform="matrix(0.12,0,0,-0.12,369.26857,145.42061)"
             id="g504">
            <use
               xlink:href="#CMSS17-41"
               transform="scale(0.996264)"
               id="use490"
               x="0"
               y="0"
               width="100%"
               height="100%" />
            <use
               xlink:href="#CMSS17-73"
               transform="matrix(0.996264,0,0,0.996264,62.217855,0)"
               id="use492"
               x="0"
               y="0"
               width="100%"
               height="100%" />
            <use
               xlink:href="#CMSS17-74"
               transform="matrix(0.996264,0,0,0.996264,98.131397,0)"
               id="use494"
               x="0"
               y="0"
               width="100%"
               height="100%" />
            <use
               xlink:href="#CMSS17-65"
               transform="matrix(0.996264,0,0,0.996264,131.96296,0)"
               id="use496"
               x="0"
               y="0"
               width="100%"
               height="100%" />
            <use
               xlink:href="#CMSS17-72"
               transform="matrix(0.996264,0,0,0.996264,173.60179,0)"
               id="use498"
               x="0"
               y="0"
               width="100%"
               height="100%" />
            <use
               xlink:href="#CMSS17-69"
               transform="matrix(0.996264,0,0,0.996264,205.51156,0)"
               id="use500"
               x="0"
               y="0"
               width="100%"
               height="100%" />
            <use
               xlink:href="#CMSS17-78"
               transform="matrix(0.996264,0,0,0.996264,227.69228,0)"
               id="use502"
               x="0"
               y="0"
               width="100%"
               height="100%" />
          </g>
        </g>
        <g
           id="line2d_36">
          <path
             d="m 335.66857,157.94521 h 12 12"
             style="fill:none;stroke:#dd8452;stroke-width:1.5;stroke-dasharray:5.55, 2.4;stroke-dashoffset:0"
             id="path507" />
        </g>
        <g
           id="text_20">
          <!-- Boxing -->
          <g
             style="fill:#262626"
             transform="matrix(0.12,0,0,-0.12,369.26857,162.14521)"
             id="g522">
            <use
               xlink:href="#CMSS17-42"
               transform="scale(0.996264)"
               id="use510"
               x="0"
               y="0"
               width="100%"
               height="100%" />
            <use
               xlink:href="#CMSS17-6f"
               transform="matrix(0.996264,0,0,0.996264,62.33804,0)"
               id="use512"
               x="0"
               y="0"
               width="100%"
               height="100%" />
            <use
               xlink:href="#CMSS17-78"
               transform="matrix(0.996264,0,0,0.996264,106.57921,0)"
               id="use514"
               x="0"
               y="0"
               width="100%"
               height="100%" />
            <use
               xlink:href="#CMSS17-69"
               transform="matrix(0.996264,0,0,0.996264,149.57935,0)"
               id="use516"
               x="0"
               y="0"
               width="100%"
               height="100%" />
            <use
               xlink:href="#CMSS17-6e"
               transform="matrix(0.996264,0,0,0.996264,171.76007,0)"
               id="use518"
               x="0"
               y="0"
               width="100%"
               height="100%" />
            <use
               xlink:href="#CMSS17-67"
               transform="matrix(0.996264,0,0,0.996264,219.96502,0)"
               id="use520"
               x="0"
               y="0"
               width="100%"
               height="100%" />
          </g>
        </g>
        <g
           id="line2d_37">
          <path
             d="m 335.66857,174.6698 h 12 12"
             style="fill:none;stroke:#55a868;stroke-width:1.5;stroke-dasharray:5.55, 2.4;stroke-dashoffset:0"
             id="path525" />
        </g>
        <g
           id="text_21">
          <!-- Freeway -->
          <g
             style="fill:#262626"
             transform="matrix(0.12,0,0,-0.12,369.26857,178.8698)"
             id="g542">
            <use
               xlink:href="#CMSS17-46"
               transform="scale(0.996264)"
               id="use528"
               x="0"
               y="0"
               width="100%"
               height="100%" />
            <use
               xlink:href="#CMSS17-72"
               transform="matrix(0.996264,0,0,0.996264,50.687105,0)"
               id="use530"
               x="0"
               y="0"
               width="100%"
               height="100%" />
            <use
               xlink:href="#CMSS17-65"
               transform="matrix(0.996264,0,0,0.996264,82.596878,0)"
               id="use532"
               x="0"
               y="0"
               width="100%"
               height="100%" />
            <use
               xlink:href="#CMSS17-65"
               transform="matrix(0.996264,0,0,0.996264,124.2357,0)"
               id="use534"
               x="0"
               y="0"
               width="100%"
               height="100%" />
            <use
               xlink:href="#CMSS17-77"
               transform="matrix(0.996264,0,0,0.996264,165.87452,0)"
               id="use536"
               x="0"
               y="0"
               width="100%"
               height="100%" />
            <use
               xlink:href="#CMSS17-61"
               transform="matrix(0.996264,0,0,0.996264,227.09161,0)"
               id="use538"
               x="0"
               y="0"
               width="100%"
               height="100%" />
            <use
               xlink:href="#CMSS17-79"
               transform="matrix(0.996264,0,0,0.996264,269.41108,0)"
               id="use540"
               x="0"
               y="0"
               width="100%"
               height="100%" />
          </g>
        </g>
        <g
           id="line2d_38">
          <path
             d="m 335.66857,191.3944 h 12 12"
             style="fill:none;stroke:#c44e52;stroke-width:1.5;stroke-dasharray:5.55, 2.4;stroke-dashoffset:0"
             id="path545" />
        </g>
        <g
           id="text_22">
          <!-- Pong -->
          <g
             style="fill:#262626"
             transform="matrix(0.12,0,0,-0.12,369.26857,195.5944)"
             id="g556">
            <use
               xlink:href="#CMSS17-50"
               transform="scale(0.996264)"
               id="use548"
               x="0"
               y="0"
               width="100%"
               height="100%" />
            <use
               xlink:href="#CMSS17-6f"
               transform="matrix(0.996264,0,0,0.996264,57.133132,0)"
               id="use550"
               x="0"
               y="0"
               width="100%"
               height="100%" />
            <use
               xlink:href="#CMSS17-6e"
               transform="matrix(0.996264,0,0,0.996264,103.97676,0)"
               id="use552"
               x="0"
               y="0"
               width="100%"
               height="100%" />
            <use
               xlink:href="#CMSS17-67"
               transform="matrix(0.996264,0,0,0.996264,152.1817,0)"
               id="use554"
               x="0"
               y="0"
               width="100%"
               height="100%" />
          </g>
        </g>
        <g
           id="line2d_39">
          <path
             d="m 335.66857,208.11899 h 12 12"
             style="fill:none;stroke:#8172b3;stroke-width:1.5;stroke-dasharray:5.55, 2.4;stroke-dashoffset:0"
             id="path559" />
        </g>
        <g
           id="text_23">
          <!-- Tennis -->
          <g
             style="fill:#262626"
             transform="matrix(0.12,0,0,-0.12,369.26857,212.31899)"
             id="g574">
            <use
               xlink:href="#CMSS17-54"
               transform="scale(0.996264)"
               id="use562"
               x="0"
               y="0"
               width="100%"
               height="100%" />
            <use
               xlink:href="#CMSS17-65"
               transform="matrix(0.996264,0,0,0.996264,56.012199,0)"
               id="use564"
               x="0"
               y="0"
               width="100%"
               height="100%" />
            <use
               xlink:href="#CMSS17-6e"
               transform="matrix(0.996264,0,0,0.996264,97.651021,0)"
               id="use566"
               x="0"
               y="0"
               width="100%"
               height="100%" />
            <use
               xlink:href="#CMSS17-6e"
               transform="matrix(0.996264,0,0,0.996264,145.85596,0)"
               id="use568"
               x="0"
               y="0"
               width="100%"
               height="100%" />
            <use
               xlink:href="#CMSS17-69"
               transform="matrix(0.996264,0,0,0.996264,194.06091,0)"
               id="use570"
               x="0"
               y="0"
               width="100%"
               height="100%" />
            <use
               xlink:href="#CMSS17-73"
               transform="matrix(0.996264,0,0,0.996264,216.24163,0)"
               id="use572"
               x="0"
               y="0"
               width="100%"
               height="100%" />
          </g>
        </g>
      </g>
    </g>
  </g>
  <defs
     id="defs583">
    <clipPath
       id="pa787c37ad9">
      <rect
         x="54.853569"
         y="12.96"
         width="364.18643"
         height="212.4836"
         id="rect580" />
    </clipPath>
  </defs>
</svg>
